AmstelvarA2-Roman_opsz8.ufo
<glyph name="quotedbl" format="2">
  <advance width="1029"/>
  <unicode hex="0022"/>
  <outline>
    <contour>
      <point x="245" y="964" type="line"/>
      <point x="168" y="1412" type="line"/>
      <point x="168" y="1464"/>
      <point x="236" y="1558"/>
      <point x="306" y="1558" type="qcurve" smooth="yes"/>
      <point x="376" y="1558"/>
      <point x="444" y="1464"/>
      <point x="444" y="1412" type="qcurve"/>
      <point x="365" y="964" type="line"/>
    </contour>
    <contour>
      <point x="663" y="964" type="line"/>
      <point x="586" y="1412" type="line"/>
      <point x="586" y="1464"/>
      <point x="653" y="1558"/>
      <point x="723" y="1558" type="qcurve" smooth="yes"/>
      <point x="793" y="1558"/>
      <point x="861" y="1464"/>
      <point x="861" y="1412" type="qcurve"/>
      <point x="782" y="964" type="line"/>
    </contour>
  </outline>
</glyph>
<glyph name="asterisk" format="2">
  <advance width="972"/>
  <unicode hex="002A"/>
  <outline>
    <contour>
      <point x="486" y="664" type="qcurve" smooth="yes"/>
      <point x="424" y="664"/>
      <point x="372" y="749"/>
      <point x="388" y="802" type="qcurve" smooth="yes"/>
      <point x="465" y="1068" type="line"/>
      <point x="461" y="1071" type="line"/>
      <point x="267" y="871" type="line" smooth="yes"/>
      <point x="237" y="838"/>
      <point x="131" y="831"/>
      <point x="99" y="888" type="qcurve" smooth="yes"/>
      <point x="65" y="944"/>
      <point x="126" y="1031"/>
      <point x="169" y="1040" type="qcurve" smooth="yes"/>
      <point x="438" y="1106" type="line"/>
      <point x="437" y="1114" type="line"/>
      <point x="170" y="1182" type="line" smooth="yes"/>
      <point x="126" y="1191"/>
      <point x="66" y="1278"/>
      <point x="99" y="1335" type="qcurve" smooth="yes"/>
      <point x="131" y="1391"/>
      <point x="236" y="1383"/>
      <point x="268" y="1351" type="qcurve" smooth="yes"/>
      <point x="459" y="1151" type="line"/>
      <point x="464" y="1154" type="line"/>
      <point x="388" y="1422" type="line" smooth="yes"/>
      <point x="371" y="1476"/>
      <point x="426" y="1558"/>
      <point x="486" y="1558" type="qcurve" smooth="yes"/>
      <point x="548" y="1558"/>
      <point x="600" y="1474"/>
      <point x="584" y="1422" type="qcurve" smooth="yes"/>
      <point x="507" y="1154" type="line"/>
      <point x="512" y="1151" type="line"/>
      <point x="706" y="1351" type="line" smooth="yes"/>
      <point x="735" y="1384"/>
      <point x="841" y="1391"/>
      <point x="873" y="1334" type="qcurve" smooth="yes"/>
      <point x="907" y="1278"/>
      <point x="848" y="1191"/>
      <point x="803" y="1182" type="qcurve" smooth="yes"/>
      <point x="534" y="1116" type="line"/>
      <point x="535" y="1108" type="line"/>
      <point x="802" y="1039" type="line" smooth="yes"/>
      <point x="847" y="1030"/>
      <point x="906" y="944"/>
      <point x="873" y="886" type="qcurve" smooth="yes"/>
      <point x="840" y="830"/>
      <point x="734" y="837"/>
      <point x="705" y="871" type="qcurve" smooth="yes"/>
      <point x="513" y="1071" type="line"/>
      <point x="509" y="1068" type="line"/>
      <point x="584" y="802" type="line" smooth="yes"/>
      <point x="600" y="750"/>
      <point x="552" y="664"/>
    </contour>
  </outline>
</glyph>
<glyph name="hyphen" format="2">
  <advance width="739"/>
  <unicode hex="002D"/>
  <outline>
    <contour>
      <point x="80" y="544" type="line"/>
      <point x="80" y="720" type="line"/>
      <point x="370" y="716" type="line"/>
      <point x="659" y="720" type="line"/>
      <point x="659" y="544" type="line"/>
      <point x="370" y="548" type="line"/>
    </contour>
  </outline>
</glyph>
<glyph name="period" format="2">
  <advance width="610"/>
  <unicode hex="002E"/>
  <outline>
    <contour>
      <point x="148" y="134" type="qcurve" smooth="yes"/>
      <point x="148" y="197"/>
      <point x="236" y="291"/>
      <point x="305" y="291" type="qcurve" smooth="yes"/>
      <point x="374" y="291"/>
      <point x="462" y="197"/>
      <point x="462" y="134" type="qcurve" smooth="yes"/>
      <point x="462" y="72"/>
      <point x="374" y="-22"/>
      <point x="305" y="-22" type="qcurve"/>
      <point x="236" y="-22"/>
      <point x="148" y="72"/>
    </contour>
  </outline>
</glyph>
<glyph name="one" format="2">
  <advance width="973"/>
  <unicode hex="0031"/>
  <outline>
    <contour>
      <point x="109" y="0" type="line"/>
      <point x="109" y="144" type="line"/>
      <point x="387" y="179" type="line"/>
      <point x="387" y="757" type="line"/>
      <point x="385" y="1319" type="line"/>
      <point x="107" y="1353" type="line"/>
      <point x="107" y="1498" type="line"/>
      <point x="580" y="1521" type="line"/>
      <point x="612" y="1486" type="line"/>
      <point x="606" y="757" type="line"/>
      <point x="606" y="179" type="line"/>
      <point x="884" y="144" type="line"/>
      <point x="884" y="0" type="line"/>
    </contour>
  </outline>
</glyph>
<glyph name="three" format="2">
  <advance width="1036"/>
  <unicode hex="0033"/>
  <outline>
    <contour>
      <point x="4" y="143" type="qcurve"/>
      <point x="75" y="280" type="line"/>
      <point x="160" y="208"/>
      <point x="320" y="149"/>
      <point x="436" y="149" type="qcurve" smooth="yes"/>
      <point x="563" y="149"/>
      <point x="732" y="283"/>
      <point x="732" y="422" type="qcurve" smooth="yes"/>
      <point x="732" y="576"/>
      <point x="490" y="719"/>
      <point x="301" y="719" type="qcurve" smooth="yes"/>
      <point x="256" y="719" type="line"/>
      <point x="218" y="839" type="line"/>
      <point x="324" y="844" type="line" smooth="yes"/>
      <point x="504" y="851"/>
      <point x="700" y="1000"/>
      <point x="700" y="1142" type="qcurve" smooth="yes"/>
      <point x="700" y="1248"/>
      <point x="571" y="1362"/>
      <point x="472" y="1362" type="qcurve" smooth="yes"/>
      <point x="367" y="1362"/>
      <point x="212" y="1288"/>
      <point x="127" y="1209" type="qcurve"/>
      <point x="70" y="1348" type="line"/>
      <point x="151" y="1434"/>
      <point x="363" y="1528"/>
      <point x="508" y="1528" type="qcurve" smooth="yes"/>
      <point x="701" y="1528"/>
      <point x="926" y="1339"/>
      <point x="926" y="1190" type="qcurve" smooth="yes"/>
      <point x="926" y="1033"/>
      <point x="737" y="849"/>
      <point x="564" y="804" type="qcurve"/>
      <point x="564" y="797" type="line"/>
      <point x="737" y="770"/>
      <point x="963" y="556"/>
      <point x="963" y="382" type="qcurve" smooth="yes"/>
      <point x="963" y="190"/>
      <point x="683" y="-22"/>
      <point x="458" y="-22" type="qcurve" smooth="yes"/>
      <point x="325" y="-22"/>
      <point x="84" y="65"/>
    </contour>
  </outline>
</glyph>
<glyph name="four" format="2">
  <advance width="1338"/>
  <unicode hex="0034"/>
  <outline>
    <contour>
      <point x="93" y="556" type="line"/>
      <point x="813" y="1554" type="line"/>
      <point x="916" y="1517" type="line"/>
      <point x="978" y="1501" type="line"/>
      <point x="972" y="493" type="line"/>
      <point x="972" y="179" type="line"/>
      <point x="1220" y="144" type="line"/>
      <point x="1220" y="0" type="line"/>
      <point x="502" y="0" type="line"/>
      <point x="502" y="144" type="line"/>
      <point x="760" y="179" type="line"/>
      <point x="769" y="491" type="line"/>
      <point x="769" y="1275" type="line"/>
      <point x="302" y="617" type="line"/>
      <point x="308" y="607" type="line"/>
      <point x="1253" y="581" type="line"/>
      <point x="1253" y="434" type="line"/>
      <point x="113" y="430" type="line"/>
    </contour>
  </outline>
</glyph>
<glyph name="five" format="2">
  <advance width="1055"/>
  <unicode hex="0035"/>
  <outline>
    <contour>
      <point x="2" y="143" type="qcurve"/>
      <point x="71" y="277" type="line"/>
      <point x="128" y="232"/>
      <point x="310" y="151"/>
      <point x="444" y="151" type="qcurve" smooth="yes"/>
      <point x="579" y="151"/>
      <point x="768" y="298"/>
      <point x="768" y="455" type="qcurve" smooth="yes"/>
      <point x="768" y="609"/>
      <point x="484" y="776"/>
      <point x="269" y="776" type="qcurve" smooth="yes"/>
      <point x="157" y="776" type="line"/>
      <point x="114" y="854" type="line"/>
      <point x="182" y="1474" type="line"/>
      <point x="209" y="1507" type="line"/>
      <point x="905" y="1507" type="line"/>
      <point x="890" y="1297" type="line"/>
      <point x="315" y="1297" type="line"/>
      <point x="305" y="1286" type="line"/>
      <point x="260" y="909" type="line"/>
      <point x="399" y="951" type="line"/>
      <point x="666" y="951"/>
      <point x="995" y="724"/>
      <point x="995" y="504" type="qcurve" smooth="yes"/>
      <point x="995" y="262"/>
      <point x="688" y="-22"/>
      <point x="477" y="-22" type="qcurve" smooth="yes"/>
      <point x="312" y="-22"/>
      <point x="71" y="73"/>
    </contour>
  </outline>
</glyph>
<glyph name="eight" format="2">
  <advance width="1090"/>
  <unicode hex="0038"/>
  <outline>
    <contour>
      <point x="42" y="394" type="qcurve" smooth="yes"/>
      <point x="42" y="587"/>
      <point x="298" y="811"/>
      <point x="422" y="855" type="qcurve"/>
      <point x="517" y="787" type="line"/>
      <point x="391" y="737"/>
      <point x="211" y="564"/>
      <point x="211" y="422" type="qcurve" smooth="yes"/>
      <point x="211" y="292"/>
      <point x="400" y="120"/>
      <point x="562" y="120" type="qcurve" smooth="yes"/>
      <point x="697" y="120"/>
      <point x="873" y="264"/>
      <point x="873" y="392" type="qcurve" smooth="yes"/>
      <point x="873" y="503"/>
      <point x="704" y="637"/>
      <point x="515" y="722" type="qcurve" smooth="yes"/>
      <point x="303" y="817"/>
      <point x="126" y="1008"/>
      <point x="126" y="1165" type="qcurve" smooth="yes"/>
      <point x="126" y="1331"/>
      <point x="400" y="1538"/>
      <point x="570" y="1538" type="qcurve" smooth="yes"/>
      <point x="745" y="1538"/>
      <point x="962" y="1357"/>
      <point x="962" y="1223" type="qcurve" smooth="yes"/>
      <point x="962" y="1091"/>
      <point x="800" y="893"/>
      <point x="660" y="811" type="qcurve"/>
      <point x="555" y="881" type="line"/>
      <point x="672" y="946"/>
      <point x="795" y="1083"/>
      <point x="795" y="1188" type="qcurve" smooth="yes"/>
      <point x="795" y="1287"/>
      <point x="661" y="1409"/>
      <point x="556" y="1409" type="qcurve" smooth="yes"/>
      <point x="449" y="1409"/>
      <point x="301" y="1282"/>
      <point x="301" y="1194" type="qcurve" smooth="yes"/>
      <point x="301" y="1107"/>
      <point x="428" y="987"/>
      <point x="640" y="895" type="qcurve" smooth="yes"/>
      <point x="851" y="804"/>
      <point x="1058" y="594"/>
      <point x="1058" y="420" type="qcurve" smooth="yes"/>
      <point x="1058" y="234"/>
      <point x="774" y="-22"/>
      <point x="553" y="-22" type="qcurve" smooth="yes"/>
      <point x="312" y="-22"/>
      <point x="42" y="228"/>
    </contour>
  </outline>
</glyph>
<glyph name="nine" format="2">
  <advance width="1259"/>
  <unicode hex="0039"/>
  <outline>
    <contour>
      <point x="53" y="1007" type="qcurve" smooth="yes"/>
      <point x="53" y="1241"/>
      <point x="343" y="1527"/>
      <point x="578" y="1527" type="qcurve" smooth="yes"/>
      <point x="855" y="1527"/>
      <point x="1187" y="1161"/>
      <point x="1187" y="878" type="qcurve" smooth="yes"/>
      <point x="1187" y="548"/>
      <point x="736" y="32"/>
      <point x="335" y="-86" type="qcurve"/>
      <point x="285" y="51" type="line"/>
      <point x="592" y="157"/>
      <point x="952" y="543"/>
      <point x="952" y="881" type="qcurve" smooth="yes"/>
      <point x="952" y="1122"/>
      <point x="736" y="1379"/>
      <point x="588" y="1379" type="qcurve" smooth="yes"/>
      <point x="425" y="1379"/>
      <point x="280" y="1185"/>
      <point x="280" y="1035" type="qcurve" smooth="yes"/>
      <point x="280" y="879"/>
      <point x="463" y="724"/>
      <point x="623" y="724" type="qcurve" smooth="yes"/>
      <point x="661" y="724"/>
      <point x="745" y="740"/>
      <point x="779" y="750" type="qcurve"/>
      <point x="817" y="663" type="line"/>
      <point x="774" y="625"/>
      <point x="640" y="570"/>
      <point x="536" y="570" type="qcurve" smooth="yes"/>
      <point x="314" y="569"/>
      <point x="53" y="811"/>
    </contour>
  </outline>
</glyph>
<glyph name="colon" format="2">
  <advance width="778"/>
  <unicode hex="003A"/>
  <outline>
    <contour>
      <point x="233" y="133" type="qcurve" smooth="yes"/>
      <point x="233" y="196"/>
      <point x="321" y="289"/>
      <point x="389" y="289" type="qcurve" smooth="yes"/>
      <point x="457" y="289"/>
      <point x="545" y="196"/>
      <point x="545" y="133" type="qcurve" smooth="yes"/>
      <point x="545" y="71"/>
      <point x="457" y="-22"/>
      <point x="389" y="-22" type="qcurve" smooth="yes"/>
      <point x="321" y="-22"/>
      <point x="233" y="71"/>
    </contour>
    <contour>
      <point x="233" y="882" type="qcurve" smooth="yes"/>
      <point x="233" y="945"/>
      <point x="321" y="1038"/>
      <point x="389" y="1038" type="qcurve" smooth="yes"/>
      <point x="457" y="1038"/>
      <point x="545" y="945"/>
      <point x="545" y="882" type="qcurve" smooth="yes"/>
      <point x="545" y="821"/>
      <point x="457" y="728"/>
      <point x="389" y="728" type="qcurve" smooth="yes"/>
      <point x="321" y="728"/>
      <point x="233" y="821"/>
    </contour>
  </outline>
</glyph>
<glyph name="greater" format="2">
  <advance width="1124"/>
  <unicode hex="003E"/>
  <outline>
    <contour>
      <point x="254" y="307" type="qcurve" smooth="yes"/>
      <point x="373" y="431"/>
      <point x="622" y="637"/>
      <point x="626" y="637" type="qcurve"/>
      <point x="622" y="637"/>
      <point x="370" y="837"/>
      <point x="255" y="955" type="qcurve" smooth="yes"/>
      <point x="186" y="1010"/>
      <point x="281" y="1127"/>
      <point x="356" y="1066" type="qcurve" smooth="yes"/>
      <point x="416" y="1017"/>
      <point x="908" y="644"/>
      <point x="910" y="640" type="qcurve"/>
      <point x="907" y="636"/>
      <point x="418" y="245"/>
      <point x="357" y="197" type="qcurve" smooth="yes"/>
      <point x="283" y="139"/>
      <point x="186" y="252"/>
    </contour>
  </outline>
</glyph>
<glyph name="A" format="2">
  <advance width="1678"/>
  <unicode hex="0041"/>
  <anchor x="822" y="0" name="bottom"/>
  <anchor x="1445" y="0" name="ogonek"/>
  <anchor x="536" y="1500" name="tonos"/>
  <anchor x="831" y="1500" name="top"/>
  <outline>
    <contour>
      <point x="20" y="0" type="line"/>
      <point x="20" y="150" type="line"/>
      <point x="228" y="185" type="line"/>
      <point x="370" y="540" type="line"/>
      <point x="734" y="1508" type="line"/>
      <point x="938" y="1508" type="line"/>
      <point x="1305" y="567" type="line"/>
      <point x="1460" y="185" type="line"/>
      <point x="1658" y="150" type="line"/>
      <point x="1658" y="0" type="line"/>
      <point x="1061" y="0" type="line"/>
      <point x="1061" y="150" type="line"/>
      <point x="1222" y="181" type="line"/>
      <point x="1104" y="513" type="line"/>
      <point x="863" y="1132" type="line"/>
      <point x="826" y="1246" type="line"/>
      <point x="816" y="1246" type="line"/>
      <point x="779" y="1132" type="line"/>
      <point x="522" y="503" type="line"/>
      <point x="415" y="180" type="line"/>
      <point x="575" y="150" type="line"/>
      <point x="575" y="0" type="line"/>
    </contour>
    <contour>
      <point x="825" y="575" type="line"/>
      <point x="1165" y="591" type="line"/>
      <point x="1230" y="432" type="line"/>
      <point x="825" y="432" type="line"/>
    </contour>
    <contour>
      <point x="418" y="432" type="line"/>
      <point x="481" y="590" type="line"/>
      <point x="825" y="575" type="line"/>
      <point x="825" y="432" type="line"/>
    </contour>
  </outline>
</glyph>
<glyph name="B" format="2">
  <advance width="1438"/>
  <unicode hex="0042"/>
  <anchor x="711" y="0" name="bottom"/>
  <anchor x="711" y="1500" name="top"/>
  <outline>
    <contour>
      <point x="127" y="0" type="line"/>
      <point x="127" y="150" type="line"/>
      <point x="335" y="186" type="line"/>
      <point x="337" y="784" type="line"/>
      <point x="335" y="1302" type="line"/>
      <point x="127" y="1336" type="line"/>
      <point x="127" y="1500" type="line"/>
      <point x="784" y="1500" type="line" smooth="yes"/>
      <point x="1011" y="1500"/>
      <point x="1229" y="1315"/>
      <point x="1229" y="1172" type="qcurve" smooth="yes"/>
      <point x="1229" y="1037"/>
      <point x="1093" y="854"/>
      <point x="973" y="831" type="qcurve"/>
      <point x="973" y="821" type="line"/>
      <point x="1120" y="794"/>
      <point x="1327" y="604"/>
      <point x="1327" y="433" type="qcurve" smooth="yes"/>
      <point x="1327" y="246"/>
      <point x="1048" y="0"/>
      <point x="801" y="0" type="qcurve" smooth="yes"/>
    </contour>
    <contour>
      <point x="559" y="166" type="line"/>
      <point x="592" y="146" type="line"/>
      <point x="734" y="146" type="line" smooth="yes"/>
      <point x="920" y="146"/>
      <point x="1096" y="289"/>
      <point x="1096" y="444" type="qcurve" smooth="yes"/>
      <point x="1096" y="576"/>
      <point x="943" y="718"/>
      <point x="800" y="718" type="qcurve" smooth="yes"/>
      <point x="568" y="718" type="line"/>
      <point x="559" y="704" type="line"/>
    </contour>
    <contour>
      <point x="558" y="874" type="line"/>
      <point x="567" y="860" type="line"/>
      <point x="723" y="860" type="line" smooth="yes"/>
      <point x="865" y="860"/>
      <point x="1010" y="989"/>
      <point x="1010" y="1117" type="qcurve" smooth="yes"/>
      <point x="1010" y="1234"/>
      <point x="869" y="1341"/>
      <point x="733" y="1341" type="qcurve" smooth="yes"/>
      <point x="590" y="1341" type="line"/>
      <point x="561" y="1323" type="line"/>
    </contour>
  </outline>
</glyph>
<glyph name="C" format="2">
  <advance width="1615"/>
  <unicode hex="0043"/>
  <anchor x="906" y="0" name="bottom"/>
  <anchor x="906" y="1500" name="top"/>
  <outline>
    <contour>
      <point x="125" y="700" type="qcurve" smooth="yes"/>
      <point x="125" y="1044"/>
      <point x="540" y="1520"/>
      <point x="892" y="1520" type="qcurve" smooth="yes"/>
      <point x="1025" y="1520"/>
      <point x="1216" y="1459"/>
      <point x="1269" y="1422" type="qcurve"/>
      <point x="1309" y="1500" type="line"/>
      <point x="1445" y="1500" type="line"/>
      <point x="1445" y="1005" type="line"/>
      <point x="1284" y="1005" type="line"/>
      <point x="1252" y="1152" type="line" smooth="yes"/>
      <point x="1231" y="1248"/>
      <point x="1064" y="1345"/>
      <point x="932" y="1345" type="qcurve" smooth="yes"/>
      <point x="683" y="1345"/>
      <point x="359" y="1035"/>
      <point x="361" y="740" type="qcurve" smooth="yes"/>
      <point x="363" y="464"/>
      <point x="676" y="160"/>
      <point x="934" y="160" type="qcurve" smooth="yes"/>
      <point x="1120" y="160"/>
      <point x="1355" y="275"/>
      <point x="1421" y="367" type="qcurve"/>
      <point x="1535" y="255" type="line"/>
      <point x="1428" y="115"/>
      <point x="1105" y="-30"/>
      <point x="922" y="-30" type="qcurve" smooth="yes"/>
      <point x="552" y="-30"/>
      <point x="125" y="371"/>
    </contour>
  </outline>
</glyph>
<glyph name="G" format="2">
  <advance width="1656"/>
  <unicode hex="0047"/>
  <anchor x="917" y="0" name="bottom"/>
  <anchor x="881" y="1500" name="top"/>
  <outline>
    <contour>
      <point x="80" y="744" type="qcurve" smooth="yes"/>
      <point x="80" y="1071"/>
      <point x="532" y="1520"/>
      <point x="868" y="1520" type="qcurve" smooth="yes"/>
      <point x="1007" y="1520"/>
      <point x="1195" y="1460"/>
      <point x="1242" y="1427" type="qcurve"/>
      <point x="1282" y="1510" type="line"/>
      <point x="1428" y="1510" type="line"/>
      <point x="1428" y="985" type="line"/>
      <point x="1272" y="985" type="line"/>
      <point x="1236" y="1145" type="line" smooth="yes"/>
      <point x="1211" y="1243"/>
      <point x="1027" y="1337"/>
      <point x="889" y="1337" type="qcurve" smooth="yes"/>
      <point x="625" y="1337"/>
      <point x="314" y="1038"/>
      <point x="316" y="763" type="qcurve" smooth="yes"/>
      <point x="318" y="489"/>
      <point x="644" y="133"/>
      <point x="932" y="133" type="qcurve" smooth="yes"/>
      <point x="1043" y="133"/>
      <point x="1241" y="197"/>
      <point x="1313" y="256" type="qcurve"/>
      <point x="1313" y="498" type="line"/>
      <point x="1114" y="533" type="line"/>
      <point x="1114" y="683" type="line"/>
      <point x="1660" y="683" type="line"/>
      <point x="1660" y="533" type="line"/>
      <point x="1529" y="498" type="line"/>
      <point x="1529" y="219" type="line"/>
      <point x="1447" y="123"/>
      <point x="1125" y="-30"/>
      <point x="914" y="-30" type="qcurve" smooth="yes"/>
      <point x="537" y="-30"/>
      <point x="80" y="394"/>
    </contour>
  </outline>
</glyph>
<glyph name="H" format="2">
  <advance width="1918"/>
  <unicode hex="0048"/>
  <anchor x="959" y="0" name="bottom"/>
  <anchor x="959" y="1079" name="center"/>
  <anchor x="959" y="1500" name="top"/>
  <anchor x="45" y="1500" name="tonos"/>
  <outline>
    <contour>
      <point x="127" y="0" type="line"/>
      <point x="127" y="150" type="line"/>
      <point x="335" y="185" type="line"/>
      <point x="337" y="754" type="line"/>
      <point x="335" y="1302" type="line"/>
      <point x="127" y="1336" type="line"/>
      <point x="127" y="1500" type="line"/>
      <point x="767" y="1500" type="line"/>
      <point x="767" y="1336" type="line"/>
      <point x="559" y="1302" type="line"/>
      <point x="557" y="754" type="line"/>
      <point x="559" y="185" type="line"/>
      <point x="767" y="150" type="line"/>
      <point x="767" y="0" type="line"/>
    </contour>
    <contour>
      <point x="469" y="690" type="line"/>
      <point x="469" y="872" type="line"/>
      <point x="959" y="864" type="line"/>
      <point x="1448" y="872" type="line"/>
      <point x="1448" y="690" type="line"/>
      <point x="959" y="690" type="line"/>
    </contour>
    <contour>
      <point x="1151" y="0" type="line"/>
      <point x="1151" y="150" type="line"/>
      <point x="1359" y="185" type="line"/>
      <point x="1361" y="754" type="line"/>
      <point x="1359" y="1302" type="line"/>
      <point x="1151" y="1336" type="line"/>
      <point x="1151" y="1500" type="line"/>
      <point x="1791" y="1500" type="line"/>
      <point x="1791" y="1336" type="line"/>
      <point x="1583" y="1302" type="line"/>
      <point x="1581" y="754" type="line"/>
      <point x="1583" y="185" type="line"/>
      <point x="1791" y="150" type="line"/>
      <point x="1791" y="0" type="line"/>
    </contour>
  </outline>
</glyph>
<glyph name="J" format="2">
  <advance width="885"/>
  <unicode hex="004A"/>
  <anchor x="434" y="-208" name="bottom"/>
  <anchor x="443" y="1500" name="top"/>
  <outline>
    <contour>
      <point x="82" y="-204" type="qcurve"/>
      <point x="82" y="-32" type="line"/>
      <point x="109" y="-33"/>
      <point x="169" y="-31"/>
      <point x="207" y="-26" type="qcurve" smooth="yes"/>
      <point x="281" y="-16"/>
      <point x="349" y="65"/>
      <point x="349" y="159" type="qcurve" smooth="yes"/>
      <point x="347" y="834" type="line"/>
      <point x="345" y="1302" type="line"/>
      <point x="142" y="1336" type="line"/>
      <point x="142" y="1500" type="line"/>
      <point x="758" y="1500" type="line"/>
      <point x="758" y="1334" type="line"/>
      <point x="568" y="1300" type="line"/>
      <point x="566" y="834" type="line"/>
      <point x="578" y="189" type="line" smooth="yes"/>
      <point x="582" y="-29"/>
      <point x="398" y="-200"/>
      <point x="241" y="-207" type="qcurve" smooth="yes"/>
      <point x="176" y="-210"/>
      <point x="104" y="-206"/>
    </contour>
  </outline>
</glyph>
<glyph name="M" format="2">
  <advance width="2288"/>
  <unicode hex="004D"/>
  <anchor x="1113" y="0" name="bottom"/>
  <anchor x="1146" y="1500" name="top"/>
  <outline>
    <contour>
      <point x="82" y="0" type="line"/>
      <point x="82" y="150" type="line"/>
      <point x="290" y="185" type="line"/>
      <point x="292" y="754" type="line"/>
      <point x="290" y="1302" type="line"/>
      <point x="82" y="1336" type="line"/>
      <point x="82" y="1500" type="line"/>
      <point x="632" y="1500" type="line"/>
      <point x="909" y="810" type="line"/>
      <point x="1092" y="370" type="line"/>
      <point x="1134" y="256" type="line"/>
      <point x="1144" y="256" type="line"/>
      <point x="1186" y="370" type="line"/>
      <point x="1366" y="803" type="line"/>
      <point x="1648" y="1500" type="line"/>
      <point x="2206" y="1500" type="line"/>
      <point x="2206" y="1336" type="line"/>
      <point x="1998" y="1302" type="line"/>
      <point x="1996" y="754" type="line"/>
      <point x="1998" y="185" type="line"/>
      <point x="2206" y="150" type="line"/>
      <point x="2206" y="0" type="line"/>
      <point x="1536" y="0" type="line"/>
      <point x="1536" y="150" type="line"/>
      <point x="1774" y="185" type="line"/>
      <point x="1776" y="754" type="line"/>
      <point x="1774" y="1210" type="line"/>
      <point x="1778" y="1329" type="line"/>
      <point x="1768" y="1331" type="line"/>
      <point x="1729" y="1224" type="line"/>
      <point x="1523" y="750" type="line"/>
      <point x="1215" y="-8" type="line"/>
      <point x="1005" y="-8" type="line"/>
      <point x="705" y="741" type="line"/>
      <point x="498" y="1229" type="line"/>
      <point x="458" y="1336" type="line"/>
      <point x="448" y="1334" type="line"/>
      <point x="453" y="1215" type="line"/>
      <point x="451" y="754" type="line"/>
      <point x="453" y="185" type="line"/>
      <point x="671" y="150" type="line"/>
      <point x="671" y="0" type="line"/>
    </contour>
  </outline>
</glyph>
<glyph name="S" format="2">
  <advance width="1250"/>
  <unicode hex="0053"/>
  <anchor x="668" y="0" name="bottom"/>
  <anchor x="602" y="1500" name="top"/>
  <outline>
    <contour>
      <point x="93" y="0" type="line"/>
      <point x="93" y="502" type="line"/>
      <point x="254" y="502" type="line"/>
      <point x="271" y="411" type="line" smooth="yes"/>
      <point x="299" y="265"/>
      <point x="517" y="134"/>
      <point x="658" y="134" type="qcurve" smooth="yes"/>
      <point x="812" y="134"/>
      <point x="959" y="268"/>
      <point x="959" y="376" type="qcurve" smooth="yes"/>
      <point x="959" y="502"/>
      <point x="771" y="628"/>
      <point x="567" y="698" type="qcurve" smooth="yes"/>
      <point x="370" y="765"/>
      <point x="155" y="953"/>
      <point x="155" y="1117" type="qcurve" smooth="yes"/>
      <point x="155" y="1288"/>
      <point x="397" y="1520"/>
      <point x="599" y="1520" type="qcurve" smooth="yes"/>
      <point x="689" y="1520"/>
      <point x="847" y="1465"/>
      <point x="905" y="1421" type="qcurve"/>
      <point x="926" y="1487" type="line"/>
      <point x="1072" y="1487" type="line"/>
      <point x="1072" y="1041" type="line"/>
      <point x="913" y="1041" type="line"/>
      <point x="892" y="1173" type="line" smooth="yes"/>
      <point x="878" y="1259"/>
      <point x="719" y="1356"/>
      <point x="602" y="1356" type="qcurve" smooth="yes"/>
      <point x="491" y="1356"/>
      <point x="363" y="1253"/>
      <point x="363" y="1163" type="qcurve" smooth="yes"/>
      <point x="363" y="1081"/>
      <point x="492" y="966"/>
      <point x="702" y="894" type="qcurve" smooth="yes"/>
      <point x="902" y="828"/>
      <point x="1166" y="618"/>
      <point x="1166" y="430" type="qcurve" smooth="yes"/>
      <point x="1166" y="228"/>
      <point x="900" y="-20"/>
      <point x="678" y="-20" type="qcurve" smooth="yes"/>
      <point x="549" y="-20"/>
      <point x="356" y="48"/>
      <point x="286" y="113" type="qcurve"/>
      <point x="239" y="0" type="line"/>
    </contour>
  </outline>
</glyph>
<glyph name="bracketright" format="2">
  <advance width="760"/>
  <unicode hex="005D"/>
  <outline>
    <contour>
      <point x="109" y="-480" type="line"/>
      <point x="109" y="-316" type="line"/>
      <point x="368" y="-297" type="line"/>
      <point x="380" y="508" type="line"/>
      <point x="368" y="1317" type="line"/>
      <point x="109" y="1336" type="line"/>
      <point x="109" y="1500" type="line"/>
      <point x="601" y="1500" type="line"/>
      <point x="601" y="1337" type="line"/>
      <point x="582" y="1317" type="line"/>
      <point x="570" y="508" type="line"/>
      <point x="582" y="-297" type="line"/>
      <point x="601" y="-317" type="line"/>
      <point x="601" y="-480" type="line"/>
    </contour>
  </outline>
</glyph>
<glyph name="underscore" format="2">
  <advance width="1538"/>
  <unicode hex="005F"/>
  <outline>
    <contour>
      <point x="25" y="-480" type="line"/>
      <point x="25" y="-312" type="line"/>
      <point x="773" y="-306" type="line"/>
      <point x="1513" y="-312" type="line"/>
      <point x="1513" y="-480" type="line"/>
      <point x="773" y="-496" type="line"/>
    </contour>
  </outline>
</glyph>
<glyph name="d" format="2">
  <advance width="1381"/>
  <unicode hex="0064"/>
  <anchor x="691" y="0" name="bottom"/>
  <anchor x="988" y="1202" name="center"/>
  <anchor x="691" y="1534" name="top"/>
  <anchor x="1090" y="1000" name="topright"/>
  <outline>
    <contour>
      <point x="113" y="502" type="qcurve" smooth="yes"/>
      <point x="113" y="758"/>
      <point x="397" y="1071"/>
      <point x="628" y="1071" type="qcurve" smooth="yes"/>
      <point x="712" y="1071"/>
      <point x="875" y="1023"/>
      <point x="927" y="985" type="qcurve"/>
      <point x="919" y="1320" type="line"/>
      <point x="752" y="1350" type="line"/>
      <point x="752" y="1500" type="line"/>
      <point x="1072" y="1534" type="line"/>
      <point x="1103" y="1534" type="line"/>
      <point x="1131" y="1502" type="line"/>
      <point x="1128" y="565" type="line"/>
      <point x="1136" y="171" type="line"/>
      <point x="1286" y="136" type="line"/>
      <point x="1286" y="0" type="line"/>
      <point x="999" y="0" type="line"/>
      <point x="948" y="60" type="line"/>
      <point x="931" y="157" type="line"/>
      <point x="880" y="88"/>
      <point x="710" y="-9"/>
      <point x="580" y="-9" type="qcurve" smooth="yes"/>
      <point x="372" y="-9"/>
      <point x="113" y="267"/>
    </contour>
    <contour>
      <point x="339" y="530" type="qcurve" smooth="yes"/>
      <point x="339" y="351"/>
      <point x="503" y="152"/>
      <point x="649" y="152" type="qcurve" smooth="yes"/>
      <point x="754" y="152"/>
      <point x="890" y="238"/>
      <point x="930" y="297" type="qcurve"/>
      <point x="935" y="550" type="line"/>
      <point x="935" y="812" type="line"/>
      <point x="895" y="865"/>
      <point x="762" y="929"/>
      <point x="669" y="929" type="qcurve" smooth="yes"/>
      <point x="518" y="929"/>
      <point x="339" y="699"/>
    </contour>
  </outline>
</glyph>
<glyph name="e" format="2">
  <advance width="1132"/>
  <unicode hex="0065"/>
  <anchor x="620" y="0" name="bottom"/>
  <anchor x="786" y="0" name="ogonek"/>
  <anchor x="581" y="1051" name="top"/>
  <outline>
    <contour>
      <point x="63" y="526" type="qcurve" smooth="yes"/>
      <point x="63" y="753"/>
      <point x="348" y="1074"/>
      <point x="582" y="1074" type="qcurve" smooth="yes"/>
      <point x="795" y="1074"/>
      <point x="1038" y="832"/>
      <point x="1059" y="616" type="qcurve"/>
      <point x="1059" y="544" type="line"/>
      <point x="203" y="544" type="line"/>
      <point x="203" y="652" type="line"/>
      <point x="852" y="652" type="line"/>
      <point x="836" y="790"/>
      <point x="687" y="939"/>
      <point x="575" y="939" type="qcurve" smooth="yes"/>
      <point x="437" y="939"/>
      <point x="285" y="729"/>
      <point x="286" y="545" type="qcurve" smooth="yes"/>
      <point x="287" y="343"/>
      <point x="482" y="130"/>
      <point x="656" y="130" type="qcurve" smooth="yes"/>
      <point x="757" y="130"/>
      <point x="908" y="172"/>
      <point x="961" y="212" type="qcurve"/>
      <point x="1021" y="135" type="line"/>
      <point x="970" y="69"/>
      <point x="765" y="-22"/>
      <point x="621" y="-22" type="qcurve" smooth="yes"/>
      <point x="352" y="-22"/>
      <point x="63" y="263"/>
    </contour>
  </outline>
</glyph>
<glyph name="r" format="2">
  <advance width="996"/>
  <unicode hex="0072"/>
  <anchor x="495" y="0" name="bottom"/>
  <anchor x="549" y="1051" name="top"/>
  <outline>
    <contour>
      <point x="121" y="0" type="line"/>
      <point x="121" y="136" type="line"/>
      <point x="269" y="171" type="line"/>
      <point x="271" y="548" type="line"/>
      <point x="269" y="836" type="line"/>
      <point x="121" y="866" type="line"/>
      <point x="121" y="1016" type="line"/>
      <point x="421" y="1050" type="line"/>
      <point x="456" y="1023" type="line"/>
      <point x="481" y="910" type="line"/>
      <point x="536" y="962"/>
      <point x="709" y="1050"/>
      <point x="827" y="1050" type="qcurve" smooth="yes"/>
      <point x="935" y="1050" type="line"/>
      <point x="935" y="697" type="line"/>
      <point x="791" y="697" type="line"/>
      <point x="758" y="868" type="line"/>
      <point x="689" y="866"/>
      <point x="541" y="808"/>
      <point x="479" y="734" type="qcurve"/>
      <point x="479" y="527" type="line"/>
      <point x="481" y="171" type="line"/>
      <point x="639" y="136" type="line"/>
      <point x="639" y="0" type="line"/>
    </contour>
  </outline>
</glyph>
<glyph name="v" format="2">
  <advance width="1195"/>
  <unicode hex="0076"/>
  <anchor x="600" y="0" name="bottom"/>
  <anchor x="592" y="1051" name="top"/>
  <outline>
    <contour>
      <point x="35" y="905" type="line"/>
      <point x="35" y="1051" type="line"/>
      <point x="502" y="1051" type="line"/>
      <point x="502" y="905" type="line"/>
      <point x="389" y="868" type="line"/>
      <point x="491" y="562" type="line"/>
      <point x="577" y="301" type="line"/>
      <point x="611" y="187" type="line"/>
      <point x="621" y="187" type="line"/>
      <point x="655" y="301" type="line"/>
      <point x="744" y="565" type="line"/>
      <point x="845" y="875" type="line"/>
      <point x="728" y="905" type="line"/>
      <point x="728" y="1051" type="line"/>
      <point x="1180" y="1051" type="line"/>
      <point x="1180" y="905" type="line"/>
      <point x="1010" y="870" type="line"/>
      <point x="884" y="524" type="line"/>
      <point x="698" y="-8" type="line"/>
      <point x="497" y="-8" type="line"/>
      <point x="311" y="508" type="line"/>
      <point x="175" y="870" type="line"/>
    </contour>
  </outline>
</glyph>
<glyph name="w" format="2">
  <advance width="1794"/>
  <unicode hex="0077"/>
  <anchor x="890" y="0" name="bottom"/>
  <anchor x="890" y="1051" name="top"/>
  <outline>
    <contour>
      <point x="489" y="-8" type="line"/>
      <point x="310" y="501" type="line"/>
      <point x="175" y="870" type="line"/>
      <point x="35" y="905" type="line"/>
      <point x="35" y="1051" type="line"/>
      <point x="502" y="1051" type="line"/>
      <point x="502" y="905" type="line"/>
      <point x="388" y="868" type="line"/>
      <point x="486" y="548" type="line"/>
      <point x="574" y="294" type="line"/>
      <point x="609" y="180" type="line"/>
      <point x="619" y="180" type="line"/>
      <point x="653" y="294" type="line"/>
      <point x="722" y="498" type="line"/>
      <point x="811" y="783" type="line"/>
      <point x="779" y="872" type="line"/>
      <point x="653" y="905" type="line"/>
      <point x="653" y="1051" type="line"/>
      <point x="1113" y="1051" type="line"/>
      <point x="1113" y="905" type="line"/>
      <point x="1000" y="868" type="line"/>
      <point x="1116" y="499" type="line"/>
      <point x="1187" y="294" type="line"/>
      <point x="1221" y="180" type="line"/>
      <point x="1231" y="180" type="line"/>
      <point x="1265" y="294" type="line"/>
      <point x="1355" y="558" type="line"/>
      <point x="1455" y="875" type="line"/>
      <point x="1337" y="905" type="line"/>
      <point x="1337" y="1051" type="line"/>
      <point x="1779" y="1051" type="line"/>
      <point x="1779" y="905" type="line"/>
      <point x="1610" y="870" type="line"/>
      <point x="1484" y="520" type="line"/>
      <point x="1305" y="-8" type="line"/>
      <point x="1107" y="-8" type="line"/>
      <point x="937" y="477" type="line"/>
      <point x="900" y="592" type="line"/>
      <point x="890" y="592" type="line"/>
      <point x="854" y="477" type="line"/>
      <point x="687" y="-8" type="line"/>
    </contour>
  </outline>
</glyph>
<glyph name="x" format="2">
  <advance width="1134"/>
  <unicode hex="0078"/>
  <anchor x="543" y="0" name="bottom"/>
  <anchor x="543" y="1051" name="top"/>
  <outline>
    <contour>
      <point x="16" y="0" type="line"/>
      <point x="16" y="136" type="line"/>
      <point x="216" y="171" type="line"/>
      <point x="444" y="506" type="line"/>
      <point x="181" y="870" type="line"/>
      <point x="20" y="905" type="line"/>
      <point x="20" y="1051" type="line"/>
      <point x="490" y="1051" type="line"/>
      <point x="490" y="906" type="line"/>
      <point x="401" y="880" type="line"/>
      <point x="505" y="734" type="line"/>
      <point x="574" y="635" type="line"/>
      <point x="584" y="635" type="line"/>
      <point x="646" y="734" type="line"/>
      <point x="741" y="882" type="line"/>
      <point x="638" y="905" type="line"/>
      <point x="638" y="1051" type="line"/>
      <point x="1097" y="1051" type="line"/>
      <point x="1097" y="905" type="line"/>
      <point x="907" y="870" type="line"/>
      <point x="685" y="549" type="line"/>
      <point x="962" y="171" type="line"/>
      <point x="1134" y="136" type="line"/>
      <point x="1134" y="0" type="line"/>
      <point x="654" y="0" type="line"/>
      <point x="654" y="136" type="line"/>
      <point x="743" y="160" type="line"/>
      <point x="624" y="323" type="line"/>
      <point x="555" y="420" type="line"/>
      <point x="545" y="420" type="line"/>
      <point x="486" y="323" type="line"/>
      <point x="381" y="158" type="line"/>
      <point x="475" y="136" type="line"/>
      <point x="475" y="0" type="line"/>
    </contour>
  </outline>
</glyph>
<glyph name="y" format="2">
  <advance width="1195"/>
  <unicode hex="0079"/>
  <anchor x="870" y="0" name="bottom"/>
  <anchor x="612" y="1051" name="top"/>
  <outline>
    <contour>
      <point x="35" y="905" type="line"/>
      <point x="35" y="1051" type="line"/>
      <point x="502" y="1051" type="line"/>
      <point x="502" y="905" type="line"/>
      <point x="389" y="868" type="line"/>
      <point x="490" y="568" type="line"/>
      <point x="577" y="308" type="line"/>
      <point x="611" y="194" type="line"/>
      <point x="621" y="194" type="line"/>
      <point x="656" y="308" type="line"/>
      <point x="743" y="571" type="line"/>
      <point x="845" y="875" type="line"/>
      <point x="728" y="905" type="line"/>
      <point x="728" y="1051" type="line"/>
      <point x="1180" y="1051" type="line"/>
      <point x="1180" y="905" type="line"/>
      <point x="1010" y="870" type="line"/>
      <point x="884" y="530" type="line"/>
      <point x="594" y="-287" type="line" smooth="yes"/>
      <point x="554" y="-398"/>
      <point x="395" y="-492"/>
      <point x="298" y="-492" type="qcurve"/>
      <point x="127" y="-460" type="line"/>
      <point x="127" y="-337" type="line"/>
      <point x="228" y="-337" type="line" smooth="yes"/>
      <point x="285" y="-337"/>
      <point x="440" y="-280"/>
      <point x="478" y="-175" type="qcurve" smooth="yes"/>
      <point x="541" y="0" type="line"/>
      <point x="498" y="0" type="line"/>
      <point x="310" y="514" type="line"/>
      <point x="175" y="870" type="line"/>
    </contour>
  </outline>
</glyph>
<glyph name="z" format="2">
  <advance width="1019"/>
  <unicode hex="007A"/>
  <anchor x="509" y="0" name="bottom"/>
  <anchor x="509" y="1051" name="top"/>
  <outline>
    <contour>
      <point x="77" y="0" type="line"/>
      <point x="77" y="90" type="line"/>
      <point x="653" y="904" type="line"/>
      <point x="276" y="904" type="line"/>
      <point x="249" y="712" type="line"/>
      <point x="105" y="712" type="line"/>
      <point x="105" y="1051" type="line"/>
      <point x="924" y="1051" type="line"/>
      <point x="924" y="962" type="line"/>
      <point x="335" y="146" type="line"/>
      <point x="769" y="146" type="line"/>
      <point x="796" y="338" type="line"/>
      <point x="940" y="338" type="line"/>
      <point x="940" y="0" type="line"/>
    </contour>
  </outline>
</glyph>
<glyph name="bar" format="2">
  <advance width="694"/>
  <unicode hex="007C"/>
  <outline>
    <contour>
      <point x="261" y="-540" type="line"/>
      <point x="264" y="-58" type="line"/>
      <point x="270" y="250" type="line"/>
      <point x="268" y="830" type="line"/>
      <point x="261" y="1138" type="line"/>
      <point x="259" y="1480" type="line"/>
      <point x="439" y="1550" type="line"/>
      <point x="434" y="1138" type="line"/>
      <point x="424" y="830" type="line"/>
      <point x="426" y="250" type="line"/>
      <point x="435" y="-58" type="line"/>
      <point x="437" y="-470" type="line"/>
    </contour>
  </outline>
</glyph>
<glyph name="braceright" format="2">
  <advance width="724"/>
  <unicode hex="007D"/>
  <outline>
    <contour>
      <point x="15" y="-484" type="qcurve"/>
      <point x="15" y="-328" type="line"/>
      <point x="67" y="-330"/>
      <point x="112" y="-330"/>
      <point x="160" y="-330" type="qcurve" smooth="yes"/>
      <point x="243" y="-330"/>
      <point x="338" y="-240"/>
      <point x="338" y="-147" type="qcurve" smooth="yes"/>
      <point x="338" y="-51"/>
      <point x="241" y="232"/>
      <point x="241" y="318" type="qcurve" smooth="yes"/>
      <point x="241" y="384"/>
      <point x="294" y="516"/>
      <point x="357" y="550" type="qcurve"/>
      <point x="306" y="571"/>
      <point x="241" y="697"/>
      <point x="241" y="786" type="qcurve" smooth="yes"/>
      <point x="241" y="871"/>
      <point x="347" y="1069"/>
      <point x="347" y="1165" type="qcurve" smooth="yes"/>
      <point x="347" y="1257"/>
      <point x="254" y="1345"/>
      <point x="173" y="1345" type="qcurve" smooth="yes"/>
      <point x="123" y="1345"/>
      <point x="62" y="1345"/>
      <point x="10" y="1343" type="qcurve"/>
      <point x="10" y="1500" type="line"/>
      <point x="47" y="1503"/>
      <point x="128" y="1510"/>
      <point x="211" y="1510" type="qcurve" smooth="yes"/>
      <point x="373" y="1510"/>
      <point x="558" y="1343"/>
      <point x="558" y="1187" type="qcurve" smooth="yes"/>
      <point x="558" y="1071"/>
      <point x="426" y="843"/>
      <point x="426" y="727" type="qcurve" smooth="yes"/>
      <point x="426" y="672"/>
      <point x="478" y="616"/>
      <point x="534" y="612" type="qcurve" smooth="yes"/>
      <point x="665" y="603" type="line"/>
      <point x="665" y="471" type="line"/>
      <point x="427" y="471" type="line"/>
      <point x="427" y="364" type="line"/>
      <point x="427" y="246"/>
      <point x="552" y="-50"/>
      <point x="552" y="-168" type="qcurve" smooth="yes"/>
      <point x="552" y="-327"/>
      <point x="362" y="-495"/>
      <point x="200" y="-495" type="qcurve" smooth="yes"/>
      <point x="116" y="-495"/>
      <point x="52" y="-487"/>
    </contour>
  </outline>
</glyph>
<glyph name="yen" format="2">
  <advance width="1325"/>
  <unicode hex="00A5"/>
  <outline>
    <contour>
      <point x="176" y="619" type="line"/>
      <point x="146" y="768" type="line"/>
      <point x="1165" y="768" type="line"/>
      <point x="1135" y="619" type="line"/>
    </contour>
    <contour>
      <point x="547" y="667" type="line"/>
      <point x="369" y="976" type="line"/>
      <point x="142" y="1360" type="line"/>
      <point x="-10" y="1386" type="line"/>
      <point x="-10" y="1500" type="line"/>
      <point x="541" y="1500" type="line"/>
      <point x="541" y="1386" type="line"/>
      <point x="394" y="1351" type="line"/>
      <point x="542" y="1074" type="line"/>
      <point x="687" y="838" type="line"/>
      <point x="829" y="1095" type="line"/>
      <point x="967" y="1358" type="line"/>
      <point x="790" y="1386" type="line"/>
      <point x="790" y="1500" type="line"/>
      <point x="1335" y="1500" type="line"/>
      <point x="1335" y="1386" type="line"/>
      <point x="1177" y="1359" type="line"/>
      <point x="967" y="1003" type="line"/>
      <point x="768" y="646" type="line"/>
      <point x="770" y="135" type="line"/>
      <point x="988" y="100" type="line"/>
      <point x="988" y="0" type="line"/>
      <point x="324" y="0" type="line"/>
      <point x="324" y="100" type="line"/>
      <point x="545" y="135" type="line"/>
    </contour>
    <contour>
      <point x="236" y="319" type="line"/>
      <point x="206" y="468" type="line"/>
      <point x="1105" y="468" type="line"/>
      <point x="1075" y="319" type="line"/>
    </contour>
  </outline>
</glyph>
<glyph name="brokenbar" format="2">
  <advance width="694"/>
  <unicode hex="00A6"/>
  <outline>
    <contour>
      <point x="267" y="688" type="line"/>
      <point x="276" y="900" type="line"/>
      <point x="264" y="1208" type="line"/>
      <point x="252" y="1480" type="line"/>
      <point x="442" y="1550" type="line"/>
      <point x="430" y="1208" type="line"/>
      <point x="416" y="900" type="line"/>
      <point x="418" y="738" type="line"/>
    </contour>
    <contour>
      <point x="252" y="-540" type="line"/>
      <point x="264" y="-128" type="line"/>
      <point x="278" y="180" type="line"/>
      <point x="276" y="348" type="line"/>
      <point x="427" y="408" type="line"/>
      <point x="418" y="180" type="line"/>
      <point x="430" y="-128" type="line"/>
      <point x="442" y="-451" type="line"/>
    </contour>
  </outline>
</glyph>
<glyph name="section" format="2">
  <advance width="1175"/>
  <unicode hex="00A7"/>
  <outline>
    <contour>
      <point x="1075" y="140" type="qcurve" smooth="yes"/>
      <point x="1075" y="-35"/>
      <point x="842" y="-253"/>
      <point x="645" y="-253" type="qcurve" smooth="yes"/>
      <point x="523" y="-253"/>
      <point x="345" y="-187"/>
      <point x="290" y="-135" type="qcurve"/>
      <point x="249" y="-235" type="line"/>
      <point x="111" y="-235" type="line"/>
      <point x="111" y="222" type="line"/>
      <point x="259" y="222" type="line"/>
      <point x="277" y="129" type="line" smooth="yes"/>
      <point x="302" y="-1"/>
      <point x="488" y="-108"/>
      <point x="616" y="-108" type="qcurve" smooth="yes"/>
      <point x="753" y="-108"/>
      <point x="875" y="5"/>
      <point x="875" y="101" type="qcurve" smooth="yes"/>
      <point x="875" y="216"/>
      <point x="704" y="323"/>
      <point x="522" y="388" type="qcurve" smooth="yes"/>
      <point x="344" y="452"/>
      <point x="163" y="623"/>
      <point x="163" y="761" type="qcurve" smooth="yes"/>
      <point x="163" y="849"/>
      <point x="242" y="992"/>
      <point x="320" y="1042" type="qcurve"/>
      <point x="264" y="1079"/>
      <point x="216" y="1174"/>
      <point x="216" y="1237" type="qcurve" smooth="yes"/>
      <point x="216" y="1349"/>
      <point x="404" y="1512"/>
      <point x="576" y="1512" type="qcurve" smooth="yes"/>
      <point x="658" y="1512"/>
      <point x="780" y="1473"/>
      <point x="823" y="1449" type="qcurve"/>
      <point x="837" y="1480" type="line"/>
      <point x="970" y="1480" type="line"/>
      <point x="970" y="1164" type="line"/>
      <point x="822" y="1164" type="line"/>
      <point x="801" y="1277" type="line" smooth="yes"/>
      <point x="793" y="1321"/>
      <point x="680" y="1381"/>
      <point x="595" y="1381" type="qcurve" smooth="yes"/>
      <point x="499" y="1381"/>
      <point x="414" y="1316"/>
      <point x="414" y="1262" type="qcurve" smooth="yes"/>
      <point x="414" y="1207"/>
      <point x="508" y="1146"/>
      <point x="676" y="1103" type="qcurve" smooth="yes"/>
      <point x="843" y="1060"/>
      <point x="1044" y="913"/>
      <point x="1044" y="772" type="qcurve" smooth="yes"/>
      <point x="1044" y="670"/>
      <point x="912" y="520"/>
      <point x="798" y="489" type="qcurve"/>
      <point x="923" y="435"/>
      <point x="1075" y="271"/>
    </contour>
    <contour>
      <point x="351" y="813" type="qcurve" smooth="yes"/>
      <point x="351" y="736"/>
      <point x="463" y="621"/>
      <point x="629" y="559" type="qcurve"/>
      <point x="726" y="561"/>
      <point x="853" y="662"/>
      <point x="853" y="740" type="qcurve" smooth="yes"/>
      <point x="853" y="823"/>
      <point x="710" y="896"/>
      <point x="548" y="942" type="qcurve" smooth="yes"/>
      <point x="522" y="949"/>
      <point x="477" y="963"/>
      <point x="456" y="971" type="qcurve"/>
      <point x="405" y="949"/>
      <point x="351" y="867"/>
    </contour>
  </outline>
</glyph>
<glyph name="micro" format="2">
  <advance width="1282"/>
  <unicode hex="00B5"/>
  <outline>
    <contour>
      <point x="-15" y="-317" type="line"/>
      <point x="21" y="-295" type="line"/>
      <point x="60" y="-137"/>
      <point x="121" y="112"/>
      <point x="133" y="181" type="qcurve" smooth="yes"/>
      <point x="245" y="822" type="line"/>
      <point x="103" y="819" type="line"/>
      <point x="105" y="915" type="line"/>
      <point x="376" y="1002" type="line"/>
      <point x="421" y="1002" type="line"/>
      <point x="463" y="923" type="line"/>
      <point x="353" y="351" type="line" smooth="yes"/>
      <point x="337" y="268"/>
      <point x="390" y="206"/>
      <point x="467" y="206" type="qcurve" smooth="yes"/>
      <point x="560" y="206"/>
      <point x="770" y="324"/>
      <point x="831" y="391" type="qcurve"/>
      <point x="938" y="976" type="line"/>
      <point x="929" y="1000" type="line"/>
      <point x="1100" y="1021" type="line"/>
      <point x="1142" y="942" type="line"/>
      <point x="1025" y="362" type="line"/>
      <point x="999" y="134" type="line"/>
      <point x="1135" y="134" type="line"/>
      <point x="1137" y="47" type="line"/>
      <point x="841" y="-15" type="line"/>
      <point x="799" y="76" type="line"/>
      <point x="807" y="215" type="line"/>
      <point x="730" y="136"/>
      <point x="499" y="23"/>
      <point x="400" y="23" type="qcurve" smooth="yes"/>
      <point x="367" y="23"/>
      <point x="317" y="36"/>
      <point x="292" y="48" type="qcurve"/>
      <point x="235" y="-274" type="line"/>
      <point x="381" y="-282" type="line"/>
      <point x="373" y="-371" type="line"/>
      <point x="8" y="-399" type="line"/>
    </contour>
  </outline>
</glyph>
<glyph name="periodcentered" format="2">
  <advance width="610"/>
  <unicode hex="00B7"/>
  <outline>
    <contour>
      <point x="148" y="674" type="qcurve" smooth="yes"/>
      <point x="148" y="737"/>
      <point x="236" y="831"/>
      <point x="305" y="831" type="qcurve" smooth="yes"/>
      <point x="374" y="831"/>
      <point x="462" y="737"/>
      <point x="462" y="674" type="qcurve" smooth="yes"/>
      <point x="462" y="612"/>
      <point x="374" y="518"/>
      <point x="305" y="518" type="qcurve" smooth="yes"/>
      <point x="236" y="518"/>
      <point x="148" y="612"/>
    </contour>
  </outline>
</glyph>
<glyph name="ordmasculine" format="2">
  <advance width="1114"/>
  <unicode hex="00BA"/>
  <outline>
    <contour>
      <point x="72" y="1094" type="qcurve" smooth="yes"/>
      <point x="72" y="1280"/>
      <point x="333" y="1542"/>
      <point x="555" y="1542" type="qcurve" smooth="yes"/>
      <point x="778" y="1542"/>
      <point x="1042" y="1297"/>
      <point x="1042" y="1099" type="qcurve" smooth="yes"/>
      <point x="1042" y="914"/>
      <point x="783" y="646"/>
      <point x="560" y="646" type="qcurve" smooth="yes"/>
      <point x="337" y="646"/>
      <point x="72" y="894"/>
    </contour>
    <contour>
      <point x="280" y="1110" type="qcurve" smooth="yes"/>
      <point x="280" y="965"/>
      <point x="432" y="760"/>
      <point x="553" y="760" type="qcurve" smooth="yes"/>
      <point x="683" y="760"/>
      <point x="828" y="946"/>
      <point x="828" y="1097" type="qcurve" smooth="yes"/>
      <point x="828" y="1238"/>
      <point x="676" y="1424"/>
      <point x="555" y="1424" type="qcurve" smooth="yes"/>
      <point x="423" y="1424"/>
      <point x="279" y="1256"/>
    </contour>
  </outline>
</glyph>
<glyph name="guillemotright" format="2">
  <advance width="1304"/>
  <unicode hex="00BB"/>
  <outline>
    <contour>
      <point x="1272" y="581" type="line"/>
      <point x="1190" y="533"/>
      <point x="701" y="225"/>
      <point x="634" y="184" type="qcurve" smooth="yes"/>
      <point x="554" y="131"/>
      <point x="464" y="257"/>
      <point x="548" y="307" type="qcurve" smooth="yes"/>
      <point x="638" y="367"/>
      <point x="960" y="572"/>
      <point x="992" y="594" type="qcurve"/>
      <point x="960" y="619"/>
      <point x="636" y="833"/>
      <point x="544" y="896" type="qcurve" smooth="yes"/>
      <point x="462" y="942"/>
      <point x="535" y="1075"/>
      <point x="618" y="1028" type="qcurve" smooth="yes"/>
      <point x="684" y="992"/>
      <point x="1198" y="667"/>
      <point x="1272" y="621" type="qcurve"/>
    </contour>
    <contour>
      <point x="802" y="581" type="line"/>
      <point x="720" y="533"/>
      <point x="231" y="225"/>
      <point x="164" y="184" type="qcurve" smooth="yes"/>
      <point x="84" y="131"/>
      <point x="-6" y="257"/>
      <point x="78" y="307" type="qcurve" smooth="yes"/>
      <point x="168" y="367"/>
      <point x="490" y="572"/>
      <point x="522" y="594" type="qcurve"/>
      <point x="490" y="619"/>
      <point x="166" y="833"/>
      <point x="74" y="896" type="qcurve" smooth="yes"/>
      <point x="-8" y="942"/>
      <point x="65" y="1075"/>
      <point x="148" y="1028" type="qcurve" smooth="yes"/>
      <point x="214" y="992"/>
      <point x="728" y="667"/>
      <point x="802" y="621" type="qcurve"/>
    </contour>
  </outline>
</glyph>
<glyph name="questiondown" format="2">
  <advance width="1024"/>
  <unicode hex="00BF"/>
  <outline>
    <contour>
      <point x="748" y="1205" type="qcurve" smooth="yes"/>
      <point x="748" y="1147"/>
      <point x="667" y="1061"/>
      <point x="604" y="1061" type="qcurve" smooth="yes"/>
      <point x="541" y="1061"/>
      <point x="460" y="1147"/>
      <point x="460" y="1205" type="qcurve" smooth="yes"/>
      <point x="460" y="1262"/>
      <point x="541" y="1348"/>
      <point x="604" y="1348" type="qcurve" smooth="yes"/>
      <point x="667" y="1348"/>
      <point x="748" y="1262"/>
    </contour>
    <contour>
      <point x="946" y="92" type="qcurve" smooth="yes"/>
      <point x="946" y="-51"/>
      <point x="713" y="-214"/>
      <point x="509" y="-214" type="qcurve" smooth="yes"/>
      <point x="312" y="-214"/>
      <point x="65" y="-22"/>
      <point x="65" y="163" type="qcurve" smooth="yes"/>
      <point x="65" y="356"/>
      <point x="300" y="555"/>
      <point x="385" y="589" type="qcurve" smooth="yes"/>
      <point x="461" y="619"/>
      <point x="567" y="721"/>
      <point x="567" y="804" type="qcurve" smooth="yes"/>
      <point x="567" y="891" type="line"/>
      <point x="667" y="891" type="line"/>
      <point x="682" y="807" type="line" smooth="yes"/>
      <point x="695" y="732"/>
      <point x="596" y="570"/>
      <point x="484" y="506" type="qcurve" smooth="yes"/>
      <point x="394" y="454"/>
      <point x="253" y="326"/>
      <point x="253" y="185" type="qcurve" smooth="yes"/>
      <point x="253" y="50"/>
      <point x="412" y="-103"/>
      <point x="542" y="-103" type="qcurve" smooth="yes"/>
      <point x="664" y="-103"/>
      <point x="802" y="-16"/>
      <point x="802" y="37" type="qcurve" smooth="yes"/>
      <point x="802" y="66"/>
      <point x="681" y="122"/>
      <point x="679" y="171" type="qcurve" smooth="yes"/>
      <point x="676" y="211"/>
      <point x="737" y="275"/>
      <point x="797" y="275" type="qcurve" smooth="yes"/>
      <point x="863" y="275"/>
      <point x="946" y="182"/>
    </contour>
  </outline>
</glyph>
<glyph name="divide" format="2">
  <advance width="1114"/>
  <unicode hex="00F7"/>
  <outline>
    <contour>
      <point x="125" y="556" type="line"/>
      <point x="125" y="708" type="line"/>
      <point x="989" y="708" type="line"/>
      <point x="989" y="556" type="line"/>
    </contour>
    <contour>
      <point x="427" y="307" type="qcurve" smooth="yes"/>
      <point x="427" y="359"/>
      <point x="500" y="437"/>
      <point x="557" y="437" type="qcurve" smooth="yes"/>
      <point x="614" y="437"/>
      <point x="687" y="359"/>
      <point x="687" y="307" type="qcurve" smooth="yes"/>
      <point x="687" y="256"/>
      <point x="614" y="178"/>
      <point x="557" y="178" type="qcurve" smooth="yes"/>
      <point x="500" y="178"/>
      <point x="427" y="256"/>
    </contour>
    <contour>
      <point x="427" y="958" type="qcurve" smooth="yes"/>
      <point x="427" y="1010"/>
      <point x="500" y="1088"/>
      <point x="557" y="1088" type="qcurve" smooth="yes"/>
      <point x="614" y="1088"/>
      <point x="687" y="1010"/>
      <point x="687" y="958" type="qcurve" smooth="yes"/>
      <point x="687" y="907"/>
      <point x="614" y="829"/>
      <point x="557" y="829" type="qcurve" smooth="yes"/>
      <point x="500" y="829"/>
      <point x="427" y="907"/>
    </contour>
  </outline>
</glyph>
<glyph name="thorn" format="2">
  <advance width="1240"/>
  <unicode hex="00FE"/>
  <outline>
    <contour>
      <point x="19" y="-480" type="line"/>
      <point x="19" y="-344" type="line"/>
      <point x="162" y="-309" type="line"/>
      <point x="164" y="427" type="line"/>
      <point x="163" y="1320" type="line"/>
      <point x="-3" y="1350" type="line"/>
      <point x="-3" y="1500" type="line"/>
      <point x="315" y="1534" type="line"/>
      <point x="347" y="1534" type="line"/>
      <point x="375" y="1502" type="line"/>
      <point x="374" y="905" type="line"/>
      <point x="427" y="978"/>
      <point x="605" y="1071"/>
      <point x="729" y="1071" type="qcurve" smooth="yes"/>
      <point x="922" y="1071"/>
      <point x="1172" y="792"/>
      <point x="1172" y="557" type="qcurve" smooth="yes"/>
      <point x="1172" y="301"/>
      <point x="912" y="-12"/>
      <point x="694" y="-12" type="qcurve" smooth="yes"/>
      <point x="586" y="-12"/>
      <point x="419" y="51"/>
      <point x="372" y="94" type="qcurve"/>
      <point x="374" y="-309" type="line"/>
      <point x="526" y="-344" type="line"/>
      <point x="526" y="-480" type="line"/>
    </contour>
    <contour>
      <point x="372" y="273" type="line"/>
      <point x="406" y="214"/>
      <point x="554" y="128"/>
      <point x="654" y="128" type="qcurve" smooth="yes"/>
      <point x="790" y="128"/>
      <point x="946" y="345"/>
      <point x="946" y="533" type="qcurve" smooth="yes"/>
      <point x="946" y="712"/>
      <point x="791" y="913"/>
      <point x="659" y="913" type="qcurve" smooth="yes"/>
      <point x="560" y="913"/>
      <point x="416" y="830"/>
      <point x="373" y="766" type="qcurve"/>
      <point x="370" y="456" type="line"/>
    </contour>
  </outline>
</glyph>
<glyph name="kgreenlandic" format="2">
  <advance width="1242"/>
  <unicode hex="0138"/>
  <outline>
    <contour>
      <point x="120" y="0" type="line"/>
      <point x="120" y="80" type="line"/>
      <point x="259" y="115" type="line"/>
      <point x="261" y="527" type="line"/>
      <point x="259" y="885" type="line"/>
      <point x="120" y="920" type="line"/>
      <point x="120" y="1000" type="line"/>
      <point x="567" y="1000" type="line"/>
      <point x="567" y="920" type="line"/>
      <point x="429" y="885" type="line"/>
      <point x="427" y="507" type="line"/>
      <point x="429" y="115" type="line"/>
      <point x="567" y="80" type="line"/>
      <point x="567" y="0" type="line"/>
    </contour>
    <contour>
      <point x="533" y="472" type="line"/>
      <point x="533" y="595" type="line"/>
      <point x="839" y="880" type="line"/>
      <point x="712" y="920" type="line"/>
      <point x="712" y="1000" type="line"/>
      <point x="1118" y="1000" type="line"/>
      <point x="1118" y="920" type="line"/>
      <point x="980" y="875" type="line"/>
    </contour>
    <contour>
      <point x="513" y="556" type="line"/>
      <point x="661" y="623" type="line"/>
      <point x="1055" y="115" type="line"/>
      <point x="1173" y="80" type="line"/>
      <point x="1173" y="0" type="line"/>
      <point x="804" y="0" type="line"/>
      <point x="792" y="79" type="line"/>
      <point x="856" y="111" type="line"/>
    </contour>
  </outline>
</glyph>
<glyph name="oe" format="2">
  <advance width="2016"/>
  <unicode hex="0153"/>
  <outline>
    <contour>
      <point x="64" y="525" type="qcurve" smooth="yes"/>
      <point x="64" y="753"/>
      <point x="370" y="1072"/>
      <point x="619" y="1072" type="qcurve" smooth="yes"/>
      <point x="798" y="1072"/>
      <point x="1032" y="930"/>
      <point x="1074" y="850" type="qcurve"/>
      <point x="1087" y="850" type="line"/>
      <point x="1121" y="931"/>
      <point x="1318" y="1072"/>
      <point x="1475" y="1072" type="qcurve" smooth="yes"/>
      <point x="1683" y="1072"/>
      <point x="1922" y="832"/>
      <point x="1943" y="617" type="qcurve"/>
      <point x="1943" y="544" type="line"/>
      <point x="1127" y="544" type="line"/>
      <point x="1127" y="652" type="line"/>
      <point x="1737" y="652" type="line"/>
      <point x="1719" y="792"/>
      <point x="1571" y="938"/>
      <point x="1459" y="938" type="qcurve" smooth="yes"/>
      <point x="1321" y="938"/>
      <point x="1170" y="728"/>
      <point x="1170" y="544" type="qcurve" smooth="yes"/>
      <point x="1171" y="344"/>
      <point x="1370" y="130"/>
      <point x="1545" y="130" type="qcurve" smooth="yes"/>
      <point x="1648" y="130"/>
      <point x="1792" y="174"/>
      <point x="1845" y="216" type="qcurve"/>
      <point x="1904" y="138" type="line"/>
      <point x="1854" y="70"/>
      <point x="1653" y="-22"/>
      <point x="1511" y="-22" type="qcurve" smooth="yes"/>
      <point x="1353" y="-22"/>
      <point x="1105" y="113"/>
      <point x="1057" y="214" type="qcurve"/>
      <point x="1053" y="214" type="line"/>
      <point x="1025" y="125"/>
      <point x="791" y="-22"/>
      <point x="625" y="-22" type="qcurve" smooth="yes"/>
      <point x="376" y="-22"/>
      <point x="64" y="281"/>
    </contour>
    <contour>
      <point x="287" y="547" type="qcurve" smooth="yes"/>
      <point x="288" y="370"/>
      <point x="472" y="125"/>
      <point x="623" y="125" type="qcurve" smooth="yes"/>
      <point x="785" y="125"/>
      <point x="961" y="349"/>
      <point x="961" y="533" type="qcurve" smooth="yes"/>
      <point x="961" y="703"/>
      <point x="777" y="924"/>
      <point x="625" y="924" type="qcurve" smooth="yes"/>
      <point x="461" y="924"/>
      <point x="286" y="723"/>
    </contour>
  </outline>
</glyph>
<glyph name="doubleprimemod" format="2">
  <advance width="878"/>
  <unicode hex="02BA"/>
  <outline>
    <contour>
      <point x="269" y="1502" type="line"/>
      <point x="458" y="1502" type="line"/>
      <point x="340" y="1004" type="line"/>
      <point x="218" y="1009" type="line"/>
    </contour>
    <contour>
      <point x="569" y="1502" type="line"/>
      <point x="758" y="1502" type="line"/>
      <point x="640" y="1004" type="line"/>
      <point x="518" y="1009" type="line"/>
    </contour>
  </outline>
</glyph>
<glyph name="acutecomb" format="2">
  <unicode hex="0301"/>
  <anchor x="0" y="1000" name="_top"/>
  <anchor x="0" y="1524" name="top"/>
  <outline>
    <contour>
      <point x="245" y="1442" type="qcurve" smooth="yes"/>
      <point x="245" y="1392"/>
      <point x="198" y="1345"/>
      <point x="153" y="1317" type="qcurve" smooth="yes"/>
      <point x="-112" y="1144" type="line"/>
      <point x="-198" y="1232" type="line"/>
      <point x="-23" y="1418" type="line" smooth="yes"/>
      <point x="14" y="1458"/>
      <point x="101" y="1527"/>
      <point x="142" y="1527" type="qcurve" smooth="yes"/>
      <point x="181" y="1527"/>
      <point x="245" y="1479"/>
    </contour>
  </outline>
</glyph>
<glyph name="circumflexcomb" format="2">
  <advance width="551"/>
  <unicode hex="0302"/>
  <anchor x="275" y="1000" name="_top"/>
  <anchor x="275" y="1539" name="top"/>
  <outline>
    <contour>
      <point x="275" y="1539" type="qcurve" smooth="yes"/>
      <point x="309" y="1539"/>
      <point x="354" y="1508"/>
      <point x="385" y="1466" type="qcurve" smooth="yes"/>
      <point x="588" y="1223" type="line"/>
      <point x="510" y="1150" type="line"/>
      <point x="275" y="1365" type="line"/>
      <point x="40" y="1150" type="line"/>
      <point x="-38" y="1223" type="line"/>
      <point x="165" y="1466" type="line" smooth="yes"/>
      <point x="206" y="1515"/>
      <point x="241" y="1539"/>
    </contour>
  </outline>
</glyph>
<glyph name="brevecomb" format="2">
  <advance width="551"/>
  <unicode hex="0306"/>
  <anchor x="275" y="1000" name="_top"/>
  <anchor x="275" y="1464" name="top"/>
  <outline>
    <contour>
      <point x="551" y="1463" type="qcurve"/>
      <point x="629" y="1410" type="line"/>
      <point x="616" y="1317"/>
      <point x="405" y="1143"/>
      <point x="276" y="1143" type="qcurve" smooth="yes"/>
      <point x="147" y="1143"/>
      <point x="-57" y="1297"/>
      <point x="-79" y="1407" type="qcurve"/>
      <point x="3" y="1464" type="line"/>
      <point x="35" y="1407"/>
      <point x="180" y="1301"/>
      <point x="277" y="1299" type="qcurve" smooth="yes"/>
      <point x="377" y="1301"/>
      <point x="524" y="1409"/>
    </contour>
  </outline>
</glyph>
<glyph name="hungarumlautcomb" format="2">
  <advance width="551"/>
  <unicode hex="030B"/>
  <anchor x="307" y="1000" name="_top"/>
  <anchor x="307" y="1534" name="top"/>
  <outline>
    <contour>
      <point x="311" y="1474" type="qcurve" smooth="yes"/>
      <point x="311" y="1427"/>
      <point x="268" y="1390"/>
      <point x="230" y="1357" type="qcurve" smooth="yes"/>
      <point x="-13" y="1150" type="line"/>
      <point x="-87" y="1226" type="line"/>
      <point x="92" y="1453" type="line" smooth="yes"/>
      <point x="124" y="1493"/>
      <point x="179" y="1552"/>
      <point x="216" y="1552" type="qcurve" smooth="yes"/>
      <point x="250" y="1552"/>
      <point x="311" y="1509"/>
    </contour>
    <contour>
      <point x="701" y="1474" type="qcurve" smooth="yes"/>
      <point x="701" y="1427"/>
      <point x="658" y="1390"/>
      <point x="620" y="1357" type="qcurve" smooth="yes"/>
      <point x="377" y="1150" type="line"/>
      <point x="303" y="1226" type="line"/>
      <point x="483" y="1453" type="line" smooth="yes"/>
      <point x="515" y="1493"/>
      <point x="569" y="1552"/>
      <point x="606" y="1552" type="qcurve" smooth="yes"/>
      <point x="640" y="1552"/>
      <point x="701" y="1509"/>
    </contour>
  </outline>
</glyph>
<glyph name="cedillacomb" format="2">
  <advance width="551"/>
  <unicode hex="0327"/>
  <anchor x="284" y="0" name="_bottom"/>
  <anchor x="266" y="-541" name="bottom"/>
  <outline>
    <contour>
      <point x="327" y="0" type="line"/>
      <point x="260" y="-125" type="line"/>
      <point x="277" y="-119"/>
      <point x="335" y="-106"/>
      <point x="365" y="-106" type="qcurve" smooth="yes"/>
      <point x="441" y="-106"/>
      <point x="552" y="-196"/>
      <point x="552" y="-285" type="qcurve" smooth="yes"/>
      <point x="552" y="-380"/>
      <point x="410" y="-494"/>
      <point x="319" y="-494" type="qcurve" smooth="yes"/>
      <point x="230" y="-494"/>
      <point x="73" y="-450"/>
      <point x="21" y="-408" type="qcurve"/>
      <point x="73" y="-299" type="line"/>
      <point x="111" y="-331"/>
      <point x="220" y="-375"/>
      <point x="284" y="-375" type="qcurve" smooth="yes"/>
      <point x="328" y="-375"/>
      <point x="399" y="-328"/>
      <point x="399" y="-282" type="qcurve" smooth="yes"/>
      <point x="399" y="-239"/>
      <point x="340" y="-204"/>
      <point x="288" y="-204" type="qcurve" smooth="yes"/>
      <point x="257" y="-204"/>
      <point x="208" y="-212"/>
      <point x="191" y="-218" type="qcurve"/>
      <point x="132" y="-146" type="line"/>
      <point x="236" y="53" type="line"/>
    </contour>
  </outline>
</glyph>
<glyph name="ogonekcomb" format="2">
  <advance width="551"/>
  <unicode hex="0328"/>
  <anchor x="333" y="0" name="_ogonek"/>
  <anchor x="258" y="-463" name="bottom"/>
  <outline>
    <contour>
      <point x="177" y="-240" type="qcurve" smooth="yes"/>
      <point x="177" y="-282"/>
      <point x="235" y="-332"/>
      <point x="284" y="-332" type="qcurve" smooth="yes"/>
      <point x="335" y="-332"/>
      <point x="458" y="-291"/>
      <point x="507" y="-251" type="qcurve"/>
      <point x="557" y="-335" type="line"/>
      <point x="520" y="-379"/>
      <point x="368" y="-463"/>
      <point x="259" y="-463" type="qcurve" smooth="yes"/>
      <point x="150" y="-463"/>
      <point x="23" y="-369"/>
      <point x="23" y="-287" type="qcurve" smooth="yes"/>
      <point x="23" y="-202"/>
      <point x="145" y="-32"/>
      <point x="225" y="32" type="qcurve" smooth="yes"/>
      <point x="250" y="52" type="line"/>
      <point x="333" y="0" type="line"/>
      <point x="316" y="-18" type="line" smooth="yes"/>
      <point x="245" y="-93"/>
      <point x="177" y="-190"/>
    </contour>
  </outline>
</glyph>
<glyph name="macronbelowcomb" format="2">
  <advance width="551"/>
  <unicode hex="0331"/>
  <anchor x="275" y="0" name="_bottom"/>
  <anchor x="275" y="-300" name="bottom"/>
  <outline>
    <contour>
      <point x="-21" y="-300" type="line"/>
      <point x="-21" y="-144" type="line"/>
      <point x="571" y="-144" type="line"/>
      <point x="571" y="-300" type="line"/>
    </contour>
  </outline>
</glyph>
<glyph name="Theta" format="2">
  <advance width="1754"/>
  <unicode hex="0398"/>
  <outline>
    <contour>
      <point x="881" y="-31" type="qcurve" smooth="yes"/>
      <point x="552" y="-31"/>
      <point x="125" y="396"/>
      <point x="125" y="737" type="qcurve" smooth="yes"/>
      <point x="125" y="1068"/>
      <point x="540" y="1520"/>
      <point x="877" y="1520" type="qcurve" smooth="yes"/>
      <point x="1214" y="1520"/>
      <point x="1629" y="1097"/>
      <point x="1629" y="752" type="qcurve" smooth="yes"/>
      <point x="1629" y="423"/>
      <point x="1218" y="-31"/>
    </contour>
    <contour>
      <point x="879" y="101" type="qcurve" smooth="yes"/>
      <point x="1152" y="101"/>
      <point x="1438" y="436"/>
      <point x="1438" y="745" type="qcurve" smooth="yes"/>
      <point x="1438" y="1020"/>
      <point x="1132" y="1380"/>
      <point x="879" y="1380" type="qcurve" smooth="yes"/>
      <point x="606" y="1380"/>
      <point x="316" y="1053"/>
      <point x="316" y="771" type="qcurve" smooth="yes"/>
      <point x="316" y="478"/>
      <point x="629" y="101"/>
    </contour>
    <contour>
      <point x="518" y="649" type="line"/>
      <point x="518" y="822" type="line"/>
      <point x="528" y="822" type="line"/>
      <point x="874" y="796" type="line"/>
      <point x="884" y="796" type="line"/>
      <point x="1228" y="822" type="line"/>
      <point x="1238" y="822" type="line"/>
      <point x="1238" y="649" type="line"/>
      <point x="1228" y="649" type="line"/>
      <point x="884" y="675" type="line"/>
      <point x="874" y="675" type="line"/>
      <point x="528" y="649" type="line"/>
    </contour>
  </outline>
</glyph>
<glyph name="Xi" format="2">
  <advance width="1538"/>
  <unicode hex="039E"/>
  <guideline x="721" y="1008" angle="90.0" identifier="GCiNqpylsp"/>
  <outline>
    <contour>
      <point x="182" y="0" type="line"/>
      <point x="131" y="418" type="line"/>
      <point x="253" y="418" type="line"/>
      <point x="328" y="148" type="line"/>
      <point x="769" y="145" type="line"/>
      <point x="1210" y="148" type="line"/>
      <point x="1285" y="418" type="line"/>
      <point x="1407" y="418" type="line"/>
      <point x="1356" y="0" type="line"/>
    </contour>
    <contour>
      <point x="378" y="518" type="line"/>
      <point x="378" y="954" type="line"/>
      <point x="478" y="954" type="line"/>
      <point x="513" y="809" type="line"/>
      <point x="769" y="799" type="line"/>
      <point x="1025" y="809" type="line"/>
      <point x="1060" y="954" type="line"/>
      <point x="1160" y="954" type="line"/>
      <point x="1160" y="518" type="line"/>
      <point x="1060" y="518" type="line"/>
      <point x="1025" y="663" type="line"/>
      <point x="769" y="673" type="line"/>
      <point x="513" y="663" type="line"/>
      <point x="478" y="518" type="line"/>
    </contour>
    <contour>
      <point x="177" y="1058" type="line"/>
      <point x="177" y="1500" type="line"/>
      <point x="1361" y="1500" type="line"/>
      <point x="1361" y="1058" type="line"/>
      <point x="1239" y="1058" type="line"/>
      <point x="1207" y="1342" type="line"/>
      <point x="769" y="1345" type="line"/>
      <point x="331" y="1342" type="line"/>
      <point x="299" y="1058" type="line"/>
    </contour>
  </outline>
</glyph>
<glyph name="Pi" format="2">
  <advance width="1808"/>
  <unicode hex="03A0"/>
  <outline>
    <contour>
      <point x="82" y="0" type="line"/>
      <point x="82" y="150" type="line"/>
      <point x="290" y="185" type="line"/>
      <point x="292" y="754" type="line"/>
      <point x="290" y="1302" type="line"/>
      <point x="82" y="1336" type="line"/>
      <point x="82" y="1500" type="line"/>
      <point x="1726" y="1500" type="line"/>
      <point x="1726" y="1336" type="line"/>
      <point x="1518" y="1302" type="line"/>
      <point x="1516" y="754" type="line"/>
      <point x="1518" y="185" type="line"/>
      <point x="1726" y="150" type="line"/>
      <point x="1726" y="0" type="line"/>
      <point x="1086" y="0" type="line"/>
      <point x="1086" y="150" type="line"/>
      <point x="1294" y="185" type="line"/>
      <point x="1296" y="754" type="line"/>
      <point x="1294" y="1309" type="line"/>
      <point x="1259" y="1333" type="line"/>
      <point x="550" y="1333" type="line"/>
      <point x="514" y="1309" type="line"/>
      <point x="512" y="754" type="line"/>
      <point x="514" y="185" type="line"/>
      <point x="722" y="150" type="line"/>
      <point x="722" y="0" type="line"/>
    </contour>
  </outline>
</glyph>
<glyph name="Phi" format="2">
  <advance width="1729"/>
  <unicode hex="03A6"/>
  <outline>
    <contour>
      <point x="601" y="-24" type="line"/>
      <point x="601" y="85" type="line"/>
      <point x="779" y="119" type="line"/>
      <point x="782" y="260" type="line"/>
      <point x="792" y="260" type="line"/>
      <point x="794" y="740" type="line"/>
      <point x="934" y="740" type="line"/>
      <point x="936" y="261" type="line"/>
      <point x="946" y="260" type="line"/>
      <point x="949" y="119" type="line"/>
      <point x="1127" y="85" type="line"/>
      <point x="1127" y="-24" type="line"/>
    </contour>
    <contour>
      <point x="794" y="740" type="line"/>
      <point x="792" y="1235" type="line"/>
      <point x="782" y="1236" type="line"/>
      <point x="779" y="1377" type="line"/>
      <point x="601" y="1411" type="line"/>
      <point x="601" y="1520" type="line"/>
      <point x="1127" y="1520" type="line"/>
      <point x="1127" y="1411" type="line"/>
      <point x="949" y="1377" type="line"/>
      <point x="946" y="1236" type="line"/>
      <point x="936" y="1236" type="line"/>
      <point x="934" y="740" type="line"/>
    </contour>
    <contour>
      <point x="125" y="713" type="qcurve" smooth="yes"/>
      <point x="125" y="969"/>
      <point x="492" y="1273"/>
      <point x="860" y="1273" type="qcurve" smooth="yes"/>
      <point x="1282" y="1273"/>
      <point x="1604" y="1002"/>
      <point x="1604" y="785" type="qcurve" smooth="yes"/>
      <point x="1604" y="529"/>
      <point x="1251" y="229"/>
      <point x="860" y="225" type="qcurve" smooth="yes"/>
      <point x="442" y="220"/>
      <point x="125" y="496"/>
    </contour>
    <contour>
      <point x="308" y="724" type="qcurve" smooth="yes"/>
      <point x="308" y="536"/>
      <point x="564" y="337"/>
      <point x="860" y="337" type="qcurve" smooth="yes"/>
      <point x="1170" y="337"/>
      <point x="1421" y="570"/>
      <point x="1421" y="766" type="qcurve" smooth="yes"/>
      <point x="1421" y="954"/>
      <point x="1171" y="1154"/>
      <point x="860" y="1153" type="qcurve" smooth="yes"/>
      <point x="559" y="1152"/>
      <point x="308" y="920"/>
    </contour>
  </outline>
</glyph>
<glyph name="Psi" format="2">
  <advance width="1954"/>
  <unicode hex="03A8"/>
  <outline>
    <contour>
      <point x="669" y="0" type="line"/>
      <point x="669" y="100" type="line"/>
      <point x="887" y="135" type="line"/>
      <point x="888" y="510" type="line"/>
      <point x="893" y="510" type="line"/>
      <point x="893" y="811" type="line"/>
      <point x="887" y="1352" type="line"/>
      <point x="709" y="1386" type="line"/>
      <point x="709" y="1500" type="line"/>
      <point x="1245" y="1500" type="line"/>
      <point x="1245" y="1386" type="line"/>
      <point x="1067" y="1352" type="line"/>
      <point x="1061" y="811" type="line"/>
      <point x="1061" y="510" type="line"/>
      <point x="1066" y="510" type="line"/>
      <point x="1067" y="136" type="line"/>
      <point x="1285" y="100" type="line"/>
      <point x="1285" y="0" type="line"/>
    </contour>
    <contour>
      <point x="971" y="462" type="qcurve" smooth="yes"/>
      <point x="579" y="462"/>
      <point x="324" y="716"/>
      <point x="307" y="1007" type="qcurve" smooth="yes"/>
      <point x="277" y="1352" type="line"/>
      <point x="109" y="1386" type="line"/>
      <point x="109" y="1500" type="line"/>
      <point x="412" y="1500" type="line"/>
      <point x="445" y="1477" type="line"/>
      <point x="485" y="1013" type="line" smooth="yes"/>
      <point x="510" y="724"/>
      <point x="725" y="577"/>
      <point x="971" y="577" type="qcurve" smooth="yes"/>
      <point x="1230" y="577"/>
      <point x="1450" y="724"/>
      <point x="1469" y="1013" type="qcurve" smooth="yes"/>
      <point x="1509" y="1477" type="line"/>
      <point x="1542" y="1500" type="line"/>
      <point x="1845" y="1500" type="line"/>
      <point x="1845" y="1386" type="line"/>
      <point x="1677" y="1352" type="line"/>
      <point x="1647" y="1007" type="line" smooth="yes"/>
      <point x="1622" y="717"/>
      <point x="1376" y="462"/>
    </contour>
  </outline>
</glyph>
<glyph name="beta" format="2">
  <advance width="1324"/>
  <unicode hex="03B2"/>
  <outline>
    <contour>
      <point x="266" y="-480" type="line"/>
      <point x="231" y="-453" type="line"/>
      <point x="238" y="306" type="line"/>
      <point x="240" y="971" type="line" smooth="yes"/>
      <point x="241" y="1279"/>
      <point x="500" y="1537"/>
      <point x="699" y="1537" type="qcurve" smooth="yes"/>
      <point x="886" y="1537"/>
      <point x="1083" y="1336"/>
      <point x="1083" y="1188" type="qcurve" smooth="yes"/>
      <point x="1083" y="1018"/>
      <point x="853" y="775"/>
      <point x="692" y="744" type="qcurve" smooth="yes"/>
      <point x="566" y="720" type="line"/>
      <point x="539" y="755" type="line"/>
      <point x="587" y="913" type="line"/>
      <point x="701" y="899" type="line" smooth="yes"/>
      <point x="982" y="864"/>
      <point x="1211" y="648"/>
      <point x="1211" y="458" type="qcurve" smooth="yes"/>
      <point x="1211" y="240"/>
      <point x="933" y="-22"/>
      <point x="724" y="-22" type="qcurve"/>
      <point x="597" y="-22"/>
      <point x="404" y="65"/>
      <point x="332" y="177" type="qcurve"/>
      <point x="332" y="270" type="line"/>
      <point x="379" y="270" type="line"/>
      <point x="440" y="174"/>
      <point x="598" y="88"/>
      <point x="711" y="88" type="qcurve" smooth="yes"/>
      <point x="846" y="88"/>
      <point x="1025" y="276"/>
      <point x="1025" y="432" type="qcurve" smooth="yes"/>
      <point x="1025" y="612"/>
      <point x="781" y="788"/>
      <point x="633" y="788" type="qcurve"/>
      <point x="647" y="834" type="line"/>
      <point x="742" y="842"/>
      <point x="927" y="1028"/>
      <point x="927" y="1164" type="qcurve" smooth="yes"/>
      <point x="927" y="1298"/>
      <point x="797" y="1424"/>
      <point x="686" y="1424" type="qcurve" smooth="yes"/>
      <point x="549" y="1424"/>
      <point x="404" y="1236"/>
      <point x="404" y="1017" type="qcurve" smooth="yes"/>
      <point x="404" y="152" type="line"/>
      <point x="427" y="-460" type="line"/>
    </contour>
  </outline>
</glyph>
<glyph name="delta" format="2">
  <advance width="1184"/>
  <unicode hex="03B4"/>
  <outline>
    <contour>
      <point x="590" y="-22" type="qcurve" smooth="yes"/>
      <point x="381" y="-22"/>
      <point x="109" y="223"/>
      <point x="109" y="432" type="qcurve" smooth="yes"/>
      <point x="109" y="631"/>
      <point x="376" y="907"/>
      <point x="588" y="945" type="qcurve"/>
      <point x="681" y="945" type="line"/>
      <point x="681" y="899" type="line"/>
      <point x="525" y="872"/>
      <point x="292" y="630"/>
      <point x="289" y="432" type="qcurve" smooth="yes"/>
      <point x="286" y="263"/>
      <point x="455" y="88"/>
      <point x="587" y="88" type="qcurve" smooth="yes"/>
      <point x="734" y="88"/>
      <point x="903" y="273"/>
      <point x="903" y="428" type="qcurve" smooth="yes"/>
      <point x="903" y="568"/>
      <point x="741" y="779"/>
      <point x="576" y="863" type="qcurve" smooth="yes"/>
      <point x="410" y="948"/>
      <point x="247" y="1117"/>
      <point x="247" y="1225" type="qcurve" smooth="yes"/>
      <point x="247" y="1367"/>
      <point x="463" y="1537"/>
      <point x="663" y="1537" type="qcurve" smooth="yes"/>
      <point x="785" y="1537"/>
      <point x="1008" y="1467"/>
      <point x="1039" y="1432" type="qcurve"/>
      <point x="1019" y="1156" type="line"/>
      <point x="919" y="1156" type="line"/>
      <point x="876" y="1336" type="line"/>
      <point x="850" y="1373"/>
      <point x="722" y="1414"/>
      <point x="640" y="1414" type="qcurve" smooth="yes"/>
      <point x="540" y="1414"/>
      <point x="413" y="1328"/>
      <point x="413" y="1245" type="qcurve" smooth="yes"/>
      <point x="413" y="1182"/>
      <point x="496" y="1084"/>
      <point x="706" y="965" type="qcurve" smooth="yes"/>
      <point x="890" y="861"/>
      <point x="1075" y="595"/>
      <point x="1075" y="446" type="qcurve" smooth="yes"/>
      <point x="1075" y="229"/>
      <point x="810" y="-22"/>
    </contour>
  </outline>
</glyph>
<glyph name="lambda" format="2">
  <advance width="1105"/>
  <unicode hex="03BB"/>
  <outline>
    <contour>
      <point x="894" y="-8" type="line"/>
      <point x="844" y="-8"/>
      <point x="780" y="41"/>
      <point x="761" y="96" type="qcurve" smooth="yes"/>
      <point x="497" y="868" type="line"/>
      <point x="361" y="1222" type="line" smooth="yes"/>
      <point x="318" y="1334"/>
      <point x="242" y="1379"/>
      <point x="199" y="1388" type="qcurve" smooth="yes"/>
      <point x="97" y="1409" type="line"/>
      <point x="97" y="1503" type="line"/>
      <point x="285" y="1537" type="line"/>
      <point x="366" y="1537"/>
      <point x="459" y="1430"/>
      <point x="492" y="1332" type="qcurve" smooth="yes"/>
      <point x="635" y="909" type="line"/>
      <point x="890" y="217" type="line" smooth="yes"/>
      <point x="907" y="171"/>
      <point x="951" y="118"/>
      <point x="999" y="118" type="qcurve" smooth="yes"/>
      <point x="1070" y="118" type="line"/>
      <point x="1070" y="34" type="line"/>
    </contour>
    <contour>
      <point x="69" y="0" type="line"/>
      <point x="34" y="27" type="line"/>
      <point x="268" y="559" type="line"/>
      <point x="495" y="1100" type="line"/>
      <point x="551" y="936" type="line"/>
      <point x="398" y="530" type="line"/>
      <point x="230" y="20" type="line"/>
    </contour>
  </outline>
</glyph>
<glyph name="mu" format="2">
  <advance width="1272"/>
  <unicode hex="03BC"/>
  <outline>
    <contour>
      <point x="236" y="-480" type="line"/>
      <point x="201" y="-453" type="line"/>
      <point x="207" y="395" type="line"/>
      <point x="197" y="980" type="line"/>
      <point x="358" y="1000" type="line"/>
      <point x="393" y="973" type="line"/>
      <point x="373" y="395" type="line"/>
      <point x="373" y="222"/>
      <point x="489" y="113"/>
      <point x="584" y="113" type="qcurve" smooth="yes"/>
      <point x="662" y="113"/>
      <point x="799" y="189"/>
      <point x="851" y="265" type="qcurve"/>
      <point x="851" y="325" type="line"/>
      <point x="845" y="980" type="line"/>
      <point x="1006" y="1000" type="line"/>
      <point x="1041" y="973" type="line"/>
      <point x="1018" y="325" type="line"/>
      <point x="1019" y="177"/>
      <point x="1051" y="118"/>
      <point x="1100" y="118" type="qcurve" smooth="yes"/>
      <point x="1157" y="118" type="line"/>
      <point x="1157" y="34" type="line"/>
      <point x="1000" y="-8" type="line"/>
      <point x="935" y="-6"/>
      <point x="871" y="69"/>
      <point x="853" y="146" type="qcurve"/>
      <point x="852" y="146" type="line"/>
      <point x="815" y="89"/>
      <point x="650" y="-21"/>
      <point x="548" y="-21" type="qcurve" smooth="yes"/>
      <point x="490" y="-21"/>
      <point x="386" y="24"/>
      <point x="364" y="63" type="qcurve"/>
      <point x="397" y="-460" type="line"/>
    </contour>
  </outline>
</glyph>
<glyph name="sigma" format="2">
  <advance width="1235"/>
  <unicode hex="03C3"/>
  <outline>
    <contour>
      <point x="574" y="-22" type="qcurve" smooth="yes"/>
      <point x="361" y="-22"/>
      <point x="109" y="241"/>
      <point x="109" y="454" type="qcurve" smooth="yes"/>
      <point x="109" y="684"/>
      <point x="400" y="976"/>
      <point x="697" y="993" type="qcurve" smooth="yes"/>
      <point x="1143" y="1020" type="line"/>
      <point x="1169" y="986" type="line"/>
      <point x="1153" y="836" type="line"/>
      <point x="784" y="845" type="line" smooth="yes"/>
      <point x="498" y="852"/>
      <point x="288" y="637"/>
      <point x="288" y="456" type="qcurve" smooth="yes"/>
      <point x="288" y="283"/>
      <point x="458" y="89"/>
      <point x="579" y="89" type="qcurve" smooth="yes"/>
      <point x="727" y="89"/>
      <point x="883" y="314"/>
      <point x="883" y="480" type="qcurve" smooth="yes"/>
      <point x="883" y="617"/>
      <point x="782" y="820"/>
      <point x="702" y="883" type="qcurve"/>
      <point x="702" y="930" type="line"/>
      <point x="756" y="930" type="line"/>
      <point x="910" y="830"/>
      <point x="1058" y="616"/>
      <point x="1058" y="480" type="qcurve" smooth="yes"/>
      <point x="1058" y="260"/>
      <point x="796" y="-22"/>
    </contour>
  </outline>
</glyph>
<glyph name="upsilon" format="2">
  <advance width="1190"/>
  <unicode hex="03C5"/>
  <anchor x="565" y="1000" name="GRKtop"/>
  <outline>
    <contour>
      <point x="612" y="-21" type="qcurve" smooth="yes"/>
      <point x="433" y="-21"/>
      <point x="224" y="189"/>
      <point x="232" y="389" type="qcurve" smooth="yes"/>
      <point x="245" y="680" type="line" smooth="yes"/>
      <point x="249" y="779"/>
      <point x="218" y="856"/>
      <point x="163" y="867" type="qcurve"/>
      <point x="101" y="880" type="line"/>
      <point x="101" y="974" type="line"/>
      <point x="284" y="1008" type="line"/>
      <point x="342" y="1008"/>
      <point x="415" y="898"/>
      <point x="412" y="791" type="qcurve" smooth="yes"/>
      <point x="400" y="387" type="line" smooth="yes"/>
      <point x="396" y="247"/>
      <point x="515" y="113"/>
      <point x="628" y="113" type="qcurve" smooth="yes"/>
      <point x="738" y="113"/>
      <point x="895" y="279"/>
      <point x="895" y="498" type="qcurve" smooth="yes"/>
      <point x="895" y="621"/>
      <point x="824" y="846"/>
      <point x="737" y="964" type="qcurve"/>
      <point x="860" y="1029" type="line"/>
      <point x="973" y="910"/>
      <point x="1071" y="660"/>
      <point x="1071" y="520" type="qcurve" smooth="yes"/>
      <point x="1071" y="280"/>
      <point x="831" y="-21"/>
    </contour>
  </outline>
</glyph>
<glyph name="phi" format="2">
  <advance width="1406"/>
  <unicode hex="03C6"/>
  <outline>
    <contour>
      <point x="707" y="1023" type="qcurve" smooth="yes"/>
      <point x="1002" y="1023"/>
      <point x="1307" y="741"/>
      <point x="1307" y="525" type="qcurve" smooth="yes"/>
      <point x="1307" y="273"/>
      <point x="992" y="-23"/>
      <point x="715" y="-23" type="qcurve" smooth="yes"/>
      <point x="405" y="-23"/>
      <point x="99" y="259"/>
      <point x="99" y="475" type="qcurve" smooth="yes"/>
      <point x="99" y="727"/>
      <point x="413" y="1023"/>
    </contour>
    <contour>
      <point x="773" y="970" type="line"/>
      <point x="790" y="33" type="line"/>
      <point x="795" y="33" type="line"/>
      <point x="807" y="-460" type="line"/>
      <point x="646" y="-480" type="line"/>
      <point x="611" y="-453" type="line"/>
      <point x="623" y="33" type="line"/>
      <point x="628" y="33" type="line"/>
      <point x="638" y="970" type="line"/>
      <point x="633" y="970" type="line"/>
      <point x="636" y="1521" type="line"/>
      <point x="737" y="1534" type="line"/>
      <point x="772" y="1507" type="line"/>
      <point x="778" y="970" type="line"/>
    </contour>
    <contour>
      <point x="707" y="917" type="qcurve" smooth="yes"/>
      <point x="482" y="917"/>
      <point x="280" y="695"/>
      <point x="280" y="491" type="qcurve" smooth="yes"/>
      <point x="280" y="302"/>
      <point x="475" y="89"/>
      <point x="715" y="89" type="qcurve" smooth="yes"/>
      <point x="923" y="89"/>
      <point x="1126" y="311"/>
      <point x="1126" y="515" type="qcurve" smooth="yes"/>
      <point x="1126" y="704"/>
      <point x="931" y="917"/>
    </contour>
  </outline>
</glyph>
<glyph name="Dje" format="2">
  <advance width="1720"/>
  <unicode hex="0402"/>
  <guideline x="568" y="625" angle="90.0" identifier="YDADns81zF"/>
  <outline>
    <contour>
      <point x="1096" y="746" type="qcurve" smooth="yes"/>
      <point x="951" y="746"/>
      <point x="769" y="705"/>
      <point x="669" y="672" type="qcurve"/>
      <point x="669" y="799" type="line"/>
      <point x="770" y="834"/>
      <point x="963" y="881"/>
      <point x="1104" y="881" type="qcurve" smooth="yes"/>
      <point x="1355" y="881"/>
      <point x="1615" y="638"/>
      <point x="1615" y="438" type="qcurve" smooth="yes"/>
      <point x="1615" y="247"/>
      <point x="1402" y="0"/>
      <point x="1210" y="0" type="qcurve"/>
      <point x="1210" y="100" type="line"/>
      <point x="1314" y="107"/>
      <point x="1422" y="279"/>
      <point x="1422" y="413" type="qcurve" smooth="yes"/>
      <point x="1422" y="569"/>
      <point x="1247" y="746"/>
    </contour>
    <contour>
      <point x="85" y="1052" type="line"/>
      <point x="85" y="1500" type="line"/>
      <point x="1293" y="1500" type="line"/>
      <point x="1293" y="1092" type="line"/>
      <point x="1183" y="1092" type="line"/>
      <point x="1148" y="1382" type="line"/>
      <point x="778" y="1382" type="line"/>
      <point x="759" y="1362" type="line"/>
      <point x="757" y="754" type="line"/>
      <point x="759" y="136" type="line"/>
      <point x="976" y="100" type="line"/>
      <point x="976" y="0" type="line"/>
      <point x="360" y="0" type="line"/>
      <point x="360" y="100" type="line"/>
      <point x="579" y="136" type="line"/>
      <point x="581" y="754" type="line"/>
      <point x="579" y="1362" type="line"/>
      <point x="570" y="1382" type="line"/>
      <point x="230" y="1382" type="line"/>
      <point x="195" y="1052" type="line"/>
    </contour>
  </outline>
</glyph>
<glyph name="Nje" format="2">
  <advance width="2320"/>
  <unicode hex="040A"/>
  <outline>
    <contour>
      <point x="82" y="0" type="line"/>
      <point x="82" y="150" type="line"/>
      <point x="290" y="185" type="line"/>
      <point x="292" y="754" type="line"/>
      <point x="290" y="1302" type="line"/>
      <point x="82" y="1336" type="line"/>
      <point x="82" y="1500" type="line"/>
      <point x="722" y="1500" type="line"/>
      <point x="722" y="1336" type="line"/>
      <point x="514" y="1302" type="line"/>
      <point x="512" y="754" type="line"/>
      <point x="514" y="185" type="line"/>
      <point x="722" y="150" type="line"/>
      <point x="722" y="0" type="line"/>
    </contour>
    <contour>
      <point x="424" y="729" type="line"/>
      <point x="424" y="902" type="line"/>
      <point x="884" y="894" type="line"/>
      <point x="1324" y="902" type="line"/>
      <point x="1324" y="729" type="line"/>
      <point x="884" y="729" type="line"/>
    </contour>
    <contour>
      <point x="2031" y="484" type="qcurve" smooth="yes"/>
      <point x="2031" y="629"/>
      <point x="1841" y="768"/>
      <point x="1681" y="768" type="qcurve" smooth="yes"/>
      <point x="1467" y="768" type="line"/>
      <point x="1458" y="754" type="line"/>
      <point x="1458" y="176" type="line"/>
      <point x="1492" y="154" type="line"/>
      <point x="1679" y="154" type="line" smooth="yes"/>
      <point x="1850" y="154"/>
      <point x="2031" y="326"/>
    </contour>
    <contour>
      <point x="1026" y="0" type="line"/>
      <point x="1026" y="150" type="line"/>
      <point x="1234" y="185" type="line"/>
      <point x="1236" y="736" type="line"/>
      <point x="1234" y="1302" type="line"/>
      <point x="1026" y="1336" type="line"/>
      <point x="1026" y="1500" type="line"/>
      <point x="1666" y="1500" type="line"/>
      <point x="1666" y="1336" type="line"/>
      <point x="1458" y="1302" type="line"/>
      <point x="1457" y="935" type="line"/>
      <point x="1466" y="921" type="line"/>
      <point x="1753" y="921" type="line" smooth="yes"/>
      <point x="2006" y="921"/>
      <point x="2270" y="703"/>
      <point x="2270" y="485" type="qcurve" smooth="yes"/>
      <point x="2270" y="270"/>
      <point x="1990" y="0"/>
      <point x="1736" y="0" type="qcurve" smooth="yes"/>
    </contour>
  </outline>
</glyph>
<glyph name="Tshe" format="2">
  <advance width="1894"/>
  <unicode hex="040B"/>
  <outline>
    <contour>
      <point x="1824" y="150" type="line"/>
      <point x="1824" y="0" type="line"/>
      <point x="1391" y="0" type="line"/>
      <point x="1392" y="348" type="line" smooth="yes"/>
      <point x="1394" y="531"/>
      <point x="1233" y="708"/>
      <point x="1090" y="708" type="qcurve" smooth="yes"/>
      <point x="947" y="708"/>
      <point x="767" y="667"/>
      <point x="668" y="634" type="qcurve"/>
      <point x="668" y="799" type="line"/>
      <point x="773" y="834"/>
      <point x="973" y="881"/>
      <point x="1119" y="881" type="qcurve" smooth="yes"/>
      <point x="1359" y="881"/>
      <point x="1616" y="642"/>
      <point x="1616" y="379" type="qcurve" smooth="yes"/>
      <point x="1616" y="185" type="line"/>
    </contour>
    <contour>
      <point x="26" y="992" type="line"/>
      <point x="26" y="1500" type="line"/>
      <point x="1306" y="1500" type="line"/>
      <point x="1306" y="1032" type="line"/>
      <point x="1154" y="1032" type="line"/>
      <point x="1119" y="1342" type="line"/>
      <point x="777" y="1342" type="line"/>
      <point x="758" y="1322" type="line"/>
      <point x="756" y="754" type="line"/>
      <point x="758" y="186" type="line"/>
      <point x="977" y="150" type="line"/>
      <point x="977" y="0" type="line"/>
      <point x="315" y="0" type="line"/>
      <point x="315" y="150" type="line"/>
      <point x="534" y="186" type="line"/>
      <point x="536" y="754" type="line"/>
      <point x="534" y="1322" type="line"/>
      <point x="525" y="1342" type="line"/>
      <point x="213" y="1342" type="line"/>
      <point x="178" y="992" type="line"/>
    </contour>
  </outline>
</glyph>
<glyph name="Dzhe" format="2">
  <advance width="1808"/>
  <unicode hex="040F"/>
  <outline>
    <contour>
      <point x="1034" y="0" type="line"/>
      <point x="985" y="-358" type="line"/>
      <point x="824" y="-358" type="line"/>
      <point x="775" y="0" type="line"/>
      <point x="82" y="0" type="line"/>
      <point x="82" y="150" type="line"/>
      <point x="290" y="185" type="line"/>
      <point x="292" y="736" type="line"/>
      <point x="290" y="1302" type="line"/>
      <point x="82" y="1336" type="line"/>
      <point x="82" y="1500" type="line"/>
      <point x="722" y="1500" type="line"/>
      <point x="722" y="1336" type="line"/>
      <point x="514" y="1302" type="line"/>
      <point x="512" y="736" type="line"/>
      <point x="514" y="188" type="line"/>
      <point x="554" y="160" type="line"/>
      <point x="1254" y="160" type="line"/>
      <point x="1294" y="188" type="line"/>
      <point x="1296" y="736" type="line"/>
      <point x="1294" y="1302" type="line"/>
      <point x="1086" y="1336" type="line"/>
      <point x="1086" y="1500" type="line"/>
      <point x="1726" y="1500" type="line"/>
      <point x="1726" y="1336" type="line"/>
      <point x="1518" y="1302" type="line"/>
      <point x="1516" y="736" type="line"/>
      <point x="1518" y="185" type="line"/>
      <point x="1726" y="150" type="line"/>
      <point x="1726" y="0" type="line"/>
    </contour>
  </outline>
</glyph>
<glyph name="Be" format="2">
  <advance width="1380"/>
  <unicode hex="0411"/>
  <outline>
    <contour>
      <point x="1067" y="457" type="qcurve" smooth="yes"/>
      <point x="1067" y="599"/>
      <point x="877" y="728"/>
      <point x="717" y="728" type="qcurve" smooth="yes"/>
      <point x="522" y="728" type="line"/>
      <point x="513" y="714" type="line"/>
      <point x="515" y="161" type="line"/>
      <point x="549" y="139" type="line"/>
      <point x="715" y="139" type="line" smooth="yes"/>
      <point x="886" y="139"/>
      <point x="1067" y="301"/>
    </contour>
    <contour>
      <point x="82" y="0" type="line"/>
      <point x="82" y="150" type="line"/>
      <point x="290" y="185" type="line"/>
      <point x="292" y="736" type="line"/>
      <point x="290" y="1302" type="line"/>
      <point x="82" y="1336" type="line"/>
      <point x="82" y="1500" type="line"/>
      <point x="1154" y="1500" type="line"/>
      <point x="1154" y="1092" type="line"/>
      <point x="1002" y="1092" type="line"/>
      <point x="967" y="1352" type="line"/>
      <point x="544" y="1352" type="line"/>
      <point x="514" y="1332" type="line"/>
      <point x="512" y="883" type="line"/>
      <point x="521" y="869" type="line"/>
      <point x="789" y="869" type="line" smooth="yes"/>
      <point x="1044" y="869"/>
      <point x="1310" y="671"/>
      <point x="1310" y="457" type="qcurve" smooth="yes"/>
      <point x="1310" y="249"/>
      <point x="1028" y="0"/>
      <point x="772" y="0" type="qcurve" smooth="yes"/>
    </contour>
  </outline>
</glyph>
<glyph name="Zhe" format="2">
  <advance width="2172"/>
  <unicode hex="0416"/>
  <guideline x="480" y="796" angle="90.0" identifier="vQLQteAbfW"/>
  <anchor x="1086" y="0" name="bottom"/>
  <anchor x="1086" y="1500" name="top"/>
  <outline>
    <contour>
      <point x="788" y="0" type="line"/>
      <point x="788" y="100" type="line"/>
      <point x="996" y="135" type="line"/>
      <point x="998" y="754" type="line"/>
      <point x="996" y="1352" type="line"/>
      <point x="798" y="1386" type="line"/>
      <point x="798" y="1500" type="line"/>
      <point x="1374" y="1500" type="line"/>
      <point x="1374" y="1386" type="line"/>
      <point x="1176" y="1352" type="line"/>
      <point x="1174" y="754" type="line"/>
      <point x="1176" y="135" type="line"/>
      <point x="1384" y="100" type="line"/>
      <point x="1384" y="0" type="line"/>
    </contour>
    <contour>
      <point x="1086" y="716" type="line"/>
      <point x="1086" y="848" type="line"/>
      <point x="1362" y="844" type="line"/>
      <point x="1727" y="1338" type="line"/>
      <point x="1580" y="1386" type="line"/>
      <point x="1580" y="1500" type="line"/>
      <point x="2076" y="1500" type="line"/>
      <point x="2076" y="1386" type="line"/>
      <point x="1898" y="1338" type="line"/>
      <point x="1438" y="745" type="line"/>
      <point x="1396" y="716" type="line"/>
    </contour>
    <contour>
      <point x="1342" y="744" type="line"/>
      <point x="1456" y="864" type="line"/>
      <point x="2005" y="135" type="line"/>
      <point x="2162" y="100" type="line"/>
      <point x="2162" y="0" type="line"/>
      <point x="1629" y="0" type="line"/>
      <point x="1629" y="100" type="line"/>
      <point x="1797" y="135" type="line"/>
    </contour>
    <contour>
      <point x="1086" y="716" type="line"/>
      <point x="776" y="716" type="line"/>
      <point x="727" y="745" type="line"/>
      <point x="267" y="1338" type="line"/>
      <point x="89" y="1386" type="line"/>
      <point x="89" y="1500" type="line"/>
      <point x="592" y="1500" type="line"/>
      <point x="592" y="1386" type="line"/>
      <point x="445" y="1338" type="line"/>
      <point x="810" y="844" type="line"/>
      <point x="1086" y="848" type="line"/>
    </contour>
    <contour>
      <point x="827" y="744" type="line"/>
      <point x="375" y="135" type="line"/>
      <point x="543" y="100" type="line"/>
      <point x="543" y="0" type="line"/>
      <point x="10" y="0" type="line"/>
      <point x="10" y="100" type="line"/>
      <point x="170" y="135" type="line"/>
      <point x="716" y="864" type="line"/>
    </contour>
  </outline>
</glyph>
<glyph name="El" format="2">
  <advance width="1711"/>
  <unicode hex="041B"/>
  <outline>
    <contour>
      <point x="403" y="765" type="qcurve" smooth="yes"/>
      <point x="450" y="1302" type="line"/>
      <point x="246" y="1336" type="line"/>
      <point x="246" y="1500" type="line"/>
      <point x="1629" y="1500" type="line"/>
      <point x="1629" y="1336" type="line"/>
      <point x="1421" y="1302" type="line"/>
      <point x="1419" y="754" type="line"/>
      <point x="1421" y="185" type="line"/>
      <point x="1629" y="150" type="line"/>
      <point x="1629" y="0" type="line"/>
      <point x="989" y="0" type="line"/>
      <point x="989" y="150" type="line"/>
      <point x="1197" y="185" type="line"/>
      <point x="1199" y="754" type="line"/>
      <point x="1197" y="1303" type="line"/>
      <point x="1157" y="1331" type="line"/>
      <point x="663" y="1331" type="line"/>
      <point x="623" y="1303" type="line"/>
      <point x="575" y="754" type="line" smooth="yes"/>
      <point x="538" y="326"/>
      <point x="370" y="-17"/>
      <point x="146" y="-17" type="qcurve" smooth="yes"/>
      <point x="120" y="-17"/>
      <point x="81" y="-10"/>
      <point x="50" y="0" type="qcurve"/>
      <point x="50" y="199" type="line"/>
      <point x="74" y="191"/>
      <point x="114" y="186"/>
      <point x="135" y="186" type="qcurve" smooth="yes"/>
      <point x="277" y="186"/>
      <point x="379" y="486"/>
    </contour>
  </outline>
</glyph>
<glyph name="Pe" format="2">
  <advance width="1810"/>
  <unicode hex="041F"/>
  <outline>
    <contour>
      <point x="1295" y="1354" type="line"/>
      <point x="1255" y="1382" type="line"/>
      <point x="555" y="1382" type="line"/>
      <point x="515" y="1354" type="line"/>
      <point x="513" y="754" type="line"/>
      <point x="515" y="135" type="line"/>
      <point x="723" y="100" type="line"/>
      <point x="723" y="0" type="line"/>
      <point x="127" y="0" type="line"/>
      <point x="127" y="100" type="line"/>
      <point x="335" y="135" type="line"/>
      <point x="337" y="754" type="line"/>
      <point x="335" y="1352" type="line"/>
      <point x="127" y="1386" type="line"/>
      <point x="127" y="1500" type="line"/>
      <point x="1683" y="1500" type="line"/>
      <point x="1683" y="1386" type="line"/>
      <point x="1475" y="1352" type="line"/>
      <point x="1473" y="754" type="line"/>
      <point x="1475" y="135" type="line"/>
      <point x="1683" y="100" type="line"/>
      <point x="1683" y="0" type="line"/>
      <point x="1087" y="0" type="line"/>
      <point x="1087" y="100" type="line"/>
      <point x="1295" y="135" type="line"/>
      <point x="1297" y="754" type="line"/>
    </contour>
  </outline>
</glyph>
<glyph name="Ef" format="2">
  <advance width="1809"/>
  <unicode hex="0424"/>
  <outline>
    <contour>
      <point x="85" y="718" type="qcurve" smooth="yes"/>
      <point x="85" y="986"/>
      <point x="524" y="1293"/>
      <point x="904" y="1293" type="qcurve" smooth="yes"/>
      <point x="1381" y="1293"/>
      <point x="1724" y="1018"/>
      <point x="1724" y="790" type="qcurve" smooth="yes"/>
      <point x="1724" y="522"/>
      <point x="1320" y="220"/>
      <point x="904" y="215" type="qcurve" smooth="yes"/>
      <point x="469" y="210"/>
      <point x="85" y="490"/>
    </contour>
    <contour>
      <point x="641" y="85" type="line"/>
      <point x="819" y="119" type="line"/>
      <point x="822" y="260" type="line"/>
      <point x="830" y="260" type="line"/>
      <point x="832" y="745" type="line"/>
      <point x="976" y="745" type="line"/>
      <point x="978" y="261" type="line"/>
      <point x="986" y="260" type="line"/>
      <point x="989" y="119" type="line"/>
      <point x="1167" y="85" type="line"/>
      <point x="1167" y="-24" type="line"/>
      <point x="641" y="-24" type="line"/>
    </contour>
    <contour>
      <point x="641" y="1411" type="line"/>
      <point x="641" y="1520" type="line"/>
      <point x="1167" y="1520" type="line"/>
      <point x="1167" y="1411" type="line"/>
      <point x="989" y="1377" type="line"/>
      <point x="986" y="1246" type="line"/>
      <point x="978" y="1246" type="line"/>
      <point x="976" y="745" type="line"/>
      <point x="832" y="745" type="line"/>
      <point x="830" y="1245" type="line"/>
      <point x="822" y="1246" type="line"/>
      <point x="819" y="1377" type="line"/>
    </contour>
    <contour>
      <point x="268" y="729" type="qcurve" smooth="yes"/>
      <point x="268" y="529"/>
      <point x="550" y="327"/>
      <point x="904" y="327" type="qcurve" smooth="yes"/>
      <point x="1280" y="327"/>
      <point x="1541" y="563"/>
      <point x="1541" y="771" type="qcurve" smooth="yes"/>
      <point x="1541" y="971"/>
      <point x="1280" y="1174"/>
      <point x="904" y="1173" type="qcurve" smooth="yes"/>
      <point x="550" y="1172"/>
      <point x="268" y="937"/>
    </contour>
  </outline>
</glyph>
<glyph name="Tse" format="2">
  <advance width="1810"/>
  <unicode hex="0426"/>
  <guideline x="1638" y="1367" angle="90.0" identifier="Ju90KfnAFs"/>
  <outline>
    <contour>
      <point x="1297" y="754" type="line"/>
      <point x="1295" y="1352" type="line"/>
      <point x="1087" y="1386" type="line"/>
      <point x="1087" y="1500" type="line"/>
      <point x="1683" y="1500" type="line"/>
      <point x="1683" y="1386" type="line"/>
      <point x="1475" y="1352" type="line"/>
      <point x="1473" y="754" type="line"/>
      <point x="1475" y="108" type="line"/>
      <point x="1683" y="108" type="line"/>
      <point x="1693" y="-338" type="line"/>
      <point x="1571" y="-338" type="line"/>
      <point x="1502" y="0" type="line"/>
      <point x="127" y="0" type="line"/>
      <point x="127" y="100" type="line"/>
      <point x="335" y="138" type="line"/>
      <point x="337" y="754" type="line"/>
      <point x="335" y="1352" type="line"/>
      <point x="127" y="1386" type="line"/>
      <point x="127" y="1500" type="line"/>
      <point x="723" y="1500" type="line"/>
      <point x="723" y="1386" type="line"/>
      <point x="515" y="1352" type="line"/>
      <point x="513" y="754" type="line"/>
      <point x="515" y="136" type="line"/>
      <point x="555" y="108" type="line"/>
      <point x="1255" y="108" type="line"/>
      <point x="1295" y="136" type="line"/>
    </contour>
  </outline>
</glyph>
<glyph name="Shcha" format="2">
  <advance width="2430"/>
  <unicode hex="0429"/>
  <outline>
    <contour>
      <point x="2122" y="0" type="line"/>
      <point x="127" y="0" type="line"/>
      <point x="127" y="100" type="line"/>
      <point x="335" y="135" type="line"/>
      <point x="337" y="746" type="line"/>
      <point x="335" y="1352" type="line"/>
      <point x="127" y="1386" type="line"/>
      <point x="127" y="1500" type="line"/>
      <point x="723" y="1500" type="line"/>
      <point x="723" y="1386" type="line"/>
      <point x="515" y="1352" type="line"/>
      <point x="513" y="746" type="line"/>
      <point x="515" y="136" type="line"/>
      <point x="555" y="108" type="line"/>
      <point x="1085" y="108" type="line"/>
      <point x="1125" y="136" type="line"/>
      <point x="1127" y="754" type="line"/>
      <point x="1125" y="1349" type="line"/>
      <point x="907" y="1382" type="line"/>
      <point x="907" y="1500" type="line"/>
      <point x="1523" y="1500" type="line"/>
      <point x="1523" y="1382" type="line"/>
      <point x="1305" y="1349" type="line"/>
      <point x="1303" y="754" type="line"/>
      <point x="1305" y="136" type="line"/>
      <point x="1345" y="108" type="line"/>
      <point x="1875" y="108" type="line"/>
      <point x="1915" y="136" type="line"/>
      <point x="1917" y="746" type="line"/>
      <point x="1915" y="1352" type="line"/>
      <point x="1707" y="1386" type="line"/>
      <point x="1707" y="1500" type="line"/>
      <point x="2303" y="1500" type="line"/>
      <point x="2303" y="1386" type="line"/>
      <point x="2095" y="1352" type="line"/>
      <point x="2093" y="746" type="line"/>
      <point x="2095" y="108" type="line"/>
      <point x="2303" y="108" type="line"/>
      <point x="2313" y="-338" type="line"/>
      <point x="2191" y="-338" type="line"/>
    </contour>
  </outline>
</glyph>
<glyph name="Soft" format="2">
  <advance width="1378"/>
  <unicode hex="042C"/>
  <outline>
    <contour>
      <point x="524" y="788" type="line"/>
      <point x="515" y="774" type="line"/>
      <point x="516" y="130" type="line"/>
      <point x="550" y="108" type="line"/>
      <point x="736" y="108" type="line" smooth="yes"/>
      <point x="907" y="108"/>
      <point x="1088" y="304"/>
      <point x="1088" y="473" type="qcurve" smooth="yes"/>
      <point x="1088" y="628"/>
      <point x="898" y="788"/>
      <point x="738" y="788" type="qcurve" smooth="yes"/>
    </contour>
    <contour>
      <point x="514" y="915" type="line"/>
      <point x="523" y="901" type="line"/>
      <point x="794" y="901" type="line" smooth="yes"/>
      <point x="1033" y="901"/>
      <point x="1283" y="685"/>
      <point x="1283" y="473" type="qcurve" smooth="yes"/>
      <point x="1283" y="267"/>
      <point x="1018" y="0"/>
      <point x="778" y="0" type="qcurve" smooth="yes"/>
      <point x="127" y="0" type="line"/>
      <point x="127" y="100" type="line"/>
      <point x="335" y="135" type="line"/>
      <point x="337" y="736" type="line"/>
      <point x="335" y="1352" type="line"/>
      <point x="127" y="1386" type="line"/>
      <point x="127" y="1500" type="line"/>
      <point x="723" y="1500" type="line"/>
      <point x="723" y="1386" type="line"/>
      <point x="515" y="1352" type="line"/>
    </contour>
  </outline>
</glyph>
<glyph name="Ecyr" format="2">
  <advance width="1575"/>
  <unicode hex="042D"/>
  <anchor x="728" y="0" name="bottom"/>
  <anchor x="728" y="1500" name="top"/>
  <outline>
    <contour>
      <point x="1355" y="695" type="line"/>
      <point x="702" y="685" type="line"/>
      <point x="667" y="505" type="line"/>
      <point x="515" y="505" type="line"/>
      <point x="515" y="1012" type="line"/>
      <point x="667" y="1012" type="line"/>
      <point x="702" y="832" type="line"/>
      <point x="1355" y="822" type="line"/>
    </contour>
    <contour>
      <point x="684" y="129" type="qcurve" smooth="yes"/>
      <point x="984" y="129"/>
      <point x="1260" y="449"/>
      <point x="1260" y="745" type="qcurve" smooth="yes"/>
      <point x="1260" y="1012"/>
      <point x="971" y="1361"/>
      <point x="697" y="1361" type="qcurve" smooth="yes"/>
      <point x="563" y="1361"/>
      <point x="399" y="1264"/>
      <point x="369" y="1149" type="qcurve" smooth="yes"/>
      <point x="337" y="1000" type="line"/>
      <point x="181" y="1000" type="line"/>
      <point x="181" y="1510" type="line"/>
      <point x="289" y="1510" type="line"/>
      <point x="322" y="1422" type="line"/>
      <point x="384" y="1461"/>
      <point x="587" y="1520"/>
      <point x="736" y="1520" type="qcurve" smooth="yes"/>
      <point x="1094" y="1520"/>
      <point x="1495" y="1097"/>
      <point x="1495" y="752" type="qcurve" smooth="yes"/>
      <point x="1495" y="423"/>
      <point x="1085" y="-31"/>
      <point x="712" y="-31" type="qcurve" smooth="yes"/>
      <point x="574" y="-31"/>
      <point x="363" y="31"/>
      <point x="306" y="67" type="qcurve"/>
      <point x="274" y="-21" type="line"/>
      <point x="166" y="-21" type="line"/>
      <point x="166" y="500" type="line"/>
      <point x="322" y="500" type="line"/>
      <point x="354" y="341" type="line" smooth="yes"/>
      <point x="377" y="231"/>
      <point x="545" y="129"/>
    </contour>
  </outline>
</glyph>
<glyph name="be" format="2">
  <advance width="1210"/>
  <unicode hex="0431"/>
  <outline>
    <contour>
      <point x="628" y="125" type="qcurve" smooth="yes"/>
      <point x="764" y="125"/>
      <point x="920" y="312"/>
      <point x="920" y="507" type="qcurve" smooth="yes"/>
      <point x="920" y="675"/>
      <point x="765" y="863"/>
      <point x="633" y="863" type="qcurve" smooth="yes"/>
      <point x="492" y="863"/>
      <point x="288" y="731"/>
      <point x="198" y="568" type="qcurve"/>
      <point x="154" y="718" type="line"/>
      <point x="233" y="850"/>
      <point x="496" y="1020"/>
      <point x="667" y="1020" type="qcurve" smooth="yes"/>
      <point x="887" y="1020"/>
      <point x="1146" y="754"/>
      <point x="1146" y="530" type="qcurve" smooth="yes"/>
      <point x="1146" y="271"/>
      <point x="870" y="-22"/>
      <point x="609" y="-22" type="qcurve" smooth="yes"/>
      <point x="350" y="-22"/>
      <point x="70" y="292"/>
      <point x="70" y="624" type="qcurve" smooth="yes"/>
      <point x="70" y="964"/>
      <point x="357" y="1395"/>
      <point x="682" y="1442" type="qcurve" smooth="yes"/>
      <point x="905" y="1474"/>
      <point x="991" y="1508"/>
      <point x="1001" y="1537" type="qcurve"/>
      <point x="1113" y="1537" type="line"/>
      <point x="1100" y="1424"/>
      <point x="925" y="1292"/>
      <point x="694" y="1265" type="qcurve" smooth="yes"/>
      <point x="529" y="1246"/>
      <point x="357" y="1177"/>
      <point x="309" y="1109" type="qcurve" smooth="yes"/>
      <point x="271" y="1056"/>
      <point x="242" y="884"/>
      <point x="241" y="765" type="qcurve"/>
      <point x="297" y="765" type="line"/>
      <point x="292" y="674"/>
      <point x="292" y="625"/>
      <point x="292" y="539" type="qcurve" smooth="yes"/>
      <point x="292" y="337"/>
      <point x="477" y="125"/>
    </contour>
  </outline>
</glyph>
<glyph name="ka" format="2">
  <advance width="1256"/>
  <unicode hex="043A"/>
  <guideline x="241" y="553" angle="90.0" identifier="lmgRx0QBdK"/>
  <guideline x="786" y="880" angle="0.0" identifier="nFoPGEsufr"/>
  <anchor x="657" y="0" name="bottom"/>
  <anchor x="657" y="1000" name="top"/>
  <outline>
    <contour>
      <point x="579" y="484" type="line"/>
      <point x="682" y="586" type="line"/>
      <point x="1079" y="115" type="line"/>
      <point x="1197" y="80" type="line"/>
      <point x="1197" y="0" type="line"/>
      <point x="898" y="0" type="line"/>
      <point x="886" y="79" type="line"/>
      <point x="895" y="111" type="line"/>
    </contour>
    <contour>
      <point x="358" y="567" type="line"/>
      <point x="587" y="564" type="line"/>
      <point x="883" y="880" type="line"/>
      <point x="716" y="920" type="line"/>
      <point x="716" y="1000" type="line"/>
      <point x="1162" y="1000" type="line"/>
      <point x="1162" y="921" type="line"/>
      <point x="1004" y="875" type="line"/>
      <point x="611" y="464" type="line"/>
      <point x="358" y="462" type="line"/>
    </contour>
    <contour>
      <point x="275" y="500" type="line"/>
      <point x="273" y="885" type="line"/>
      <point x="125" y="920" type="line"/>
      <point x="125" y="1000" type="line"/>
      <point x="581" y="1000" type="line"/>
      <point x="581" y="920" type="line"/>
      <point x="443" y="885" type="line"/>
      <point x="441" y="500" type="line"/>
      <point x="443" y="115" type="line"/>
      <point x="581" y="80" type="line"/>
      <point x="581" y="0" type="line"/>
      <point x="125" y="0" type="line"/>
      <point x="125" y="80" type="line"/>
      <point x="273" y="115" type="line"/>
    </contour>
  </outline>
</glyph>
<glyph name="en" format="2">
  <advance width="1360"/>
  <unicode hex="043D"/>
  <outline>
    <contour>
      <point x="355" y="618" type="line"/>
      <point x="679" y="615" type="line"/>
      <point x="1005" y="618" type="line"/>
      <point x="1005" y="476" type="line"/>
      <point x="679" y="478" type="line"/>
      <point x="355" y="476" type="line"/>
    </contour>
    <contour>
      <point x="230" y="526" type="line"/>
      <point x="228" y="880" type="line"/>
      <point x="80" y="915" type="line"/>
      <point x="80" y="1051" type="line"/>
      <point x="578" y="1051" type="line"/>
      <point x="578" y="915" type="line"/>
      <point x="440" y="880" type="line"/>
      <point x="438" y="526" type="line"/>
      <point x="440" y="171" type="line"/>
      <point x="578" y="136" type="line"/>
      <point x="578" y="0" type="line"/>
      <point x="80" y="0" type="line"/>
      <point x="80" y="136" type="line"/>
      <point x="228" y="171" type="line"/>
    </contour>
    <contour>
      <point x="1129" y="526" type="line"/>
      <point x="1131" y="171" type="line"/>
      <point x="1279" y="136" type="line"/>
      <point x="1279" y="0" type="line"/>
      <point x="782" y="0" type="line"/>
      <point x="782" y="136" type="line"/>
      <point x="920" y="171" type="line"/>
      <point x="922" y="526" type="line"/>
      <point x="920" y="880" type="line"/>
      <point x="782" y="915" type="line"/>
      <point x="782" y="1051" type="line"/>
      <point x="1279" y="1051" type="line"/>
      <point x="1279" y="915" type="line"/>
      <point x="1131" y="880" type="line"/>
    </contour>
  </outline>
</glyph>
<glyph name="te" format="2">
  <advance width="1088"/>
  <unicode hex="0442"/>
  <outline>
    <contour>
      <point x="798" y="136" type="line"/>
      <point x="798" y="0" type="line"/>
      <point x="290" y="0" type="line"/>
      <point x="290" y="136" type="line"/>
      <point x="438" y="171" type="line"/>
      <point x="440" y="488" type="line"/>
      <point x="438" y="908" type="line"/>
      <point x="231" y="908" type="line"/>
      <point x="185" y="643" type="line"/>
      <point x="49" y="643" type="line"/>
      <point x="49" y="1051" type="line"/>
      <point x="1039" y="1051" type="line"/>
      <point x="1039" y="643" type="line"/>
      <point x="903" y="643" type="line"/>
      <point x="857" y="908" type="line"/>
      <point x="650" y="908" type="line"/>
      <point x="648" y="488" type="line"/>
      <point x="650" y="171" type="line"/>
    </contour>
  </outline>
</glyph>
<glyph name="tse" format="2">
  <advance width="1362"/>
  <unicode hex="0446"/>
  <outline>
    <contour>
      <point x="230" y="526" type="line"/>
      <point x="228" y="880" type="line"/>
      <point x="80" y="915" type="line"/>
      <point x="80" y="1051" type="line"/>
      <point x="578" y="1051" type="line"/>
      <point x="578" y="915" type="line"/>
      <point x="440" y="880" type="line"/>
      <point x="438" y="526" type="line"/>
      <point x="440" y="143" type="line"/>
      <point x="910" y="143" type="line"/>
      <point x="912" y="526" type="line"/>
      <point x="910" y="880" type="line"/>
      <point x="772" y="915" type="line"/>
      <point x="772" y="1051" type="line"/>
      <point x="1269" y="1051" type="line"/>
      <point x="1269" y="915" type="line"/>
      <point x="1121" y="880" type="line"/>
      <point x="1119" y="526" type="line"/>
      <point x="1122" y="199" type="line"/>
      <point x="1293" y="199" type="line"/>
      <point x="1303" y="-350" type="line"/>
      <point x="1176" y="-350" type="line"/>
      <point x="1087" y="0" type="line"/>
      <point x="80" y="0" type="line"/>
      <point x="80" y="136" type="line"/>
      <point x="228" y="171" type="line"/>
    </contour>
  </outline>
</glyph>
<glyph name="soft" format="2">
  <advance width="1141"/>
  <unicode hex="044C"/>
  <outline>
    <contour>
      <point x="440" y="131" type="line"/>
      <point x="628" y="131" type="line" smooth="yes"/>
      <point x="753" y="131"/>
      <point x="854" y="250"/>
      <point x="854" y="340" type="qcurve" smooth="yes"/>
      <point x="854" y="427"/>
      <point x="753" y="541"/>
      <point x="628" y="541" type="qcurve" smooth="yes"/>
      <point x="355" y="541" type="line"/>
      <point x="355" y="670" type="line"/>
      <point x="644" y="670" type="line" smooth="yes"/>
      <point x="854" y="670"/>
      <point x="1081" y="492"/>
      <point x="1081" y="340" type="qcurve" smooth="yes"/>
      <point x="1081" y="186"/>
      <point x="854" y="0"/>
      <point x="644" y="0" type="qcurve" smooth="yes"/>
      <point x="80" y="0" type="line"/>
      <point x="80" y="136" type="line"/>
      <point x="228" y="171" type="line"/>
      <point x="230" y="525" type="line"/>
      <point x="228" y="880" type="line"/>
      <point x="80" y="915" type="line"/>
      <point x="80" y="1051" type="line"/>
      <point x="588" y="1051" type="line"/>
      <point x="588" y="915" type="line"/>
      <point x="440" y="880" type="line"/>
      <point x="438" y="531" type="line"/>
    </contour>
  </outline>
</glyph>
<glyph name="ya" format="2">
  <advance width="1191"/>
  <unicode hex="044F"/>
  <guideline x="302" y="625" angle="90.0" identifier="XQgmgmO2xX"/>
  <guideline x="953" y="554" angle="90.0" identifier="MobSutKfE9"/>
  <guideline x="627" y="553" angle="90.0" identifier="l2g0Cp9ZiO"/>
  <anchor x="541" y="0" name="bottom"/>
  <anchor x="570" y="1000" name="top"/>
  <outline>
    <contour>
      <point x="748" y="895" type="line"/>
      <point x="570" y="895" type="line" smooth="yes"/>
      <point x="445" y="895"/>
      <point x="344" y="782"/>
      <point x="344" y="696" type="qcurve" smooth="yes"/>
      <point x="344" y="612"/>
      <point x="445" y="504"/>
      <point x="570" y="504" type="qcurve" smooth="yes"/>
      <point x="833" y="504" type="line"/>
      <point x="833" y="404" type="line"/>
      <point x="503" y="399" type="line"/>
      <point x="467" y="410" type="line"/>
      <point x="323" y="438"/>
      <point x="158" y="568"/>
      <point x="158" y="696" type="qcurve" smooth="yes"/>
      <point x="158" y="833"/>
      <point x="372" y="1000"/>
      <point x="570" y="1000" type="qcurve" smooth="yes"/>
      <point x="1066" y="1000" type="line"/>
      <point x="1066" y="920" type="line"/>
      <point x="918" y="885" type="line"/>
      <point x="916" y="500" type="line"/>
      <point x="918" y="115" type="line"/>
      <point x="1066" y="80" type="line"/>
      <point x="1066" y="0" type="line"/>
      <point x="610" y="0" type="line"/>
      <point x="610" y="80" type="line"/>
      <point x="748" y="115" type="line"/>
      <point x="750" y="500" type="line"/>
    </contour>
    <contour>
      <point x="575" y="434" type="line"/>
      <point x="365" y="111" type="line"/>
      <point x="374" y="79" type="line"/>
      <point x="362" y="0" type="line"/>
      <point x="65" y="0" type="line"/>
      <point x="65" y="80" type="line"/>
      <point x="194" y="115" type="line"/>
      <point x="422" y="459" type="line"/>
    </contour>
  </outline>
</glyph>
<glyph name="nje" format="2">
  <advance width="1833"/>
  <unicode hex="045A"/>
  <outline>
    <contour>
      <point x="355" y="643" type="line"/>
      <point x="679" y="640" type="line"/>
      <point x="1005" y="643" type="line"/>
      <point x="1005" y="500" type="line"/>
      <point x="679" y="503" type="line"/>
      <point x="355" y="500" type="line"/>
    </contour>
    <contour>
      <point x="230" y="527" type="line"/>
      <point x="228" y="880" type="line"/>
      <point x="80" y="915" type="line"/>
      <point x="80" y="1051" type="line"/>
      <point x="578" y="1051" type="line"/>
      <point x="578" y="915" type="line"/>
      <point x="440" y="880" type="line"/>
      <point x="438" y="527" type="line"/>
      <point x="440" y="171" type="line"/>
      <point x="578" y="136" type="line"/>
      <point x="578" y="0" type="line"/>
      <point x="80" y="0" type="line"/>
      <point x="80" y="136" type="line"/>
      <point x="228" y="171" type="line"/>
    </contour>
    <contour>
      <point x="1131" y="131" type="line"/>
      <point x="1319" y="131" type="line" smooth="yes"/>
      <point x="1444" y="131"/>
      <point x="1545" y="244"/>
      <point x="1545" y="330" type="qcurve" smooth="yes"/>
      <point x="1545" y="413"/>
      <point x="1444" y="518"/>
      <point x="1319" y="518" type="qcurve" smooth="yes"/>
      <point x="1046" y="518" type="line"/>
      <point x="1046" y="648" type="line"/>
      <point x="1336" y="648" type="line" smooth="yes"/>
      <point x="1546" y="648"/>
      <point x="1773" y="476"/>
      <point x="1773" y="331" type="qcurve" smooth="yes"/>
      <point x="1773" y="181"/>
      <point x="1546" y="0"/>
      <point x="1336" y="0" type="qcurve" smooth="yes"/>
      <point x="782" y="0" type="line"/>
      <point x="782" y="136" type="line"/>
      <point x="920" y="171" type="line"/>
      <point x="922" y="527" type="line"/>
      <point x="920" y="880" type="line"/>
      <point x="782" y="915" type="line"/>
      <point x="782" y="1051" type="line"/>
      <point x="1279" y="1051" type="line"/>
      <point x="1279" y="915" type="line"/>
      <point x="1131" y="880" type="line"/>
      <point x="1129" y="527" type="line"/>
    </contour>
  </outline>
</glyph>
<glyph name="Gheup" format="2">
  <advance width="1234"/>
  <unicode hex="0490"/>
  <outline>
    <contour>
      <point x="959" y="1500" type="line"/>
      <point x="1026" y="1828" type="line"/>
      <point x="1148" y="1828" type="line"/>
      <point x="1138" y="1382" type="line"/>
      <point x="545" y="1382" type="line"/>
      <point x="515" y="1362" type="line"/>
      <point x="513" y="760" type="line"/>
      <point x="515" y="132" type="line"/>
      <point x="743" y="100" type="line"/>
      <point x="743" y="0" type="line"/>
      <point x="127" y="0" type="line"/>
      <point x="127" y="100" type="line"/>
      <point x="335" y="137" type="line"/>
      <point x="337" y="760" type="line"/>
      <point x="335" y="1352" type="line"/>
      <point x="127" y="1386" type="line"/>
      <point x="127" y="1500" type="line"/>
    </contour>
  </outline>
</glyph>
<glyph name="Kadescender" format="2">
  <advance width="1576"/>
  <unicode hex="049A"/>
  <outline>
    <contour>
      <point x="82" y="0" type="line"/>
      <point x="82" y="150" type="line"/>
      <point x="290" y="185" type="line"/>
      <point x="292" y="754" type="line"/>
      <point x="290" y="1302" type="line"/>
      <point x="82" y="1336" type="line"/>
      <point x="82" y="1500" type="line"/>
      <point x="712" y="1500" type="line"/>
      <point x="712" y="1336" type="line"/>
      <point x="514" y="1302" type="line"/>
      <point x="512" y="754" type="line"/>
      <point x="514" y="185" type="line"/>
      <point x="722" y="150" type="line"/>
      <point x="722" y="0" type="line"/>
    </contour>
    <contour>
      <point x="429" y="697" type="line"/>
      <point x="429" y="879" type="line"/>
      <point x="734" y="875" type="line"/>
      <point x="1058" y="1291" type="line"/>
      <point x="948" y="1336" type="line"/>
      <point x="948" y="1500" type="line"/>
      <point x="1494" y="1500" type="line"/>
      <point x="1494" y="1336" type="line"/>
      <point x="1276" y="1288" type="line"/>
      <point x="831" y="739" type="line"/>
      <point x="806" y="697" type="line"/>
    </contour>
    <contour>
      <point x="690" y="751" type="line"/>
      <point x="874" y="859" type="line"/>
      <point x="1463" y="108" type="line"/>
      <point x="1463" y="0" type="line"/>
      <point x="1005" y="0" type="line"/>
      <point x="1005" y="150" type="line"/>
      <point x="1134" y="185" type="line"/>
    </contour>
    <contour>
      <point x="1312" y="158" type="line"/>
      <point x="1612" y="158" type="line"/>
      <point x="1622" y="-358" type="line"/>
      <point x="1458" y="-358" type="line"/>
      <point x="1389" y="0" type="line"/>
      <point x="1362" y="0" type="line"/>
    </contour>
  </outline>
</glyph>
<glyph name="kaverticalstrokecyr" format="2">
  <advance width="1419"/>
  <unicode hex="049D"/>
  <outline>
    <contour>
      <point x="230" y="526" type="line"/>
      <point x="228" y="880" type="line"/>
      <point x="80" y="915" type="line"/>
      <point x="80" y="1051" type="line"/>
      <point x="578" y="1051" type="line"/>
      <point x="578" y="915" type="line"/>
      <point x="440" y="880" type="line"/>
      <point x="438" y="526" type="line"/>
      <point x="440" y="171" type="line"/>
      <point x="578" y="136" type="line"/>
      <point x="578" y="0" type="line"/>
      <point x="80" y="0" type="line"/>
      <point x="80" y="136" type="line"/>
      <point x="228" y="171" type="line"/>
    </contour>
    <contour>
      <point x="639" y="611" type="line"/>
      <point x="765" y="610" type="line"/>
      <point x="979" y="875" type="line"/>
      <point x="865" y="909" type="line"/>
      <point x="865" y="1051" type="line"/>
      <point x="1349" y="1051" type="line"/>
      <point x="1349" y="915" type="line"/>
      <point x="1140" y="870" type="line"/>
      <point x="824" y="496" type="line"/>
      <point x="829" y="472" type="line"/>
      <point x="639" y="470" type="line"/>
    </contour>
    <contour>
      <point x="741" y="517" type="line"/>
      <point x="903" y="615" type="line"/>
      <point x="1233" y="171" type="line"/>
      <point x="1396" y="136" type="line"/>
      <point x="1396" y="0" type="line"/>
      <point x="1047" y="0" type="line"/>
      <point x="1000" y="135" type="line"/>
      <point x="999" y="167" type="line"/>
    </contour>
    <contour>
      <point x="697" y="243" type="line"/>
      <point x="581" y="243" type="line"/>
      <point x="581" y="828" type="line"/>
      <point x="697" y="828" type="line"/>
    </contour>
  </outline>
</glyph>
<glyph name="Tedescender-cy" format="2">
  <advance width="1332"/>
  <unicode hex="04AC"/>
  <outline>
    <contour>
      <point x="778" y="158" type="line"/>
      <point x="1011" y="158" type="line"/>
      <point x="1021" y="-358" type="line"/>
      <point x="857" y="-358" type="line"/>
      <point x="788" y="0" type="line"/>
      <point x="335" y="0" type="line"/>
      <point x="335" y="150" type="line"/>
      <point x="554" y="186" type="line"/>
      <point x="556" y="754" type="line"/>
      <point x="554" y="1313" type="line"/>
      <point x="545" y="1333" type="line"/>
      <point x="213" y="1333" type="line"/>
      <point x="178" y="983" type="line"/>
      <point x="26" y="983" type="line"/>
      <point x="26" y="1500" type="line"/>
      <point x="1306" y="1500" type="line"/>
      <point x="1306" y="983" type="line"/>
      <point x="1154" y="983" type="line"/>
      <point x="1119" y="1333" type="line"/>
      <point x="797" y="1333" type="line"/>
      <point x="778" y="1313" type="line"/>
      <point x="776" y="754" type="line"/>
    </contour>
  </outline>
</glyph>
<glyph name="ustraight" format="2">
  <advance width="1086"/>
  <unicode hex="04AF"/>
  <anchor x="556" y="-63" name="center"/>
  <outline>
    <contour>
      <point x="-10" y="905" type="line"/>
      <point x="-10" y="1051" type="line"/>
      <point x="456" y="1051" type="line"/>
      <point x="456" y="905" type="line"/>
      <point x="340" y="868" type="line"/>
      <point x="450" y="502" type="line"/>
      <point x="519" y="283" type="line"/>
      <point x="554" y="169" type="line"/>
      <point x="564" y="169" type="line"/>
      <point x="601" y="283" type="line"/>
      <point x="674" y="506" type="line"/>
      <point x="783" y="875" type="line"/>
      <point x="664" y="905" type="line"/>
      <point x="664" y="1051" type="line"/>
      <point x="1116" y="1051" type="line"/>
      <point x="1116" y="905" type="line"/>
      <point x="948" y="870" type="line"/>
      <point x="806" y="445" type="line"/>
      <point x="638" y="-34" type="line"/>
      <point x="639" y="-309" type="line"/>
      <point x="787" y="-344" type="line"/>
      <point x="787" y="-480" type="line"/>
      <point x="279" y="-480" type="line"/>
      <point x="279" y="-344" type="line"/>
      <point x="427" y="-309" type="line"/>
      <point x="428" y="0" type="line"/>
      <point x="278" y="428" type="line"/>
      <point x="128" y="870" type="line"/>
    </contour>
  </outline>
</glyph>
<glyph name="hadescender" format="2">
  <advance width="1133"/>
  <unicode hex="04B3"/>
  <outline>
    <contour>
      <point x="897" y="105" type="line"/>
      <point x="1088" y="105" type="line"/>
      <point x="1098" y="-318" type="line"/>
      <point x="1006" y="-318" type="line"/>
      <point x="917" y="0" type="line"/>
      <point x="897" y="0" type="line"/>
    </contour>
    <contour>
      <point x="61" y="0" type="line"/>
      <point x="61" y="80" type="line"/>
      <point x="219" y="115" type="line"/>
      <point x="535" y="541" type="line"/>
      <point x="535" y="541" type="line"/>
      <point x="772" y="880" type="line"/>
      <point x="635" y="910" type="line"/>
      <point x="635" y="1000" type="line"/>
      <point x="1051" y="1000" type="line"/>
      <point x="1051" y="910" type="line"/>
      <point x="903" y="875" type="line"/>
      <point x="599" y="471" type="line"/>
      <point x="599" y="471" type="line"/>
      <point x="350" y="110" type="line"/>
      <point x="477" y="80" type="line"/>
      <point x="477" y="0" type="line"/>
    </contour>
    <contour>
      <point x="65" y="910" type="line"/>
      <point x="65" y="1000" type="line"/>
      <point x="487" y="1000" type="line"/>
      <point x="487" y="910" type="line"/>
      <point x="364" y="873" type="line"/>
      <point x="613" y="556" type="line"/>
      <point x="968" y="105" type="line"/>
      <point x="968" y="0" type="line"/>
      <point x="656" y="0" type="line"/>
      <point x="656" y="80" type="line"/>
      <point x="779" y="117" type="line"/>
      <point x="510" y="453" type="line"/>
      <point x="183" y="875" type="line"/>
    </contour>
  </outline>
</glyph>
<glyph name="Cheverticalstroke-cy" format="2">
  <advance width="1766"/>
  <unicode hex="04B8"/>
  <outline>
    <contour>
      <point x="943" y="1168" type="line"/>
      <point x="943" y="263" type="line"/>
      <point x="793" y="263" type="line"/>
      <point x="793" y="1168" type="line"/>
    </contour>
    <contour>
      <point x="1024" y="0" type="line"/>
      <point x="1024" y="150" type="line"/>
      <point x="1252" y="185" type="line"/>
      <point x="1254" y="754" type="line"/>
      <point x="1252" y="1302" type="line"/>
      <point x="1044" y="1336" type="line"/>
      <point x="1044" y="1500" type="line"/>
      <point x="1684" y="1500" type="line"/>
      <point x="1684" y="1336" type="line"/>
      <point x="1476" y="1302" type="line"/>
      <point x="1474" y="754" type="line"/>
      <point x="1476" y="185" type="line"/>
      <point x="1684" y="150" type="line"/>
      <point x="1684" y="0" type="line"/>
    </contour>
    <contour>
      <point x="50" y="1336" type="line"/>
      <point x="50" y="1500" type="line"/>
      <point x="690" y="1500" type="line"/>
      <point x="690" y="1336" type="line"/>
      <point x="483" y="1302" type="line"/>
      <point x="482" y="1097" type="line" smooth="yes"/>
      <point x="480" y="902"/>
      <point x="686" y="747"/>
      <point x="912" y="747" type="qcurve" smooth="yes"/>
      <point x="1032" y="747"/>
      <point x="1234" y="784"/>
      <point x="1342" y="821" type="qcurve"/>
      <point x="1342" y="645" type="line"/>
      <point x="1227" y="605"/>
      <point x="1014" y="563"/>
      <point x="850" y="563" type="qcurve" smooth="yes"/>
      <point x="568" y="563"/>
      <point x="258" y="778"/>
      <point x="258" y="1055" type="qcurve" smooth="yes"/>
      <point x="258" y="1302" type="line"/>
    </contour>
  </outline>
</glyph>
<glyph name="Schwacyr" format="2">
  <advance width="1612"/>
  <unicode hex="04D8"/>
  <outline>
    <contour>
      <point x="85" y="808" type="qcurve"/>
      <point x="819" y="800" type="line"/>
      <point x="1392" y="808" type="line"/>
      <point x="1392" y="648" type="line"/>
      <point x="819" y="648" type="line"/>
      <point x="314" y="648" type="line"/>
      <point x="314" y="641" type="line" smooth="yes"/>
      <point x="314" y="458"/>
      <point x="557" y="133"/>
      <point x="787" y="133" type="qcurve" smooth="yes"/>
      <point x="1055" y="133"/>
      <point x="1296" y="451"/>
      <point x="1296" y="745" type="qcurve" smooth="yes"/>
      <point x="1296" y="1012"/>
      <point x="998" y="1361"/>
      <point x="715" y="1361" type="qcurve" smooth="yes"/>
      <point x="562" y="1361"/>
      <point x="373" y="1264"/>
      <point x="343" y="1149" type="qcurve" smooth="yes"/>
      <point x="311" y="1000" type="line"/>
      <point x="197" y="1000" type="line"/>
      <point x="197" y="1510" type="line"/>
      <point x="291" y="1510" type="line"/>
      <point x="323" y="1422" type="line"/>
      <point x="387" y="1461"/>
      <point x="596" y="1520"/>
      <point x="750" y="1520" type="qcurve" smooth="yes"/>
      <point x="1119" y="1520"/>
      <point x="1532" y="1097"/>
      <point x="1532" y="752" type="qcurve" smooth="yes"/>
      <point x="1532" y="423"/>
      <point x="1144" y="-31"/>
      <point x="789" y="-31" type="qcurve" smooth="yes"/>
      <point x="459" y="-31"/>
      <point x="80" y="375"/>
      <point x="80" y="700" type="qcurve" smooth="yes"/>
      <point x="80" y="728"/>
      <point x="82" y="783"/>
    </contour>
  </outline>
</glyph>
<glyph name="Germandbls" format="2">
  <advance width="1507"/>
  <unicode hex="1E9E"/>
  <outline>
    <contour>
      <point x="156" y="760" type="line"/>
      <point x="154" y="1072" type="line" smooth="yes"/>
      <point x="153" y="1315"/>
      <point x="432" y="1524"/>
      <point x="637" y="1524" type="qcurve" smooth="yes"/>
      <point x="754" y="1524"/>
      <point x="911" y="1506"/>
      <point x="1003" y="1500" type="qcurve"/>
      <point x="1005" y="1386" type="line"/>
      <point x="893" y="1386"/>
      <point x="758" y="1269"/>
      <point x="758" y="1171" type="qcurve" smooth="yes"/>
      <point x="758" y="1081"/>
      <point x="887" y="953"/>
      <point x="1078" y="876" type="qcurve" smooth="yes"/>
      <point x="1250" y="807"/>
      <point x="1481" y="582"/>
      <point x="1481" y="417" type="qcurve" smooth="yes"/>
      <point x="1481" y="224"/>
      <point x="1248" y="-20"/>
      <point x="1085" y="-20" type="qcurve" smooth="yes"/>
      <point x="956" y="-20"/>
      <point x="760" y="54"/>
      <point x="701" y="113" type="qcurve"/>
      <point x="654" y="0" type="line"/>
      <point x="550" y="0" type="line"/>
      <point x="550" y="484" type="line"/>
      <point x="666" y="484" type="line"/>
      <point x="684" y="379" type="line" smooth="yes"/>
      <point x="708" y="234"/>
      <point x="897" y="102"/>
      <point x="1022" y="102" type="qcurve" smooth="yes"/>
      <point x="1158" y="102"/>
      <point x="1299" y="254"/>
      <point x="1299" y="375" type="qcurve" smooth="yes"/>
      <point x="1299" y="511"/>
      <point x="1176" y="650"/>
      <point x="980" y="725" type="qcurve" smooth="yes"/>
      <point x="797" y="795"/>
      <point x="598" y="975"/>
      <point x="598" y="1134" type="qcurve" smooth="yes"/>
      <point x="598" y="1209"/>
      <point x="647" y="1335"/>
      <point x="691" y="1382" type="qcurve"/>
      <point x="633" y="1382" type="line" smooth="yes"/>
      <point x="504" y="1382"/>
      <point x="379" y="1227"/>
      <point x="378" y="1019" type="qcurve" smooth="yes"/>
      <point x="376" y="760" type="line"/>
      <point x="378" y="-298" type="line"/>
      <point x="586" y="-330" type="line"/>
      <point x="586" y="-480" type="line"/>
      <point x="-24" y="-480" type="line"/>
      <point x="-24" y="-330" type="line"/>
      <point x="154" y="-293" type="line"/>
    </contour>
  </outline>
</glyph>
<glyph name="endash" format="2">
  <advance width="1114"/>
  <unicode hex="2013"/>
  <outline>
    <contour>
      <point x="45" y="562" type="line"/>
      <point x="45" y="700" type="line"/>
      <point x="548" y="702" type="line"/>
      <point x="1069" y="700" type="line"/>
      <point x="1069" y="562" type="line"/>
      <point x="548" y="556" type="line"/>
    </contour>
  </outline>
</glyph>
<glyph name="horizontalbar" format="2">
  <advance width="746"/>
  <unicode hex="2015"/>
  <outline>
    <contour>
      <point x="315" y="636" type="line"/>
      <point x="53" y="636" type="line"/>
      <point x="65" y="782" type="line"/>
      <point x="359" y="782" type="line"/>
      <point x="670" y="782" type="line"/>
      <point x="670" y="636" type="line"/>
    </contour>
  </outline>
</glyph>
<glyph name="quoteright" format="2">
  <advance width="690"/>
  <unicode hex="2019"/>
  <outline>
    <contour>
      <point x="170" y="1062" type="line"/>
      <point x="210" y="1092"/>
      <point x="314" y="1210"/>
      <point x="329" y="1277" type="qcurve"/>
      <point x="258" y="1277"/>
      <point x="178" y="1352"/>
      <point x="178" y="1411" type="qcurve" smooth="yes"/>
      <point x="178" y="1469"/>
      <point x="259" y="1546"/>
      <point x="322" y="1546" type="qcurve" smooth="yes"/>
      <point x="381" y="1546"/>
      <point x="477" y="1450"/>
      <point x="477" y="1373" type="qcurve" smooth="yes"/>
      <point x="477" y="1251"/>
      <point x="318" y="1063"/>
      <point x="213" y="1013" type="qcurve"/>
    </contour>
  </outline>
</glyph>
<glyph name="quotedblright" format="2">
  <advance width="1081"/>
  <unicode hex="201D"/>
  <outline>
    <contour>
      <point x="129" y="1045" type="line"/>
      <point x="168" y="1074"/>
      <point x="268" y="1184"/>
      <point x="286" y="1253" type="qcurve"/>
      <point x="213" y="1255"/>
      <point x="132" y="1335"/>
      <point x="132" y="1397" type="qcurve" smooth="yes"/>
      <point x="132" y="1460"/>
      <point x="221" y="1546"/>
      <point x="290" y="1546" type="qcurve" smooth="yes"/>
      <point x="354" y="1546"/>
      <point x="457" y="1445"/>
      <point x="457" y="1361" type="qcurve" smooth="yes"/>
      <point x="457" y="1229"/>
      <point x="284" y="1036"/>
      <point x="181" y="986" type="qcurve"/>
    </contour>
    <contour>
      <point x="584" y="1045" type="line"/>
      <point x="623" y="1074"/>
      <point x="723" y="1184"/>
      <point x="742" y="1253" type="qcurve"/>
      <point x="669" y="1255"/>
      <point x="588" y="1335"/>
      <point x="588" y="1397" type="qcurve" smooth="yes"/>
      <point x="588" y="1460"/>
      <point x="676" y="1546"/>
      <point x="745" y="1546" type="qcurve" smooth="yes"/>
      <point x="810" y="1546"/>
      <point x="913" y="1445"/>
      <point x="913" y="1361" type="qcurve" smooth="yes"/>
      <point x="913" y="1229"/>
      <point x="740" y="1036"/>
      <point x="636" y="986" type="qcurve"/>
    </contour>
  </outline>
</glyph>
<glyph name="quotedblbase" format="2">
  <advance width="1120"/>
  <unicode hex="201E"/>
  <outline>
    <contour>
      <point x="170" y="-229" type="line"/>
      <point x="210" y="-199"/>
      <point x="314" y="-81"/>
      <point x="329" y="-14" type="qcurve"/>
      <point x="258" y="-14"/>
      <point x="178" y="61"/>
      <point x="178" y="120" type="qcurve" smooth="yes"/>
      <point x="178" y="178"/>
      <point x="259" y="255"/>
      <point x="322" y="255" type="qcurve" smooth="yes"/>
      <point x="381" y="255"/>
      <point x="477" y="159"/>
      <point x="477" y="82" type="qcurve" smooth="yes"/>
      <point x="477" y="-40"/>
      <point x="318" y="-228"/>
      <point x="213" y="-278" type="qcurve"/>
    </contour>
    <contour>
      <point x="600" y="-229" type="line"/>
      <point x="640" y="-199"/>
      <point x="744" y="-81"/>
      <point x="759" y="-14" type="qcurve"/>
      <point x="688" y="-14"/>
      <point x="608" y="61"/>
      <point x="608" y="120" type="qcurve" smooth="yes"/>
      <point x="608" y="178"/>
      <point x="689" y="255"/>
      <point x="752" y="255" type="qcurve" smooth="yes"/>
      <point x="811" y="255"/>
      <point x="907" y="159"/>
      <point x="907" y="82" type="qcurve" smooth="yes"/>
      <point x="907" y="-40"/>
      <point x="748" y="-228"/>
      <point x="643" y="-278" type="qcurve"/>
    </contour>
  </outline>
</glyph>
<glyph name="daggerdbl" format="2">
  <advance width="1086"/>
  <unicode hex="2021"/>
  <outline>
    <contour>
      <point x="536" y="-540" type="line"/>
      <point x="458" y="-58" type="line"/>
      <point x="482" y="550" type="line"/>
      <point x="480" y="830" type="line"/>
      <point x="448" y="1438" type="line"/>
      <point x="498" y="1503" type="line"/>
      <point x="578" y="1506" type="line"/>
      <point x="624" y="1438" type="line"/>
      <point x="600" y="830" type="line"/>
      <point x="602" y="550" type="line"/>
      <point x="624" y="-58" type="line"/>
      <point x="556" y="-540" type="line"/>
    </contour>
    <contour>
      <point x="129" y="852" type="line"/>
      <point x="129" y="1000" type="line"/>
      <point x="542" y="992" type="line"/>
      <point x="953" y="1000" type="line"/>
      <point x="953" y="852" type="line"/>
      <point x="542" y="856" type="line"/>
    </contour>
    <contour>
      <point x="133" y="423" type="line"/>
      <point x="133" y="571" type="line"/>
      <point x="546" y="563" type="line"/>
      <point x="957" y="571" type="line"/>
      <point x="957" y="423" type="line"/>
      <point x="546" y="427" type="line"/>
    </contour>
  </outline>
</glyph>
<glyph name="minute" format="2">
  <advance width="744"/>
  <unicode hex="2032"/>
  <outline>
    <contour>
      <point x="190" y="986" type="line"/>
      <point x="403" y="1455" type="line" smooth="yes"/>
      <point x="422" y="1497"/>
      <point x="509" y="1542"/>
      <point x="562" y="1512" type="qcurve" smooth="yes"/>
      <point x="614" y="1484"/>
      <point x="626" y="1382"/>
      <point x="596" y="1348" type="qcurve" smooth="yes"/>
      <point x="249" y="964" type="line"/>
    </contour>
  </outline>
</glyph>
<glyph name="second" format="2">
  <advance width="1124"/>
  <unicode hex="2033"/>
  <outline>
    <contour>
      <point x="192" y="996" type="line"/>
      <point x="403" y="1456" type="line" smooth="yes"/>
      <point x="422" y="1498"/>
      <point x="509" y="1543"/>
      <point x="562" y="1513" type="qcurve" smooth="yes"/>
      <point x="614" y="1485"/>
      <point x="626" y="1383"/>
      <point x="596" y="1349" type="qcurve" smooth="yes"/>
      <point x="249" y="965" type="line"/>
    </contour>
    <contour>
      <point x="572" y="996" type="line"/>
      <point x="783" y="1456" type="line" smooth="yes"/>
      <point x="802" y="1498"/>
      <point x="889" y="1543"/>
      <point x="942" y="1513" type="qcurve" smooth="yes"/>
      <point x="994" y="1485"/>
      <point x="1006" y="1383"/>
      <point x="976" y="1349" type="qcurve" smooth="yes"/>
      <point x="629" y="965" type="line"/>
    </contour>
  </outline>
</glyph>
<glyph name="fraction" format="2">
  <advance width="510"/>
  <unicode hex="2044"/>
  <outline>
    <contour>
      <point x="-384" y="30" type="line"/>
      <point x="774" y="1534" type="line"/>
      <point x="891" y="1460" type="line"/>
      <point x="-267" y="-44" type="line"/>
    </contour>
  </outline>
</glyph>
<glyph name="franc" format="2">
  <advance width="1150"/>
  <unicode hex="20A3"/>
  <outline>
    <contour>
      <point x="127" y="0" type="line"/>
      <point x="127" y="100" type="line"/>
      <point x="335" y="137" type="line"/>
      <point x="337" y="760" type="line"/>
      <point x="335" y="1352" type="line"/>
      <point x="127" y="1386" type="line"/>
      <point x="127" y="1500" type="line"/>
      <point x="1021" y="1500" type="line"/>
      <point x="1081" y="1150" type="line"/>
      <point x="971" y="1150" type="line"/>
      <point x="876" y="1382" type="line"/>
      <point x="545" y="1382" type="line"/>
      <point x="515" y="1362" type="line"/>
      <point x="513" y="772" type="line"/>
      <point x="515" y="132" type="line"/>
      <point x="743" y="100" type="line"/>
      <point x="743" y="0" type="line"/>
    </contour>
    <contour>
      <point x="425" y="731" type="line"/>
      <point x="425" y="833" type="line"/>
      <point x="820" y="840" type="line"/>
      <point x="855" y="982" type="line"/>
      <point x="965" y="982" type="line"/>
      <point x="965" y="586" type="line"/>
      <point x="855" y="586" type="line"/>
      <point x="820" y="724" type="line"/>
    </contour>
    <contour>
      <point x="101" y="331" type="line"/>
      <point x="71" y="457" type="line"/>
      <point x="835" y="457" type="line"/>
      <point x="805" y="331" type="line"/>
    </contour>
  </outline>
</glyph>
<glyph name="lira" format="2">
  <advance width="1162"/>
  <unicode hex="20A4"/>
  <outline>
    <contour>
      <point x="651" y="550" type="qcurve" smooth="yes"/>
      <point x="651" y="414"/>
      <point x="512" y="201"/>
      <point x="421" y="148" type="qcurve"/>
      <point x="429" y="115" type="line"/>
      <point x="829" y="108" type="line"/>
      <point x="963" y="372" type="line"/>
      <point x="1075" y="372" type="line"/>
      <point x="976" y="0" type="line"/>
      <point x="115" y="0" type="line"/>
      <point x="55" y="100" type="line"/>
      <point x="106" y="163" type="line"/>
      <point x="296" y="152"/>
      <point x="475" y="366"/>
      <point x="475" y="490" type="qcurve" smooth="yes"/>
      <point x="475" y="544"/>
      <point x="401" y="676"/>
      <point x="351" y="747" type="qcurve" smooth="yes"/>
      <point x="284" y="842"/>
      <point x="155" y="1039"/>
      <point x="155" y="1146" type="qcurve" smooth="yes"/>
      <point x="155" y="1279"/>
      <point x="394" y="1501"/>
      <point x="574" y="1501" type="qcurve" smooth="yes"/>
      <point x="737" y="1501"/>
      <point x="926" y="1407"/>
      <point x="1007" y="1328" type="qcurve"/>
      <point x="931" y="1222" type="line"/>
      <point x="873" y="1280"/>
      <point x="712" y="1371"/>
      <point x="591" y="1371" type="qcurve" smooth="yes"/>
      <point x="459" y="1371"/>
      <point x="324" y="1246"/>
      <point x="324" y="1163" type="qcurve" smooth="yes"/>
      <point x="324" y="1087"/>
      <point x="438" y="923"/>
      <point x="503" y="836" type="qcurve" smooth="yes"/>
      <point x="560" y="759"/>
      <point x="651" y="609"/>
    </contour>
    <contour>
      <point x="176" y="521" type="line"/>
      <point x="152" y="652" type="line"/>
      <point x="886" y="652" type="line"/>
      <point x="856" y="521" type="line"/>
    </contour>
    <contour>
      <point x="136" y="786" type="line"/>
      <point x="112" y="917" type="line"/>
      <point x="936" y="917" type="line"/>
      <point x="906" y="786" type="line"/>
    </contour>
  </outline>
</glyph>
<glyph name="Euro" format="2">
  <advance width="1144"/>
  <unicode hex="20AC"/>
  <outline>
    <contour>
      <point x="204" y="746" type="qcurve" smooth="yes"/>
      <point x="204" y="1147"/>
      <point x="540" y="1520"/>
      <point x="770" y="1520" type="qcurve" smooth="yes"/>
      <point x="874" y="1520"/>
      <point x="1020" y="1445"/>
      <point x="1077" y="1378" type="qcurve"/>
      <point x="1011" y="1251" type="line"/>
      <point x="964" y="1299"/>
      <point x="873" y="1340"/>
      <point x="792" y="1340" type="qcurve" smooth="yes"/>
      <point x="625" y="1340"/>
      <point x="430" y="1079"/>
      <point x="431" y="772" type="qcurve" smooth="yes"/>
      <point x="432" y="474"/>
      <point x="638" y="135"/>
      <point x="812" y="135" type="qcurve" smooth="yes"/>
      <point x="877" y="135"/>
      <point x="1008" y="195"/>
      <point x="1052" y="250" type="qcurve"/>
      <point x="1107" y="133" type="line"/>
      <point x="1051" y="54"/>
      <point x="891" y="-30"/>
      <point x="747" y="-30" type="qcurve" smooth="yes"/>
      <point x="532" y="-30"/>
      <point x="204" y="345"/>
    </contour>
    <contour>
      <point x="70" y="847" type="line"/>
      <point x="94" y="1005" type="line"/>
      <point x="939" y="1005" type="line"/>
      <point x="969" y="847" type="line"/>
    </contour>
    <contour>
      <point x="53" y="520" type="line"/>
      <point x="49" y="678" type="line"/>
      <point x="958" y="678" type="line"/>
      <point x="928" y="520" type="line"/>
    </contour>
  </outline>
</glyph>
<glyph name="bulletoperator" format="2">
  <advance width="1114"/>
  <unicode hex="2219"/>
  <outline>
    <contour>
      <point x="413" y="644" type="qcurve" smooth="yes"/>
      <point x="413" y="702"/>
      <point x="494" y="788"/>
      <point x="557" y="788" type="qcurve" smooth="yes"/>
      <point x="620" y="788"/>
      <point x="701" y="702"/>
      <point x="701" y="644" type="qcurve" smooth="yes"/>
      <point x="701" y="587"/>
      <point x="620" y="501"/>
      <point x="557" y="501" type="qcurve" smooth="yes"/>
      <point x="494" y="501"/>
      <point x="413" y="587"/>
    </contour>
  </outline>
</glyph>
<glyph name="leftanglebracket" format="2">
  <advance width="1073"/>
  <unicode hex="27E8"/>
  <outline>
    <contour>
      <point x="940" y="1518" type="line"/>
      <point x="1022" y="1440" type="line"/>
      <point x="240" y="710" type="line"/>
      <point x="1028" y="-83" type="line"/>
      <point x="926" y="-177" type="line"/>
      <point x="69" y="622" type="line"/>
      <point x="69" y="801" type="line"/>
    </contour>
  </outline>
</glyph>
<glyph name="fl" format="2">
  <advance width="1350"/>
  <unicode hex="FB02"/>
  <outline>
    <contour>
      <point x="99" y="0" type="line"/>
      <point x="99" y="80" type="line"/>
      <point x="267" y="115" type="line"/>
      <point x="269" y="527" type="line"/>
      <point x="266" y="860" type="line"/>
      <point x="113" y="872" type="line"/>
      <point x="103" y="966" type="line"/>
      <point x="268" y="984" type="line"/>
      <point x="272" y="1323" type="line" smooth="yes"/>
      <point x="273" y="1422"/>
      <point x="405" y="1537"/>
      <point x="505" y="1537" type="qcurve" smooth="yes"/>
      <point x="538" y="1537"/>
      <point x="614" y="1529"/>
      <point x="643" y="1523" type="qcurve" smooth="yes"/>
      <point x="715" y="1507" type="line"/>
      <point x="1021" y="1534" type="line"/>
      <point x="1058" y="1532" type="line"/>
      <point x="1081" y="1501" type="line"/>
      <point x="1079" y="527" type="line"/>
      <point x="1081" y="115" type="line"/>
      <point x="1239" y="80" type="line"/>
      <point x="1239" y="0" type="line"/>
      <point x="766" y="0" type="line"/>
      <point x="766" y="80" type="line"/>
      <point x="911" y="115" type="line"/>
      <point x="913" y="527" type="line"/>
      <point x="911" y="1376" type="line"/>
      <point x="624" y="1422" type="line" smooth="yes"/>
      <point x="608" y="1425"/>
      <point x="585" y="1425"/>
      <point x="569" y="1425" type="qcurve" smooth="yes"/>
      <point x="500" y="1425"/>
      <point x="428" y="1361"/>
      <point x="428" y="1288" type="qcurve" smooth="yes"/>
      <point x="430" y="985" type="line"/>
      <point x="706" y="985" type="line"/>
      <point x="706" y="883" type="line"/>
      <point x="430" y="872" type="line"/>
      <point x="432" y="527" type="line"/>
      <point x="446" y="115" type="line"/>
      <point x="615" y="80" type="line"/>
      <point x="615" y="0" type="line"/>
    </contour>
  </outline>
</glyph>
<glyph name="brevebelowcomb.case" format="2">
  <advance width="551"/>
  <anchor x="276" y="0" name="_bottom"/>
  <anchor x="276" y="-426" name="bottom"/>
  <outline>
    <contour>
      <point x="566" y="-90" type="qcurve"/>
      <point x="659" y="-160" type="line"/>
      <point x="620" y="-259"/>
      <point x="419" y="-426"/>
      <point x="275" y="-426" type="qcurve" smooth="yes"/>
      <point x="147" y="-426"/>
      <point x="-60" y="-273"/>
      <point x="-108" y="-159" type="qcurve"/>
      <point x="-8" y="-90" type="line"/>
      <point x="35" y="-153"/>
      <point x="180" y="-257"/>
      <point x="275" y="-257" type="qcurve" smooth="yes"/>
      <point x="377" y="-257"/>
      <point x="523" y="-158"/>
    </contour>
  </outline>
</glyph>
<glyph name="brevecomb.case" format="2">
  <advance width="551"/>
  <anchor x="275" y="1500" name="_top"/>
  <anchor x="275" y="1976" name="top"/>
  <outline>
    <contour>
      <point x="566" y="1976" type="qcurve"/>
      <point x="659" y="1906" type="line"/>
      <point x="620" y="1807"/>
      <point x="419" y="1640"/>
      <point x="275" y="1640" type="qcurve" smooth="yes"/>
      <point x="147" y="1640"/>
      <point x="-60" y="1793"/>
      <point x="-108" y="1907" type="qcurve"/>
      <point x="-8" y="1976" type="line"/>
      <point x="35" y="1913"/>
      <point x="180" y="1809"/>
      <point x="275" y="1809" type="qcurve" smooth="yes"/>
      <point x="377" y="1809"/>
      <point x="523" y="1908"/>
    </contour>
  </outline>
</glyph>
<glyph name="caroncomb.alt" format="2">
  <advance width="551"/>
  <anchor x="29" y="1000" name="_topright"/>
  <outline>
    <contour>
      <point x="213" y="1028" type="line"/>
      <point x="291" y="1380" type="line" smooth="yes"/>
      <point x="306" y="1450"/>
      <point x="361" y="1520"/>
      <point x="401" y="1520" type="qcurve" smooth="yes"/>
      <point x="441" y="1520"/>
      <point x="491" y="1480"/>
      <point x="491" y="1440" type="qcurve" smooth="yes"/>
      <point x="491" y="1400"/>
      <point x="469" y="1334"/>
      <point x="447" y="1290" type="qcurve" smooth="yes"/>
      <point x="301" y="1000" type="line"/>
    </contour>
  </outline>
</glyph>
<glyph name="cedi.rvrn" format="2">
  <advance width="1402"/>
  <outline>
    <contour>
      <point x="159" y="691" type="qcurve" smooth="yes"/>
      <point x="159" y="993"/>
      <point x="515" y="1448"/>
      <point x="839" y="1448" type="qcurve" smooth="yes"/>
      <point x="1048" y="1448"/>
      <point x="1320" y="1209"/>
      <point x="1327" y="993" type="qcurve"/>
      <point x="1191" y="993" type="line"/>
      <point x="1182" y="1150"/>
      <point x="1026" y="1331"/>
      <point x="826" y="1331" type="qcurve" smooth="yes"/>
      <point x="610" y="1331"/>
      <point x="351" y="1009"/>
      <point x="353" y="728" type="qcurve" smooth="yes"/>
      <point x="355" y="457"/>
      <point x="624" y="169"/>
      <point x="827" y="169" type="qcurve" smooth="yes"/>
      <point x="973" y="169"/>
      <point x="1200" y="268"/>
      <point x="1260" y="353" type="qcurve"/>
      <point x="1347" y="277" type="line"/>
      <point x="1273" y="169"/>
      <point x="991" y="18"/>
      <point x="832" y="18" type="qcurve" smooth="yes"/>
      <point x="500" y="18"/>
      <point x="159" y="426"/>
    </contour>
    <contour>
      <point x="488" y="-149" type="line"/>
      <point x="542" y="87" type="line"/>
      <point x="561" y="82" type="line"/>
      <point x="572" y="131" type="line"/>
      <point x="690" y="92" type="line"/>
      <point x="682" y="55" type="line"/>
      <point x="703" y="50" type="line"/>
      <point x="661" y="-137" type="line"/>
    </contour>
    <contour>
      <point x="879" y="1567" type="line"/>
      <point x="1050" y="1567" type="line"/>
      <point x="1007" y="1382" type="line"/>
      <point x="987" y="1386" type="line"/>
      <point x="980" y="1356" type="line"/>
      <point x="859" y="1384" type="line"/>
      <point x="866" y="1414" type="line"/>
      <point x="845" y="1419" type="line"/>
    </contour>
  </outline>
</glyph>
<glyph name="che.bgr" format="2">
  <advance width="1326"/>
  <outline>
    <contour>
      <point x="729" y="0" type="line"/>
      <point x="729" y="136" type="line"/>
      <point x="887" y="171" type="line"/>
      <point x="889" y="520" type="line"/>
      <point x="887" y="837" type="line"/>
      <point x="749" y="867" type="line"/>
      <point x="749" y="1017" type="line"/>
      <point x="1038" y="1051" type="line"/>
      <point x="1073" y="1051" type="line"/>
      <point x="1098" y="1015" type="line"/>
      <point x="1096" y="526" type="line"/>
      <point x="1098" y="171" type="line"/>
      <point x="1246" y="136" type="line"/>
      <point x="1246" y="0" type="line"/>
    </contour>
    <contour>
      <point x="416" y="1015" type="line"/>
      <point x="415" y="764" type="line" smooth="yes"/>
      <point x="415" y="635"/>
      <point x="530" y="530"/>
      <point x="655" y="530" type="qcurve" smooth="yes"/>
      <point x="746" y="530"/>
      <point x="892" y="556"/>
      <point x="972" y="589" type="qcurve"/>
      <point x="972" y="458" type="line"/>
      <point x="889" y="425"/>
      <point x="722" y="392"/>
      <point x="601" y="392" type="qcurve" smooth="yes"/>
      <point x="417" y="392"/>
      <point x="208" y="551"/>
      <point x="206" y="726" type="qcurve" smooth="yes"/>
      <point x="207" y="837" type="line"/>
      <point x="56" y="867" type="line"/>
      <point x="56" y="1017" type="line"/>
      <point x="356" y="1051" type="line"/>
      <point x="391" y="1051" type="line"/>
    </contour>
  </outline>
</glyph>
<glyph name="colonsign.rvrn" format="2">
  <advance width="1402"/>
  <outline>
    <contour>
      <point x="159" y="691" type="qcurve" smooth="yes"/>
      <point x="159" y="993"/>
      <point x="515" y="1448"/>
      <point x="839" y="1448" type="qcurve" smooth="yes"/>
      <point x="1048" y="1448"/>
      <point x="1320" y="1209"/>
      <point x="1327" y="993" type="qcurve"/>
      <point x="1191" y="993" type="line"/>
      <point x="1182" y="1150"/>
      <point x="1026" y="1331"/>
      <point x="826" y="1331" type="qcurve" smooth="yes"/>
      <point x="610" y="1331"/>
      <point x="351" y="1009"/>
      <point x="353" y="728" type="qcurve" smooth="yes"/>
      <point x="355" y="457"/>
      <point x="624" y="169"/>
      <point x="827" y="169" type="qcurve" smooth="yes"/>
      <point x="973" y="169"/>
      <point x="1200" y="268"/>
      <point x="1260" y="353" type="qcurve"/>
      <point x="1347" y="277" type="line"/>
      <point x="1273" y="169"/>
      <point x="991" y="18"/>
      <point x="832" y="18" type="qcurve" smooth="yes"/>
      <point x="500" y="18"/>
      <point x="159" y="426"/>
    </contour>
    <contour>
      <point x="616" y="-149" type="line"/>
      <point x="670" y="87" type="line"/>
      <point x="681" y="82" type="line"/>
      <point x="694" y="140" type="line"/>
      <point x="806" y="71" type="line"/>
      <point x="802" y="55" type="line"/>
      <point x="815" y="50" type="line"/>
      <point x="773" y="-137" type="line"/>
    </contour>
    <contour>
      <point x="1007" y="1567" type="line"/>
      <point x="1162" y="1567" type="line"/>
      <point x="1112" y="1346" type="line"/>
      <point x="1100" y="1350" type="line"/>
      <point x="1092" y="1320" type="line"/>
      <point x="972" y="1359" type="line"/>
      <point x="979" y="1378" type="line"/>
      <point x="966" y="1383" type="line"/>
    </contour>
    <contour>
      <point x="338" y="-79" type="line"/>
      <point x="415" y="229" type="line"/>
      <point x="426" y="224" type="line"/>
      <point x="439" y="283" type="line"/>
      <point x="551" y="214" type="line"/>
      <point x="547" y="197" type="line"/>
      <point x="560" y="192" type="line"/>
      <point x="495" y="-67" type="line"/>
    </contour>
    <contour>
      <point x="717" y="1567" type="line"/>
      <point x="872" y="1567" type="line"/>
      <point x="829" y="1382" type="line"/>
      <point x="817" y="1386" type="line"/>
      <point x="810" y="1359" type="line"/>
      <point x="682" y="1359" type="line"/>
      <point x="688" y="1384" type="line"/>
      <point x="675" y="1389" type="line"/>
    </contour>
  </outline>
</glyph>
<glyph name="de.bgr" format="2">
  <advance width="1272"/>
  <outline>
    <contour>
      <point x="294" y="529" type="qcurve" smooth="yes"/>
      <point x="294" y="350"/>
      <point x="458" y="152"/>
      <point x="590" y="152" type="qcurve" smooth="yes"/>
      <point x="684" y="152"/>
      <point x="829" y="221"/>
      <point x="873" y="279" type="qcurve"/>
      <point x="875" y="828" type="line"/>
      <point x="840" y="877"/>
      <point x="711" y="934"/>
      <point x="615" y="934" type="qcurve" smooth="yes"/>
      <point x="473" y="934"/>
      <point x="294" y="700"/>
    </contour>
    <contour>
      <point x="255" y="-446" type="qcurve"/>
      <point x="232" y="-512" type="line"/>
      <point x="137" y="-512" type="line"/>
      <point x="137" y="-83" type="line"/>
      <point x="234" y="-83" type="line"/>
      <point x="251" y="-176" type="line" smooth="yes"/>
      <point x="270" y="-262"/>
      <point x="396" y="-374"/>
      <point x="526" y="-374" type="qcurve" smooth="yes"/>
      <point x="681" y="-374"/>
      <point x="867" y="-198"/>
      <point x="870" y="3" type="qcurve" smooth="yes"/>
      <point x="872" y="138" type="line"/>
      <point x="816" y="72"/>
      <point x="637" y="-9"/>
      <point x="519" y="-9" type="qcurve" smooth="yes"/>
      <point x="327" y="-9"/>
      <point x="68" y="267"/>
      <point x="68" y="502" type="qcurve" smooth="yes"/>
      <point x="68" y="758"/>
      <point x="352" y="1071"/>
      <point x="583" y="1071" type="qcurve" smooth="yes"/>
      <point x="670" y="1071"/>
      <point x="838" y="1019"/>
      <point x="888" y="979" type="qcurve"/>
      <point x="945" y="1061" type="line"/>
      <point x="1232" y="1026" type="line"/>
      <point x="1232" y="877" type="line"/>
      <point x="1082" y="843" type="line"/>
      <point x="1076" y="428" type="line"/>
      <point x="1079" y="21" type="line" smooth="yes"/>
      <point x="1081" y="-255"/>
      <point x="797" y="-512"/>
      <point x="538" y="-512" type="qcurve" smooth="yes"/>
      <point x="435" y="-512"/>
      <point x="298" y="-473"/>
    </contour>
  </outline>
</glyph>
<glyph name="diagonalbaro" format="2">
  <advance width="602"/>
  <outline>
    <contour>
      <point x="45" y="-122" type="line"/>
      <point x="102" y="86" type="line"/>
      <point x="120" y="81" type="line"/>
      <point x="256" y="583" type="line"/>
      <point x="364" y="515" type="line"/>
      <point x="241" y="54" type="line"/>
      <point x="261" y="50" type="line"/>
      <point x="210" y="-125" type="line"/>
    </contour>
    <contour>
      <point x="386" y="1145" type="line"/>
      <point x="557" y="1145" type="line"/>
      <point x="504" y="951" type="line"/>
      <point x="483" y="955" type="line"/>
      <point x="364" y="515" type="line"/>
      <point x="256" y="583" type="line"/>
      <point x="363" y="982" type="line"/>
      <point x="343" y="987" type="line"/>
    </contour>
  </outline>
</glyph>
<glyph name="dieresiscomb.case" format="2">
  <anchor x="0" y="1500" name="_top"/>
  <anchor x="0" y="1901" name="top"/>
  <outline>
    <contour>
      <point x="-365" y="1796" type="qcurve" smooth="yes"/>
      <point x="-365" y="1855"/>
      <point x="-300" y="1918"/>
      <point x="-240" y="1918" type="qcurve" smooth="yes"/>
      <point x="-183" y="1918"/>
      <point x="-115" y="1851"/>
      <point x="-115" y="1796" type="qcurve" smooth="yes"/>
      <point x="-115" y="1737"/>
      <point x="-179" y="1674"/>
      <point x="-240" y="1674" type="qcurve" smooth="yes"/>
      <point x="-297" y="1674"/>
      <point x="-365" y="1741"/>
    </contour>
    <contour>
      <point x="115" y="1796" type="qcurve" smooth="yes"/>
      <point x="115" y="1855"/>
      <point x="180" y="1918"/>
      <point x="240" y="1918" type="qcurve" smooth="yes"/>
      <point x="297" y="1918"/>
      <point x="365" y="1851"/>
      <point x="365" y="1796" type="qcurve" smooth="yes"/>
      <point x="365" y="1737"/>
      <point x="301" y="1674"/>
      <point x="240" y="1674" type="qcurve" smooth="yes"/>
      <point x="183" y="1674"/>
      <point x="115" y="1741"/>
    </contour>
  </outline>
</glyph>
<glyph name="dollar.rvrn" format="2">
  <advance width="1197"/>
  <outline>
    <contour>
      <point x="101" y="272" type="qcurve"/>
      <point x="217" y="345" type="line"/>
      <point x="271" y="255"/>
      <point x="471" y="122"/>
      <point x="623" y="122" type="qcurve" smooth="yes"/>
      <point x="770" y="122"/>
      <point x="936" y="271"/>
      <point x="936" y="383" type="qcurve" smooth="yes"/>
      <point x="936" y="520"/>
      <point x="736" y="667"/>
      <point x="562" y="723" type="qcurve" smooth="yes"/>
      <point x="359" y="789"/>
      <point x="166" y="975"/>
      <point x="166" y="1126" type="qcurve" smooth="yes"/>
      <point x="166" y="1284"/>
      <point x="397" y="1501"/>
      <point x="599" y="1501" type="qcurve" smooth="yes"/>
      <point x="722" y="1501"/>
      <point x="941" y="1436"/>
      <point x="1020" y="1373" type="qcurve"/>
      <point x="944" y="1267" type="line"/>
      <point x="889" y="1309"/>
      <point x="718" y="1371"/>
      <point x="603" y="1371" type="qcurve" smooth="yes"/>
      <point x="468" y="1371"/>
      <point x="326" y="1258"/>
      <point x="326" y="1162" type="qcurve" smooth="yes"/>
      <point x="326" y="1075"/>
      <point x="455" y="946"/>
      <point x="661" y="873" type="qcurve" smooth="yes"/>
      <point x="871" y="798"/>
      <point x="1096" y="608"/>
      <point x="1096" y="430" type="qcurve" smooth="yes"/>
      <point x="1096" y="248"/>
      <point x="835" y="1"/>
      <point x="626" y="1" type="qcurve" smooth="yes"/>
      <point x="427" y="1"/>
      <point x="176" y="142"/>
    </contour>
    <contour>
      <point x="535" y="1610" type="line"/>
      <point x="701" y="1649" type="line"/>
      <point x="701" y="1418" type="line"/>
      <point x="680" y="1418" type="line"/>
      <point x="680" y="1417" type="line"/>
      <point x="556" y="1417" type="line"/>
      <point x="556" y="1418" type="line"/>
      <point x="535" y="1418" type="line"/>
    </contour>
    <contour>
      <point x="536" y="-190" type="line"/>
      <point x="536" y="52" type="line"/>
      <point x="556" y="52" type="line"/>
      <point x="556" y="53" type="line"/>
      <point x="680" y="53" type="line"/>
      <point x="680" y="52" type="line"/>
      <point x="702" y="52" type="line"/>
      <point x="702" y="-140" type="line"/>
    </contour>
  </outline>
</glyph>
<glyph name="eight.lc" format="2">
  <advance width="1106"/>
  <outline>
    <contour>
      <point x="87" y="326" type="qcurve" smooth="yes"/>
      <point x="87" y="490"/>
      <point x="316" y="702"/>
      <point x="454" y="745" type="qcurve"/>
      <point x="533" y="682" type="line"/>
      <point x="398" y="633"/>
      <point x="228" y="456"/>
      <point x="228" y="341" type="qcurve" smooth="yes"/>
      <point x="228" y="218"/>
      <point x="398" y="86"/>
      <point x="542" y="86" type="qcurve" smooth="yes"/>
      <point x="677" y="86"/>
      <point x="854" y="230"/>
      <point x="854" y="345" type="qcurve" smooth="yes"/>
      <point x="854" y="441"/>
      <point x="732" y="564"/>
      <point x="549" y="640" type="qcurve" smooth="yes"/>
      <point x="360" y="719"/>
      <point x="173" y="901"/>
      <point x="176" y="1035" type="qcurve" smooth="yes"/>
      <point x="179" y="1181"/>
      <point x="408" y="1360"/>
      <point x="582" y="1360" type="qcurve" smooth="yes"/>
      <point x="738" y="1360"/>
      <point x="938" y="1199"/>
      <point x="940" y="1081" type="qcurve" smooth="yes"/>
      <point x="942" y="949"/>
      <point x="803" y="780"/>
      <point x="671" y="716" type="qcurve"/>
      <point x="581" y="778" type="line"/>
      <point x="695" y="831"/>
      <point x="807" y="969"/>
      <point x="807" y="1055" type="qcurve" smooth="yes"/>
      <point x="807" y="1147"/>
      <point x="674" y="1248"/>
      <point x="572" y="1248" type="qcurve" smooth="yes"/>
      <point x="468" y="1248"/>
      <point x="325" y="1139"/>
      <point x="325" y="1054" type="qcurve" smooth="yes"/>
      <point x="325" y="971"/>
      <point x="456" y="861"/>
      <point x="651" y="781" type="qcurve" smooth="yes"/>
      <point x="841" y="702"/>
      <point x="1019" y="527"/>
      <point x="1019" y="367" type="qcurve" smooth="yes"/>
      <point x="1019" y="205"/>
      <point x="748" y="-21"/>
      <point x="535" y="-21" type="qcurve" smooth="yes"/>
      <point x="326" y="-21"/>
      <point x="87" y="159"/>
    </contour>
  </outline>
</glyph>
<glyph name="eight.tab" format="2">
  <advance width="1090"/>
  <outline>
    <contour>
      <point x="78" y="392" type="qcurve" smooth="yes"/>
      <point x="78" y="584"/>
      <point x="313" y="807"/>
      <point x="429" y="851" type="qcurve"/>
      <point x="499" y="791" type="line"/>
      <point x="377" y="739"/>
      <point x="213" y="557"/>
      <point x="213" y="408" type="qcurve" smooth="yes"/>
      <point x="213" y="270"/>
      <point x="391" y="87"/>
      <point x="551" y="87" type="qcurve" smooth="yes"/>
      <point x="682" y="87"/>
      <point x="853" y="250"/>
      <point x="853" y="390" type="qcurve" smooth="yes"/>
      <point x="853" y="509"/>
      <point x="709" y="647"/>
      <point x="527" y="733" type="qcurve" smooth="yes"/>
      <point x="325" y="828"/>
      <point x="163" y="1015"/>
      <point x="163" y="1166" type="qcurve" smooth="yes"/>
      <point x="163" y="1330"/>
      <point x="414" y="1530"/>
      <point x="564" y="1530" type="qcurve" smooth="yes"/>
      <point x="718" y="1530"/>
      <point x="920" y="1350"/>
      <point x="920" y="1217" type="qcurve" smooth="yes"/>
      <point x="920" y="1086"/>
      <point x="774" y="889"/>
      <point x="645" y="807" type="qcurve"/>
      <point x="565" y="866" type="line"/>
      <point x="673" y="933"/>
      <point x="784" y="1078"/>
      <point x="784" y="1188" type="qcurve" smooth="yes"/>
      <point x="784" y="1292"/>
      <point x="659" y="1420"/>
      <point x="558" y="1420" type="qcurve" smooth="yes"/>
      <point x="454" y="1420"/>
      <point x="308" y="1282"/>
      <point x="308" y="1187" type="qcurve" smooth="yes"/>
      <point x="308" y="1094"/>
      <point x="427" y="970"/>
      <point x="623" y="880" type="qcurve" smooth="yes"/>
      <point x="815" y="792"/>
      <point x="1014" y="586"/>
      <point x="1014" y="415" type="qcurve" smooth="yes"/>
      <point x="1014" y="233"/>
      <point x="753" y="-22"/>
      <point x="551" y="-22" type="qcurve" smooth="yes"/>
      <point x="328" y="-22"/>
      <point x="78" y="228"/>
    </contour>
  </outline>
</glyph>
<glyph name="engn" format="2">
  <advance width="1318"/>
  <outline>
    <contour>
      <point x="121" y="0" type="line"/>
      <point x="121" y="80" type="line"/>
      <point x="269" y="115" type="line"/>
      <point x="271" y="527" type="line"/>
      <point x="269" y="842" type="line"/>
      <point x="121" y="872" type="line"/>
      <point x="121" y="966" type="line"/>
      <point x="379" y="1000" type="line"/>
      <point x="414" y="973" type="line"/>
      <point x="439" y="854" type="line"/>
      <point x="496" y="928"/>
      <point x="685" y="1021"/>
      <point x="786" y="1021" type="qcurve" smooth="yes"/>
      <point x="940" y="1021"/>
      <point x="1095" y="872"/>
      <point x="1095" y="742" type="qcurve" smooth="yes"/>
      <point x="1095" y="668"/>
      <point x="1090" y="527"/>
      <point x="1090" y="527" type="qcurve"/>
      <point x="1094" y="0" type="line"/>
      <point x="927" y="0" type="line"/>
      <point x="927" y="527" type="line"/>
      <point x="927" y="702" type="line" smooth="yes"/>
      <point x="927" y="785"/>
      <point x="819" y="877"/>
      <point x="730" y="877" type="qcurve" smooth="yes"/>
      <point x="641" y="877"/>
      <point x="483" y="793"/>
      <point x="438" y="725" type="qcurve"/>
      <point x="437" y="527" type="line"/>
      <point x="439" y="115" type="line"/>
      <point x="577" y="80" type="line"/>
      <point x="577" y="0" type="line"/>
    </contour>
  </outline>
</glyph>
<glyph name="hard.bgr" format="2">
  <advance width="1118"/>
  <guideline x="302" y="625" angle="90.0" identifier="hJEtU189HI"/>
  <guideline x="953" y="554" angle="90.0" identifier="OJ6JOUdkXL"/>
  <guideline x="627" y="553" angle="90.0" identifier="0FBK0wOxmp"/>
  <guideline x="302" y="625" angle="90.0" identifier="Rr3Uj9U52E"/>
  <guideline x="953" y="554" angle="90.0" identifier="3wAoOxo3E3"/>
  <guideline x="627" y="553" angle="90.0" identifier="t28Mj4vwqs"/>
  <outline>
    <contour>
      <point x="599" y="88" type="qcurve" smooth="yes"/>
      <point x="719" y="88"/>
      <point x="827" y="220"/>
      <point x="827" y="324" type="qcurve" smooth="yes"/>
      <point x="827" y="416"/>
      <point x="722" y="536"/>
      <point x="591" y="536" type="qcurve" smooth="yes"/>
      <point x="410" y="536" type="line"/>
      <point x="410" y="641" type="line"/>
      <point x="591" y="641" type="line" smooth="yes"/>
      <point x="793" y="641"/>
      <point x="1013" y="470"/>
      <point x="1013" y="324" type="qcurve" smooth="yes"/>
      <point x="1013" y="170"/>
      <point x="791" y="-19"/>
      <point x="600" y="-22" type="qcurve" smooth="yes"/>
      <point x="408" y="-25"/>
      <point x="209" y="148"/>
      <point x="209" y="294" type="qcurve" smooth="yes"/>
      <point x="209" y="399"/>
      <point x="307" y="581"/>
      <point x="428" y="723" type="qcurve" smooth="yes"/>
      <point x="565" y="884" type="line"/>
      <point x="249" y="884" type="line"/>
      <point x="205" y="662" type="line"/>
      <point x="105" y="662" type="line"/>
      <point x="105" y="1000" type="line"/>
      <point x="752" y="1000" type="line"/>
      <point x="752" y="911" type="line"/>
      <point x="509" y="615" type="line" smooth="yes"/>
      <point x="430" y="518"/>
      <point x="377" y="388"/>
      <point x="377" y="293" type="qcurve" smooth="yes"/>
      <point x="377" y="197"/>
      <point x="484" y="88"/>
    </contour>
  </outline>
</glyph>
<glyph name="horizontalbarlc" format="2">
  <advance width="726"/>
  <outline>
    <contour>
      <point x="356" y="656" type="line"/>
      <point x="94" y="656" type="line"/>
      <point x="105" y="782" type="line"/>
      <point x="396" y="782" type="line"/>
      <point x="671" y="782" type="line"/>
      <point x="671" y="656" type="line"/>
    </contour>
  </outline>
</glyph>
<glyph name="hungarumlautcomb.case" format="2">
  <advance width="551"/>
  <anchor x="275" y="1500" name="_top"/>
  <anchor x="275" y="1994" name="top"/>
  <outline>
    <contour>
      <point x="279" y="1916" type="qcurve" smooth="yes"/>
      <point x="279" y="1869"/>
      <point x="236" y="1832"/>
      <point x="198" y="1799" type="qcurve" smooth="yes"/>
      <point x="-45" y="1592" type="line"/>
      <point x="-119" y="1668" type="line"/>
      <point x="60" y="1895" type="line" smooth="yes"/>
      <point x="92" y="1935"/>
      <point x="147" y="1994"/>
      <point x="184" y="1994" type="qcurve" smooth="yes"/>
      <point x="218" y="1994"/>
      <point x="279" y="1951"/>
    </contour>
    <contour>
      <point x="669" y="1916" type="qcurve" smooth="yes"/>
      <point x="669" y="1869"/>
      <point x="626" y="1832"/>
      <point x="588" y="1799" type="qcurve" smooth="yes"/>
      <point x="345" y="1592" type="line"/>
      <point x="271" y="1668" type="line"/>
      <point x="451" y="1895" type="line" smooth="yes"/>
      <point x="483" y="1935"/>
      <point x="537" y="1994"/>
      <point x="574" y="1994" type="qcurve" smooth="yes"/>
      <point x="608" y="1994"/>
      <point x="669" y="1951"/>
    </contour>
  </outline>
</glyph>
<glyph name="jdotless" format="2">
  <advance width="688"/>
  <anchor x="323" y="-436" name="bottom"/>
  <anchor x="345" y="1051" name="top"/>
  <outline>
    <contour>
      <point x="33" y="-479" type="qcurve"/>
      <point x="33" y="-308" type="line"/>
      <point x="162" y="-305"/>
      <point x="266" y="-224"/>
      <point x="266" y="-107" type="qcurve" smooth="yes"/>
      <point x="264" y="527" type="line"/>
      <point x="259" y="837" type="line"/>
      <point x="90" y="867" type="line"/>
      <point x="90" y="1017" type="line"/>
      <point x="410" y="1051" type="line"/>
      <point x="457" y="1051" type="line"/>
      <point x="480" y="1012" type="line"/>
      <point x="474" y="527" type="line"/>
      <point x="476" y="-122" type="line" smooth="yes"/>
      <point x="477" y="-301"/>
      <point x="265" y="-490"/>
    </contour>
  </outline>
</glyph>
<glyph name="ogonekcomb.case" format="2">
  <advance width="551"/>
  <anchor x="322" y="0" name="_ogonek"/>
  <anchor x="271" y="-497" name="bottom"/>
  <outline>
    <contour>
      <point x="-20" y="-306" type="qcurve" smooth="yes"/>
      <point x="-20" y="-217"/>
      <point x="108" y="-41"/>
      <point x="170" y="7" type="qcurve" smooth="yes"/>
      <point x="227" y="51" type="line"/>
      <point x="322" y="0" type="line"/>
      <point x="279" y="-42" type="line" smooth="yes"/>
      <point x="215" y="-104"/>
      <point x="152" y="-199"/>
      <point x="152" y="-244" type="qcurve" smooth="yes"/>
      <point x="152" y="-292"/>
      <point x="212" y="-347"/>
      <point x="264" y="-347" type="qcurve" smooth="yes"/>
      <point x="311" y="-347"/>
      <point x="443" y="-301"/>
      <point x="505" y="-254" type="qcurve"/>
      <point x="562" y="-357" type="line"/>
      <point x="517" y="-418"/>
      <point x="341" y="-497"/>
      <point x="237" y="-497" type="qcurve" smooth="yes"/>
      <point x="132" y="-497"/>
      <point x="-20" y="-384"/>
    </contour>
  </outline>
</glyph>
<glyph name="shcha.bgr" format="2">
  <advance width="2050"/>
  <outline>
    <contour>
      <point x="1774" y="0" type="line"/>
      <point x="1658" y="0" type="line"/>
      <point x="1623" y="27" type="line"/>
      <point x="1599" y="147" type="line"/>
      <point x="1541" y="70"/>
      <point x="1338" y="-21"/>
      <point x="1229" y="-21" type="qcurve" smooth="yes"/>
      <point x="1099" y="-21"/>
      <point x="939" y="73"/>
      <point x="914" y="159" type="qcurve"/>
      <point x="842" y="68"/>
      <point x="642" y="-21"/>
      <point x="531" y="-21" type="qcurve" smooth="yes"/>
      <point x="368" y="-21"/>
      <point x="204" y="128"/>
      <point x="204" y="258" type="qcurve" smooth="yes"/>
      <point x="204" y="340"/>
      <point x="209" y="475"/>
      <point x="209" y="503" type="qcurve" smooth="yes"/>
      <point x="205" y="837" type="line"/>
      <point x="56" y="867" type="line"/>
      <point x="56" y="1017" type="line"/>
      <point x="355" y="1051" type="line"/>
      <point x="390" y="1051" type="line"/>
      <point x="415" y="1015" type="line"/>
      <point x="413" y="535" type="line"/>
      <point x="413" y="330" type="line" smooth="yes"/>
      <point x="413" y="264"/>
      <point x="515" y="155"/>
      <point x="610" y="155" type="qcurve" smooth="yes"/>
      <point x="688" y="155"/>
      <point x="851" y="231"/>
      <point x="902" y="306" type="qcurve"/>
      <point x="902" y="312"/>
      <point x="902" y="325"/>
      <point x="902" y="331" type="qcurve" smooth="yes"/>
      <point x="903" y="399"/>
      <point x="906" y="511"/>
      <point x="906" y="535" type="qcurve" smooth="yes"/>
      <point x="902" y="837" type="line"/>
      <point x="753" y="867" type="line"/>
      <point x="753" y="1017" type="line"/>
      <point x="1052" y="1051" type="line"/>
      <point x="1087" y="1051" type="line"/>
      <point x="1112" y="1015" type="line"/>
      <point x="1110" y="535" type="line"/>
      <point x="1110" y="330" type="line" smooth="yes"/>
      <point x="1110" y="264"/>
      <point x="1212" y="155"/>
      <point x="1307" y="155" type="qcurve" smooth="yes"/>
      <point x="1385" y="155"/>
      <point x="1547" y="231"/>
      <point x="1599" y="307" type="qcurve"/>
      <point x="1600" y="535" type="line"/>
      <point x="1598" y="837" type="line"/>
      <point x="1460" y="867" type="line"/>
      <point x="1460" y="1017" type="line"/>
      <point x="1750" y="1051" type="line"/>
      <point x="1785" y="1051" type="line"/>
      <point x="1810" y="1015" type="line"/>
      <point x="1808" y="503" type="line"/>
      <point x="1810" y="161" type="line"/>
      <point x="1981" y="161" type="line"/>
      <point x="1991" y="-350" type="line"/>
      <point x="1863" y="-350" type="line"/>
    </contour>
  </outline>
</glyph>
<glyph name="six.tab" format="2">
  <advance width="1090"/>
  <outline>
    <contour>
      <point x="99" y="619" type="qcurve" smooth="yes"/>
      <point x="99" y="947"/>
      <point x="479" y="1461"/>
      <point x="816" y="1579" type="qcurve"/>
      <point x="841" y="1481" type="line"/>
      <point x="590" y="1374"/>
      <point x="283" y="976"/>
      <point x="283" y="616" type="qcurve" smooth="yes"/>
      <point x="283" y="358"/>
      <point x="465" y="89"/>
      <point x="604" y="89" type="qcurve" smooth="yes"/>
      <point x="710" y="89"/>
      <point x="847" y="290"/>
      <point x="847" y="457" type="qcurve" smooth="yes"/>
      <point x="847" y="625"/>
      <point x="701" y="793"/>
      <point x="595" y="793" type="qcurve" smooth="yes"/>
      <point x="525" y="793"/>
      <point x="454" y="774"/>
      <point x="424" y="763" type="qcurve"/>
      <point x="390" y="833" type="line"/>
      <point x="424" y="869"/>
      <point x="550" y="926"/>
      <point x="624" y="926" type="qcurve" smooth="yes"/>
      <point x="808" y="926"/>
      <point x="1029" y="686"/>
      <point x="1029" y="519" type="qcurve" smooth="yes"/>
      <point x="1029" y="258"/>
      <point x="785" y="-22"/>
      <point x="600" y="-22" type="qcurve" smooth="yes"/>
      <point x="379" y="-22"/>
      <point x="99" y="337"/>
    </contour>
  </outline>
</glyph>
<glyph name="tildecomb.case" format="2">
  <advance width="551"/>
  <anchor x="280" y="1500" name="_top"/>
  <anchor x="280" y="1932" name="top"/>
  <outline>
    <contour>
      <point x="-137" y="1750" type="line"/>
      <point x="-100" y="1819"/>
      <point x="51" y="1932"/>
      <point x="128" y="1932" type="qcurve" smooth="yes"/>
      <point x="174" y="1932"/>
      <point x="256" y="1902"/>
      <point x="298" y="1874" type="qcurve" smooth="yes"/>
      <point x="328" y="1856"/>
      <point x="425" y="1800"/>
      <point x="472" y="1800" type="qcurve" smooth="yes"/>
      <point x="518" y="1800"/>
      <point x="603" y="1857"/>
      <point x="629" y="1896" type="qcurve"/>
      <point x="697" y="1811" type="line"/>
      <point x="655" y="1729"/>
      <point x="516" y="1640"/>
      <point x="453" y="1640" type="qcurve" smooth="yes"/>
      <point x="400" y="1640"/>
      <point x="293" y="1689"/>
      <point x="261" y="1711" type="qcurve" smooth="yes"/>
      <point x="225" y="1736"/>
      <point x="142" y="1774"/>
      <point x="109" y="1774" type="qcurve" smooth="yes"/>
      <point x="56" y="1774"/>
      <point x="-42" y="1695"/>
      <point x="-62" y="1665" type="qcurve"/>
    </contour>
  </outline>
</glyph>
<glyph name="tonoscomb" format="2">
  <advance width="490"/>
  <anchor x="221" y="1000" name="_GRKtop"/>
  <outline>
    <contour>
      <point x="240" y="1150" type="line"/>
      <point x="149" y="1183" type="line"/>
      <point x="255" y="1606" type="line"/>
      <point x="414" y="1588" type="line"/>
      <point x="440" y="1543" type="line"/>
    </contour>
  </outline>
</glyph>
<glyph name="tse.bgr" format="2">
  <advance width="1359"/>
  <outline>
    <contour>
      <point x="1063" y="0" type="line"/>
      <point x="965" y="0" type="line"/>
      <point x="930" y="27" type="line"/>
      <point x="906" y="147" type="line"/>
      <point x="849" y="72"/>
      <point x="660" y="-21"/>
      <point x="558" y="-21" type="qcurve" smooth="yes"/>
      <point x="404" y="-21"/>
      <point x="249" y="128"/>
      <point x="249" y="258" type="qcurve" smooth="yes"/>
      <point x="249" y="330"/>
      <point x="254" y="448"/>
      <point x="254" y="473" type="qcurve" smooth="yes"/>
      <point x="249" y="842" type="line"/>
      <point x="101" y="872" type="line"/>
      <point x="101" y="966" type="line"/>
      <point x="359" y="1000" type="line"/>
      <point x="394" y="1000" type="line"/>
      <point x="419" y="964" type="line"/>
      <point x="417" y="473" type="line"/>
      <point x="417" y="288" type="line" smooth="yes"/>
      <point x="417" y="222"/>
      <point x="519" y="113"/>
      <point x="614" y="113" type="qcurve" smooth="yes"/>
      <point x="692" y="113"/>
      <point x="854" y="189"/>
      <point x="906" y="265" type="qcurve"/>
      <point x="907" y="473" type="line"/>
      <point x="905" y="842" type="line"/>
      <point x="767" y="872" type="line"/>
      <point x="767" y="966" type="line"/>
      <point x="1015" y="1000" type="line"/>
      <point x="1050" y="1000" type="line"/>
      <point x="1075" y="964" type="line"/>
      <point x="1073" y="473" type="line"/>
      <point x="1075" y="105" type="line"/>
      <point x="1234" y="105" type="line"/>
      <point x="1244" y="-318" type="line"/>
      <point x="1152" y="-318" type="line"/>
    </contour>
  </outline>
</glyph>
<glyph name="ze.bgr" format="2">
  <advance width="1022"/>
  <outline>
    <contour>
      <point x="932" y="-84" type="qcurve" smooth="yes"/>
      <point x="932" y="-288"/>
      <point x="677" y="-512"/>
      <point x="471" y="-512" type="qcurve" smooth="yes"/>
      <point x="370" y="-512"/>
      <point x="243" y="-471"/>
      <point x="213" y="-446" type="qcurve"/>
      <point x="190" y="-496" type="line"/>
      <point x="95" y="-496" type="line"/>
      <point x="95" y="-144" type="line"/>
      <point x="192" y="-144" type="line"/>
      <point x="209" y="-205" type="line" smooth="yes"/>
      <point x="234" y="-296"/>
      <point x="349" y="-401"/>
      <point x="477" y="-401" type="qcurve" smooth="yes"/>
      <point x="620" y="-401"/>
      <point x="766" y="-233"/>
      <point x="766" y="-76" type="qcurve" smooth="yes"/>
      <point x="766" y="75"/>
      <point x="617" y="242"/>
      <point x="477" y="242" type="qcurve" smooth="yes"/>
      <point x="334" y="242" type="line"/>
      <point x="334" y="344" type="line"/>
      <point x="468" y="344" type="line" smooth="yes"/>
      <point x="581" y="344"/>
      <point x="711" y="501"/>
      <point x="711" y="635" type="qcurve" smooth="yes"/>
      <point x="711" y="773"/>
      <point x="601" y="912"/>
      <point x="489" y="912" type="qcurve" smooth="yes"/>
      <point x="379" y="912"/>
      <point x="267" y="807"/>
      <point x="244" y="725" type="qcurve" smooth="yes"/>
      <point x="227" y="664" type="line"/>
      <point x="130" y="664" type="line"/>
      <point x="130" y="1006" type="line"/>
      <point x="225" y="1006" type="line"/>
      <point x="248" y="956" type="line"/>
      <point x="278" y="980"/>
      <point x="404" y="1022"/>
      <point x="496" y="1022" type="qcurve" smooth="yes"/>
      <point x="672" y="1022"/>
      <point x="875" y="839"/>
      <point x="875" y="645" type="qcurve" smooth="yes"/>
      <point x="875" y="538"/>
      <point x="757" y="351"/>
      <point x="620" y="300" type="qcurve"/>
      <point x="620" y="296" type="line"/>
      <point x="773" y="269"/>
      <point x="932" y="73"/>
    </contour>
  </outline>
</glyph>
<glyph name="zhe.bgr" format="2">
  <advance width="1757"/>
  <outline>
    <contour>
      <point x="655" y="0" type="line"/>
      <point x="655" y="80" type="line"/>
      <point x="794" y="115" type="line"/>
      <point x="796" y="527" type="line"/>
      <point x="794" y="1376" type="line"/>
      <point x="628" y="1406" type="line"/>
      <point x="628" y="1500" type="line"/>
      <point x="904" y="1534" type="line"/>
      <point x="936" y="1534" type="line"/>
      <point x="964" y="1502" type="line"/>
      <point x="962" y="507" type="line"/>
      <point x="964" y="115" type="line"/>
      <point x="1102" y="80" type="line"/>
      <point x="1102" y="0" type="line"/>
    </contour>
    <contour>
      <point x="879" y="372" type="line"/>
      <point x="879" y="487" type="line"/>
      <point x="1294" y="880" type="line"/>
      <point x="1147" y="910" type="line"/>
      <point x="1147" y="1000" type="line"/>
      <point x="1593" y="1000" type="line"/>
      <point x="1593" y="910" type="line"/>
      <point x="1435" y="875" type="line"/>
    </contour>
    <contour>
      <point x="1061" y="599" type="line"/>
      <point x="1177" y="698" type="line"/>
      <point x="1570" y="115" type="line"/>
      <point x="1688" y="80" type="line"/>
      <point x="1688" y="0" type="line"/>
      <point x="1389" y="0" type="line"/>
      <point x="1377" y="79" type="line"/>
      <point x="1386" y="111" type="line"/>
    </contour>
    <contour>
      <point x="879" y="372" type="line"/>
      <point x="312" y="875" type="line"/>
      <point x="154" y="910" type="line"/>
      <point x="154" y="1000" type="line"/>
      <point x="610" y="1000" type="line"/>
      <point x="610" y="910" type="line"/>
      <point x="463" y="880" type="line"/>
      <point x="879" y="486" type="line"/>
    </contour>
    <contour>
      <point x="689" y="589" type="line"/>
      <point x="371" y="111" type="line"/>
      <point x="380" y="79" type="line"/>
      <point x="368" y="0" type="line"/>
      <point x="69" y="0" type="line"/>
      <point x="69" y="80" type="line"/>
      <point x="195" y="115" type="line"/>
      <point x="581" y="688" type="line"/>
    </contour>
  </outline>
</glyph>
